<svg width="175" height="149" viewBox="0 0 175 149" fill="none" xmlns="http://www.w3.org/2000/svg">
<path fill-rule="evenodd" clip-rule="evenodd" d="M38.1858 83.316C47.3861 82.9288 56.4112 81.0608 65.5975 79.7713C78.2674 78.4507 90.3191 75.9857 102.886 74.5092C113.074 75.8804 112.257 85.8234 106.842 91.321C98.1369 100.158 72.7672 102.578 66.2263 104.511C52.4532 107.092 37.8153 108.738 30.8603 106.239C12.6213 100.538 12.8005 88.7379 16.9263 84.5087C20.5044 81.3299 35.5241 84.1409 38.1858 83.316Z" fill="#FBE985"/>
<path fill-rule="evenodd" clip-rule="evenodd" d="M31.297 66.6409C22.7412 66.9847 19.5659 69.6873 17.5127 76.5319C6.72758 74.5678 14.3313 62.8161 21.7977 62.1323C28.1795 61.5477 34.202 61.7158 40.5651 61.4883C76.3441 60.8401 92.3154 51.0844 101.053 58.4173C105.027 61.8462 102 66.4737 101.695 65.6766C98.5837 60.6303 93.9373 60.4383 89.3891 61.2791C88.5242 61.7609 88.5349 56.6218 84.8379 59.0085C84.0847 59.7953 82.5359 58.052 81.3168 58.5221C78.7852 58.9766 79.8776 60.5582 79.023 61.1801C75.5128 62.1419 76.3162 64.2715 74.6797 64.2132C75.7449 61.2873 75.2357 60.1898 72.0244 61.329C70.4565 61.9639 72.1617 62.599 71.683 63.2675C71.4607 66.0892 66.9088 65.1006 64.8729 65.7939C64.7825 61.6512 61.7646 62.2666 59.077 63.3318C57.2108 61.9217 56.1302 62.2782 55.0149 63.2264C52.6623 62.6431 50.644 64.5721 51.266 66.5299C50.1868 66.5464 49.1078 66.5628 48.0286 66.5794C48.2868 65.8153 47.7511 63.8429 47.1753 63.8399C46.2816 63.6256 41.6689 64.3827 43.2453 66.1278C43.4741 66.498 43.3455 66.6711 42.5284 66.5442C42.9736 64.0016 40.4266 62.5399 38.0649 63.5632C37.2208 62.9562 36.5746 61.7943 35.347 61.8861C33.8347 61.9515 33.9842 62.8558 33.5419 63.9856C32.5153 64.367 31.4444 65.3174 31.297 66.6409Z" fill="#FBE985"/>
<path fill-rule="evenodd" clip-rule="evenodd" d="M30.6307 67.9515C39.4957 67.8145 48.4281 67.8063 57.2911 67.467C59.9679 67.3645 62.6383 67.2319 65.2987 67.0564C64.41 67.9462 65.2065 67.8509 65.1181 68.8818C62.1815 67.0824 60.2269 70.9951 59.5584 73.4288C58.7252 72.4286 57.1682 71.5117 55.7839 72.1906C55.7954 72.0359 55.8067 71.8814 55.8191 71.7141C55.3014 72.0331 55.4504 72.131 55.1423 72.7481C53.9136 67.3242 50.995 69.0823 48.2109 72.1345C46.5805 74.0765 43.8519 82.1891 41.3696 77.4204C40.6362 75.3223 40.7429 72.8953 39.783 70.8256C37.5388 67.632 33.5132 70.097 31.9312 72.9209C29.5794 76.7534 25.5399 81.6189 24.6634 74.5381C24.4991 73.424 25.5746 71.3114 24.4296 71.1972C21.9245 70.9472 23.1952 76.4807 24.3409 77.6395C30.375 84.5064 33.8109 66.4621 38.7015 71.4087C39.3001 73.4245 39.0338 76.4154 40.0538 78.4232C39.2572 78.743 38.9569 77.4943 38.2454 76.9207C35.9148 74.8599 33.2544 76.5304 33.6701 79.3348C32.6062 79.8829 31.6459 80.8574 31.8423 82.2887C26.3659 82.1418 20.9117 82.7212 20.8128 82.0613C14.1087 72.8298 25.9729 67.573 25.932 68.9745C27.4467 70.4203 25.5901 70.2871 27.7021 71.2063C28.7435 71.5353 29.8607 70.2026 30.8015 69.6165C31.1543 69.1064 30.4302 68.6456 30.6307 67.9515L32.1533 70.2792L30.6307 67.9515Z" fill="#FD7E77"/>
<path fill-rule="evenodd" clip-rule="evenodd" d="M84.9919 63.4409C89.1384 62.7312 93.5089 60.8221 97.7197 62.9706C103.081 65.7062 103.275 75.1742 98.9021 74.5757C98.9182 73.8957 97.7969 72.5683 97.5809 71.9317C100.963 70.7575 96.5964 70.2697 96.0797 68.8707C93.7786 62.3879 90.2753 63.7471 88.5615 65.9433C86.2145 69.5925 88.7485 74.6147 83.7904 72.5999C81.7914 71.4973 80.0461 73.9978 78.7585 72.1183C76.6417 69.1833 75.4018 69.5078 74.6881 72.5564C73.1242 79.2364 67.8611 77.1373 65.9928 70.1026C66.1577 70.7234 66.787 71.1493 69.1947 66.7571C69.5152 66.6382 69.6809 65.9511 70.0163 65.8468C74.3446 64.4999 79.9951 64.8469 84.5932 63.4948L84.5882 63.4967C84.6315 63.4953 84.6748 63.494 84.7181 63.4926L84.7145 63.4938C84.7826 63.4843 84.8507 63.4747 84.9188 63.4651L84.9159 63.4657C84.942 63.4569 84.9682 63.4482 84.9943 63.4394L84.9919 63.4409Z" fill="#FD7E77"/>
<path fill-rule="evenodd" clip-rule="evenodd" d="M98.4117 72.3808C101.343 77.5126 87.9317 76.0597 85.5456 76.983C84.0216 75.9584 85.6937 75.1129 86.1906 74.2028C86.3894 72.3728 88.2334 71.3653 89.969 71.1397C90.5627 71.0425 90.9692 71.7328 91.4756 71.0839C93.271 69.1229 96.9809 71.7795 98.4117 72.3808Z" fill="#EAF1CA"/>
<path fill-rule="evenodd" clip-rule="evenodd" d="M85.5423 74.6224C83.6726 78.5828 85.8476 73.7753 81.5419 74.2394L81.5461 74.2386C80.6101 73.9056 77.8094 74.6857 79.8637 75.71C79.3251 76.2033 80.076 77.2019 78.7718 77.1943C76.6507 77.238 74.4731 77.6904 72.565 77.4717C73.3424 76.8654 73.6672 75.5345 72.2533 75.2868C73.6844 73.4686 73.9775 70.9678 75.2143 68.8589C80.354 63.6884 78.754 74.8089 85.5423 74.6224Z" fill="#FD7E77"/>
<path fill-rule="evenodd" clip-rule="evenodd" d="M31.8441 82.2918C31.7004 79.9919 33.0742 80.1345 33.6941 79.11C33.6677 74.36 37.8707 75.9481 39.7614 78.5323C41.8528 79.0382 41.8882 77.3558 43.5694 80.5872C45.2403 83.6806 32.0878 84.072 31.8441 82.2918Z" fill="#E9F1C8"/>
<path fill-rule="evenodd" clip-rule="evenodd" d="M57.4581 79.8039C53.6623 80.2411 48.2902 81.9479 48.0636 80.5235L48.0641 80.5256C48.0556 80.4998 48.0471 80.4738 48.0387 80.4478L48.0392 80.4502C48.3533 79.497 47.7628 76.2965 46.7984 78.2985C55.0592 61.1501 52.872 77.9281 58.2146 77.9863C57.6193 77.9798 57.25 78.9673 57.4581 79.8039Z" fill="#FD7E77"/>
<path fill-rule="evenodd" clip-rule="evenodd" d="M84.5081 63.4747C77.6408 65.4803 78.4742 63.0296 77.2318 64.2688C74.656 66.7394 75.4502 61.6842 79.053 61.1654C79.8243 59.5689 79.8384 58.3204 82.1128 58.5025C86.1479 59.9996 84.3753 58.0586 87.0702 58.4845C88.0775 58.8071 88.518 59.5548 88.7985 60.6563C90.2194 63.2351 86.2146 62.2481 84.9192 63.4225L84.9221 63.422C84.8542 63.4316 84.7862 63.4411 84.7184 63.4507C84.666 63.461 84.7341 63.4243 84.5081 63.4747Z" fill="#EAF1CA"/>
<path fill-rule="evenodd" clip-rule="evenodd" d="M30.8128 66.6088C30.9523 65.2855 32.4652 64.5239 33.668 63.902C34.0706 60.682 36.749 61.973 38.4973 63.2589C41.9166 61.5776 43.9885 66.75 41.6918 67.3131C38.911 67.4812 31.7202 68.4174 30.8128 66.6088Z" fill="#EAF1CA"/>
<path fill-rule="evenodd" clip-rule="evenodd" d="M57.5051 79.7769C57.1901 78.125 58.6839 78.0361 59.6003 77.104C59.7058 74.1249 62.4811 73.6376 64.3723 75.6102C66.4386 74.8538 69.1245 76.3338 67.4478 78.6431C64.5678 79.6227 59.0164 81.3874 57.5051 79.7769Z" fill="#E9F1C8"/>
<path fill-rule="evenodd" clip-rule="evenodd" d="M30.7057 67.9029C31.2687 70.2067 30.3649 69.8159 28.8788 70.945C28.2643 71.718 26.1854 70.6901 26.6925 69.8505C26.8287 69.3452 25.9398 69.299 25.9242 68.6152C26.9682 67.3446 29.6645 66.9675 30.7057 67.9029Z" fill="#EBF2CE"/>
<path fill-rule="evenodd" clip-rule="evenodd" d="M72.3271 75.4339C75.5923 76.9909 70.1363 79.6013 68.2607 78.8198C67.2534 76.8275 70.6049 75.289 72.3271 75.4339Z" fill="#EBF2CE"/>
<path fill-rule="evenodd" clip-rule="evenodd" d="M79.5242 76.8903C80.4336 75.9769 79.3426 74.5577 81.5543 74.3435C88.2604 74.6507 81.6817 79.5645 79.5242 76.8903Z" fill="#FEBDB9"/>
<path fill-rule="evenodd" clip-rule="evenodd" d="M48.1452 80.0875C48.1554 80.152 48.0587 80.0774 48.0837 80.3477C48.7568 81.661 44.9395 83.4385 44.7638 81.763C44.9088 80.5914 45.0591 80.9278 44.0077 80.0704C44.7858 78.3024 47.6239 77.622 48.1452 80.0875Z" fill="#FEBDB9"/>
<path fill-rule="evenodd" clip-rule="evenodd" d="M44.146 80.2674C45.1261 80.6425 44.8573 81.0496 44.7982 82.1113C44.4586 81.9159 43.3725 80.7292 44.146 80.2674Z" fill="#EBF2CE"/>
<path fill-rule="evenodd" clip-rule="evenodd" d="M68.777 76.7034C67.1693 79.4876 68.4167 77.8057 67.6324 76.2946C68.014 76.431 68.3954 76.5671 68.777 76.7034Z" fill="#FD827B"/>
<path fill-rule="evenodd" clip-rule="evenodd" d="M83.6203 77.1275C84.0472 76.9226 83.9136 76.6675 84.4479 76.1243C84.8322 76.4756 84.3425 77.3858 83.6203 77.1275Z" fill="#EBF2CC"/>
<path fill-rule="evenodd" clip-rule="evenodd" d="M35.4532 83.2747C36.1949 83.338 37.4089 82.9718 38.2493 83.3197C37.4406 83.3444 36.4439 83.389 35.4262 83.3446C35.4353 83.3214 35.4443 83.298 35.4532 83.2747Z" fill="#F7FAEC"/>
<path fill-rule="evenodd" clip-rule="evenodd" d="M43.8836 80.3819C43.6088 80.9151 44.0157 81.0462 44.1503 81.6036C43.9863 81.6079 43.8223 81.6121 43.6584 81.6165C43.6282 81.359 43.742 80.8718 43.5786 80.4184C43.6802 80.4062 43.782 80.3942 43.8836 80.3819Z" fill="#FD827B"/>
<path fill-rule="evenodd" clip-rule="evenodd" d="M35.5362 67.6911C36.276 67.7845 37.4734 67.4794 38.3081 67.7853C37.5096 67.7968 36.5134 67.8302 35.5093 67.7581C35.5182 67.7358 35.5272 67.7135 35.5362 67.6911Z" fill="#F7FAEC"/>
<path fill-rule="evenodd" clip-rule="evenodd" d="M47.9811 80.5944C48.0046 80.5429 48.0282 80.4913 48.0515 80.4398C48.7516 80.895 48.2097 82.062 47.9811 80.5944Z" fill="#E3EDB9"/>
<path fill-rule="evenodd" clip-rule="evenodd" d="M48.0367 81.272C48.5718 81.2128 48.2709 81.93 47.5479 81.8584C47.7109 81.6629 47.8739 81.4674 48.0367 81.272Z" fill="#E6EFC0"/>
<path fill-rule="evenodd" clip-rule="evenodd" d="M60.8531 67.4722C58.7465 67.2444 56.2348 67.2307 53.8284 67.41C50.1249 67.4767 50.5685 64.3794 53.0969 63.2628C56.0606 63.3536 55.48 62.2763 56.9878 62.1356C57.6719 62.1182 57.9161 62.2208 58.5925 62.5338C59.7423 63.643 60.4643 61.8369 61.9912 62.134C63.8797 62.2606 65.7507 64.62 64.5628 66.4474C63.022 66.6969 62.3447 66.6379 60.8531 67.4722Z" fill="#EAF1CA"/>
<path fill-rule="evenodd" clip-rule="evenodd" d="M74.6753 64.1508C72.6843 65.1385 70.1555 66.6591 71.838 62.892C71.6462 62.4607 71.0933 62.0093 71.61 61.5016C74.805 60.0434 75.9586 60.7016 74.6753 64.1508Z" fill="#ECF3D0"/>
<path fill-rule="evenodd" clip-rule="evenodd" d="M43.4329 66.4103C41.2561 64.1176 48.1422 63.4213 47.8523 64.4886C47.6005 65.1764 48.0656 66.5503 47.0165 66.7746C45.5922 66.6869 43.7521 68.1993 43.4329 66.4103Z" fill="#FEBDB9"/>
<path fill-rule="evenodd" clip-rule="evenodd" d="M48.0556 66.5838C47.08 66.9625 45.82 67.1688 44.6046 67.2217C46.2272 66.4827 47.9706 67.5413 47.7117 64.9664C48.3375 65.3925 48.2116 65.9847 48.0556 66.5838Z" fill="#EBF2CC"/>
<path fill-rule="evenodd" clip-rule="evenodd" d="M47.1501 63.8585C46.3936 63.9783 45.3898 64.2516 44.4792 64.3422C45.2118 64.069 46.1785 63.5982 47.1501 63.8585Z" fill="#E3EDB9"/>
<path fill-rule="evenodd" clip-rule="evenodd" d="M43.8585 80.3817C43.8215 80.3409 43.2761 80.569 43.2294 80.0451C41.4873 75.9933 40.3001 81.7888 39.2379 75.7526C38.8082 71.3245 37.8399 69.4112 34.1076 72.5682C31.5003 75.521 30.2024 79.981 26.353 79.8004C21.4823 79.153 22.3593 68.4014 25.0688 71.0685C25.0855 73.0644 24.3 79.8876 28.2285 77.1058C30.7803 74.7289 31.5981 71.0691 34.8529 69.5933C44.1161 66.1442 38.6969 80.6351 44.1738 78.083C46.2665 76.3505 46.5854 73.4346 48.5068 71.434C54.6522 65.8212 54.7387 71.1186 55.8645 74.4261C57.7338 77.9531 59.1642 73.8995 59.7745 71.9395C60.2427 70.5903 60.889 69.3928 62.1366 68.7332C63.4075 68.072 65.0963 68.1887 65.6812 69.6901C67.1662 71.471 67.7048 76.928 70.9733 73.7577C72.9282 69.5889 74.0014 63.9103 79.5398 66.1126C81.7475 67.8801 81.5088 71.7279 84.6245 72.5725C85.6464 72.818 86.9843 72.9522 86.951 71.4704C87.2097 61.5246 93.7214 63.3515 94.8775 65.2883C96.8892 69.2444 96.4528 68.8538 99.2261 70.6291C100.287 73.0043 97.555 72.1954 96.4954 71.2448C93.4299 69.2694 94.1993 65.4516 91.6346 65.8089C88.8329 65.9537 89.5344 69.4139 88.9271 71.3173C86.7436 72.291 86.4225 72.6547 85.959 74.6792C80.9862 74.7571 80.4238 70.8828 78.7523 68.2159C75.0327 65.2265 73.9715 73.3561 72.3994 75.1309C72.0983 75.8771 70.5544 75.2139 69.9307 75.8163C66.652 78.3848 65.2444 72.8925 64.0504 70.5905C63.2119 69.8577 62.0949 71.1187 61.8443 72.1846C61.4559 73.956 60.7504 74.4971 59.7496 75.8642C59.6306 78.7362 55.7682 78.4952 54.6497 76.5186C52.5151 73.2307 54.3593 68.6405 50.1281 72.5913C48.8835 73.9121 48.4123 75.5775 47.4057 77.1945C46.713 79.0714 43.9919 78.1465 43.8585 80.3817Z" fill="#D75E57"/>
<path fill-rule="evenodd" clip-rule="evenodd" d="M56.3054 75.264C53.4977 70.7558 59.4491 71.2953 59.4306 73.0328C58.3155 75.8846 59.3647 75.5029 56.3054 75.264Z" fill="#EBF2CB"/>
<path fill-rule="evenodd" clip-rule="evenodd" d="M66.2489 70.1478C65.5368 69.6952 64.5134 67.5373 65.3801 67.0009L65.3772 67.0014C70.7983 64.5571 69.529 67.9689 66.2489 70.1478Z" fill="#FEBCB8"/>
<path fill-rule="evenodd" clip-rule="evenodd" d="M55.8962 72.1469C55.8129 72.2243 55.7298 72.3018 55.6467 72.3792C55.5624 72.0785 55.6469 71.8753 55.9459 71.6933C55.9285 71.8526 55.9123 71.9996 55.8962 72.1469Z" fill="#D75E57"/>
<path fill-rule="evenodd" clip-rule="evenodd" d="M65.1869 68.3505C65.3597 68.4022 65.3481 68.558 65.2968 69.0407C65.2101 68.9821 65.0929 68.7691 65.1869 68.3505Z" fill="#E3EDB9"/>
<path fill-rule="evenodd" clip-rule="evenodd" d="M66.6283 70.1129C66.849 69.9135 67.2603 69.5014 67.6796 69.0562C67.6866 69.3318 67.3462 70.7243 66.6283 70.1129Z" fill="#D75E57"/>
<path fill-rule="evenodd" clip-rule="evenodd" d="M67.7122 69.1034C67.5177 69.3178 67.3233 69.5323 67.1289 69.7468C67.2741 69.4884 67.4544 68.8917 67.9432 68.7371C67.8662 68.8592 67.7891 68.9812 67.7122 69.1034Z" fill="#E3EDB9"/>
<path fill-rule="evenodd" clip-rule="evenodd" d="M68.9491 67.3091C69.1503 66.8159 69.0645 66.3733 68.5066 66.1509C68.663 66.1605 69.5932 66.2911 68.9491 67.3091Z" fill="#E3EDB9"/>
<path fill-rule="evenodd" clip-rule="evenodd" d="M68.4783 67.9749C68.4336 67.6342 68.6617 67.5177 68.9102 67.418C68.7661 67.6036 68.6222 67.7892 68.4783 67.9749Z" fill="#E3EDB9"/>
<path fill-rule="evenodd" clip-rule="evenodd" d="M67.9459 68.6746C67.978 68.6476 68.0101 68.6206 68.0421 68.5935C68.0099 68.6206 67.9779 68.6475 67.9459 68.6746Z" fill="#E3EDB9"/>
<path fill-rule="evenodd" clip-rule="evenodd" d="M89.1037 71.1699C89.0913 68.3817 89.6499 64.3677 92.9577 65.8223C94.1929 67.513 94.5545 70.1398 96.5247 71.3166C96.1188 71.5291 95.6199 71.3772 95.1685 71.0054C91.5142 69.1159 92.4356 71.9329 89.1037 71.1699Z" fill="#FD7E77"/>
<path fill-rule="evenodd" clip-rule="evenodd" d="M81.5408 74.3149C79.0484 74.8382 80.642 75.4484 79.6579 76.594C79.4874 76.2666 79.6967 76.0331 79.865 75.7735C77.9652 75.0387 80.2489 73.9027 81.5408 74.3149Z" fill="#E6EFC0"/>
<path fill-rule="evenodd" clip-rule="evenodd" d="M44.0398 80.1382C43.9866 78.175 49.8404 76.8403 48.1512 80.1033C47.3655 77.0451 44.0608 79.2166 44.0398 80.1382Z" fill="#E3EDB9"/>
<path fill-rule="evenodd" clip-rule="evenodd" d="M48.0611 80.3636C48.0538 80.329 48.0465 80.2942 48.0393 80.2594C48.0466 80.294 48.0539 80.3288 48.0611 80.3636Z" fill="#E3EDB9"/>
<path fill-rule="evenodd" clip-rule="evenodd" d="M60.9846 74.2919C64.062 65.1371 64.8443 73.6258 66.7997 75.642C63.3071 75.9391 63.2713 73.8059 60.9846 74.2919Z" fill="#FD7E77"/>
<path fill-rule="evenodd" clip-rule="evenodd" d="M47.9753 80.5947C47.9845 80.6634 47.9936 80.7321 48.0027 80.8006C47.9937 80.732 47.9845 80.6634 47.9753 80.5947Z" fill="#E6EFC0"/>
<path fill-rule="evenodd" clip-rule="evenodd" d="M43.9748 80.2989C43.996 80.2451 44.0172 80.1914 44.0383 80.1376C44.0638 80.171 44.0891 80.2044 44.1143 80.2378C44.0678 80.2581 44.0212 80.2785 43.9748 80.2989Z" fill="#FD827B"/>
<path fill-rule="evenodd" clip-rule="evenodd" d="M68.0115 66.116C67.3067 66.3779 66.6019 66.6398 65.8972 66.9014C66.444 66.6449 67.2882 65.4703 68.0115 66.116Z" fill="#EBF2CC"/>
<path fill-rule="evenodd" clip-rule="evenodd" d="M56.2783 75.2859C56.9834 75.1811 57.4864 75.4975 58.4032 75.5241C57.9128 76.2073 56.6596 76.2617 56.2783 75.2859Z" fill="#FD7E77"/>
<path fill-rule="evenodd" clip-rule="evenodd" d="M65.4997 68.6607C67.5071 69.8017 67.478 67.9497 68.2905 66.604L68.1565 66.614C66.0164 66.7797 66.2196 67.018 65.4997 68.6607ZM56.0627 74.44L56.3143 74.453C57.6692 74.519 59.5895 74.5254 58.4856 72.8764C56.2568 72.7369 56.2512 72.1739 56.0627 74.44ZM29.4095 68C28.5271 68.152 27.5729 68.2233 26.6001 68.4525C26.9856 68.8336 26.8688 70.5643 27.7841 70.2252L27.9125 70.1899C29.9636 69.6323 29.7509 69.9427 29.4095 68ZM80.1411 76.6847L83.8362 76.2503C83.3351 73.9461 79.9729 73.8846 80.1411 76.6847ZM47.311 78.8609L47.1435 78.8912C44.4718 79.3788 44.8603 79.4838 44.6897 81.4667C48.2162 81.0548 47.5523 81.6382 47.311 78.8609ZM68.5519 78.0152C72.0765 77.4715 72.4456 78.4646 72.508 75.8686C69.3028 76.1892 69.5941 75.6921 68.5519 78.0152ZM43.7037 66.443C46.7738 66.4162 47.7854 67.0949 46.902 64.1988C43.9593 64.7496 43.6027 64.2676 43.7037 66.443ZM71.7952 64.6115C75.1037 63.9911 74.3827 64.5749 74.6928 61.6541C71.5251 60.7087 72.4349 62.4676 71.7952 64.6115ZM41.9722 66.3919C40.5904 62.5269 38.8306 65.1744 37.4642 64.5674C36.7155 64.0592 36.3131 63.1893 35.2823 62.9185C34.4276 62.9396 34.4242 63.8653 33.9094 64.6475C32.5569 65.579 31.7654 64.2768 30.8175 66.4908L41.9722 66.3919ZM57.3143 79.6424C60.2407 79.1455 63.543 78.7687 66.548 78.2189C68.3321 75.8837 65.2773 76.1603 63.815 76.7178C62.9523 76.3045 62.3385 74.5242 60.9643 75.005C60.3076 75.3219 60.1966 75.8674 60.0851 76.7218C60.2286 78.7209 57.3978 77.6147 57.3143 79.6424ZM76.5106 63.7058C82.6661 62.2842 92.6156 61.459 86.0889 59.5158C82.8728 60.9063 82.7305 58.9329 80.8236 59.4494C80.2652 59.6855 80.1983 60.0163 79.9443 60.6571C79.6307 63.0254 76.9029 61.6144 76.5106 63.7058ZM51.5784 66.4007C57.2729 66.1551 64.5384 66.199 64.6575 65.3508C63.5063 62.1434 61.2774 63.2686 59.2693 64.4807C57.8161 64.7631 57.5085 62.0327 55.8384 63.6387C54.1974 65.3685 52.2473 62.4659 51.5784 66.4007ZM85.8525 76.019C96.0273 74.4099 99.4926 75.1224 96.6632 72.0134C95.0199 72.9104 94.2843 70.2039 92.5985 71.1008C89.353 73.8996 88.825 69.3443 87.2751 73.7604L87.1187 73.8533C86.3174 74.3334 85.7669 74.7522 85.8525 76.019ZM31.7641 82.1307C35.3453 81.9926 39.284 82.1634 42.8595 81.5497C43.9816 78.8887 41.2196 78.7313 39.395 79.212C38.2288 78.6524 37.7872 76.5881 36.0315 76.673C33.4756 76.9854 34.6444 78.9052 33.9567 80.1242L33.8698 80.154C32.923 80.4757 31.6872 80.8163 31.7641 82.1307ZM17.5447 76.0451C19.6991 64.2217 29.2942 69.308 30.2794 64.7246C33.4035 62.0205 31.5404 65.3727 34.2582 61.6316C29.1677 61.8415 23.5623 61.7557 18.8584 64.0581C9.49928 68.6542 11.3824 76.2166 17.5447 76.0451ZM101.928 65.7835C103.953 62.8193 102.573 59.75 100.112 58.0926C91.8665 52.8926 77.1092 58.4461 70.1584 58.8634C58.7754 60.7803 47.4583 61.4296 35.9849 61.5897C36.7719 61.8635 37.387 62.6433 38.1025 63.1383L38.2789 63.1028C40.1533 62.7289 41.1529 62.6482 42.443 64.1721C49.0135 60.6768 48.5973 64.0702 48.4896 66.4497C51.7657 67.0561 49.3327 62.0967 54.4126 62.7434C54.8763 62.6583 55.0027 62.521 55.4713 62.1503C57.1059 60.9995 57.9031 62.1753 59.2079 62.9408C62.1403 60.6899 65.6218 62.2146 66.1013 65.4819L66.8102 65.4009C72.15 64.7872 69.7022 64.9161 71.265 60.7172C71.4983 59.1316 76.5263 60.1688 76.2612 61.5079C80.146 60.4945 77.8815 58.9173 80.6189 58.0636C81.8573 57.681 82.7166 58.1921 83.9221 58.6589C87.0475 57.5694 88.7405 58.1351 89.7444 61.0303C95.6103 60.0752 99.1438 61.4487 101.928 65.7835ZM25.2414 68.8227C15.7881 71.8241 18.9796 81.8411 21.7414 82.1683C33.9172 82.1674 28.7844 82.7083 31.2394 79.8978C33.8732 78.4326 32.1523 78.1709 33.6167 76.3826C36.4917 73.6475 38.2739 76.3058 40.0813 77.7186C41.0568 77.4787 42.3645 77.3963 43.3118 78.1732C45.1148 79.4735 48.5818 74.2512 48.9694 80.5745C49.0468 81.5044 52.3006 80.1884 52.9349 80.3449C54.0876 79.8887 55.9097 80.6673 55.9894 79.035C56.0267 77.1497 60.1156 76.4576 58.4425 75.7344C54.0617 76.6686 53.9639 74.0366 55.5068 71.5159C57.4518 70.9594 60.6351 71.213 60.1496 73.8136C61.9329 73.09 63.155 73.9116 64.2423 75.1841C65.634 74.5651 66.9272 74.6621 68.0774 75.8425C68.7199 74.2122 70.8147 74.7712 72.292 74.5272C74.2504 74.3916 73.9128 75.9405 73.7714 77.4258C77.0032 76.8171 78.9689 77.6288 78.9368 75.6816C78.9075 71.842 83.9875 73.1607 84.6256 74.4609C88.399 69.6293 86.093 70.5359 91.0418 70.4535C92.891 68.8529 94.4868 69.571 95.9787 70.7266L96.0236 70.716C96.7278 70.5531 97.4437 70.532 97.9904 71.242C98.9635 71.9683 98.6122 73.4174 99.1449 74.1193C100.342 73.8673 101.105 74.3272 101.337 72.6805C103.076 63.1549 94.69 60.7197 87.5475 62.9047C81.5418 64.1655 75.9194 65.2252 69.8952 66.3966C69.1364 67.5631 68.875 69.648 67.398 70.3825C65.1139 70.6537 63.2766 69.4915 64.6072 67.1372C53.4225 68.2556 42.0819 67.6802 30.8227 67.9286C31.8247 71.319 29.7617 71.2049 27.0681 71.7516C25.8778 71.5626 25.7871 69.9032 25.2414 68.8227ZM25.1561 103.932C40.0983 111.73 65.803 104.109 77.0464 102.133C89.0469 99.1643 110.919 96.2007 110.545 80.687C107.295 71.3045 95.7227 76.7657 88.5934 77.0416L87.5987 77.1646C74.3397 78.8015 61.2192 80.2903 48.0195 82.4944C33.8034 84.479 19.2457 82.5568 17.7477 84.6478C10.1833 91.3703 18.2449 101.173 25.1561 103.932ZM102.519 73.7407C109.17 73.6484 113.932 79.6103 111.279 85.6905C106.789 97.6144 92.7001 99.6483 81.8141 102.473L79.2694 103.036C65.9964 105.967 52.9555 108.744 39.3195 108.821C10.9673 107.104 8.59673 85.4227 19.2842 82.4748C19.6348 82.3095 19.4674 82.1757 19.0165 81.5665C16.8258 78.8507 18.6062 77.3588 16.5682 77.3961C6.9425 75.7849 11.3652 65.7828 17.5138 63.1717C23.39 59.9879 30.3 60.4532 36.8218 60.19C64.4563 60.0199 78.8858 55.1736 90.5752 54.4721C101.71 54.1022 106.926 60.9748 103.042 66.5714C102.761 67.01 102.448 66.8505 102.663 67.5328C103.163 69.7026 103.083 71.5872 102.519 73.7407Z" fill="black"/>
<path fill-rule="evenodd" clip-rule="evenodd" d="M76.5386 93.9798L77.9096 97.055L80.1194 96.4191C81.0342 95.361 81.4062 94.6405 81.2355 94.2576C81.0648 93.8748 80.5483 93.0333 79.686 91.7331L77.9319 91.5126L76.5386 93.9798Z" fill="white"/>
<path fill-rule="evenodd" clip-rule="evenodd" d="M76.5386 93.9798L77.9096 97.055L80.1194 96.4191C81.0342 95.361 81.4062 94.6405 81.2355 94.2576C81.0648 93.8748 80.5483 93.0333 79.686 91.7331L77.9319 91.5126L76.5386 93.9798Z" fill="white"/>
<path fill-rule="evenodd" clip-rule="evenodd" d="M93.7029 97.9053L95.0739 100.981L97.2837 100.345C98.1985 99.2865 98.5705 98.566 98.3998 98.1832C98.2291 97.8003 97.7126 96.9588 96.8503 95.6587L95.0962 95.4382L93.7029 97.9053Z" fill="white"/>
<path fill-rule="evenodd" clip-rule="evenodd" d="M84.7187 88.0408L86.0898 91.116L88.2996 90.4801C89.2144 89.422 89.5864 88.7015 89.4157 88.3187C89.245 87.9358 88.7285 87.0943 87.8662 85.7942L86.1121 85.5737L84.7187 88.0408Z" fill="white"/>
<path fill-rule="evenodd" clip-rule="evenodd" d="M104.422 85.524L105.793 88.5992L108.003 87.9633C108.918 86.9052 109.29 86.1847 109.119 85.8018C108.949 85.419 108.432 84.5775 107.57 83.2773L105.816 83.0568L104.422 85.524Z" fill="white"/>
<path fill-rule="evenodd" clip-rule="evenodd" d="M109.079 75.3378L110.45 78.413L112.66 77.7771C113.575 76.719 113.947 75.9985 113.776 75.6157C113.606 75.2328 113.089 74.3913 112.227 73.0912L110.473 72.8706L109.079 75.3378Z" fill="white"/>
<path fill-rule="evenodd" clip-rule="evenodd" d="M111.006 77.3895L112.377 80.4646L114.587 79.8287C115.502 78.7707 115.874 78.0502 115.703 77.6673C115.533 77.2844 115.016 76.4429 114.154 75.1428L112.4 74.9223L111.006 77.3895Z" fill="white"/>
<path fill-rule="evenodd" clip-rule="evenodd" d="M118.125 69.4305L119.496 72.5057L121.706 71.8698C122.62 70.8117 122.992 70.0912 122.822 69.7083C122.651 69.3254 122.135 68.4839 121.272 67.1838L119.518 66.9633L118.125 69.4305Z" fill="white"/>
<path fill-rule="evenodd" clip-rule="evenodd" d="M121.893 73.6788L123.264 76.7539L125.474 76.1181C126.388 75.06 126.76 74.3395 126.59 73.9566C126.419 73.5737 125.903 72.7322 125.04 71.4321L123.286 71.2116L121.893 73.6788Z" fill="white"/>
<path fill-rule="evenodd" clip-rule="evenodd" d="M107.355 90.1047L108.726 93.1798L110.936 92.544C111.851 91.4859 112.223 90.7654 112.052 90.3825C111.881 89.9996 111.365 89.1581 110.503 87.858L108.749 87.6375L107.355 90.1047Z" fill="white"/>
<path fill-rule="evenodd" clip-rule="evenodd" d="M115.29 84.1659L116.661 87.2411L118.871 86.6052C119.786 85.5471 120.158 84.8267 119.987 84.4438C119.817 84.0609 119.3 83.2194 118.438 81.9193L116.684 81.6988L115.29 84.1659Z" fill="white"/>
<path fill-rule="evenodd" clip-rule="evenodd" d="M118.762 83.3596L120.133 86.4347L122.343 85.7988C123.258 84.7407 123.63 84.0203 123.459 83.6374C123.288 83.2545 122.772 82.413 121.91 81.1129L120.156 80.8924L118.762 83.3596Z" fill="white"/>
<path fill-rule="evenodd" clip-rule="evenodd" d="M115.731 89.3078L117.102 92.383L119.312 91.7471C120.227 90.689 120.599 89.9685 120.428 89.5856C120.257 89.2028 119.741 88.3613 118.878 87.0611L117.124 86.8406L115.731 89.3078Z" fill="white"/>
<path fill-rule="evenodd" clip-rule="evenodd" d="M74.8723 98.7829L76.2434 101.858L78.4531 101.222C79.3679 100.164 79.74 99.4436 79.5693 99.0607C79.3986 98.6779 78.8821 97.8364 78.0197 96.5362L76.2656 96.3157L74.8723 98.7829Z" fill="white"/>
<path fill-rule="evenodd" clip-rule="evenodd" d="M80.2065 111.661L81.5776 114.736L83.7874 114.1C84.7022 113.042 85.0742 112.322 84.9035 111.939C84.7328 111.556 84.2163 110.714 83.3539 109.414L81.5998 109.194L80.2065 111.661Z" fill="white"/>
<path fill-rule="evenodd" clip-rule="evenodd" d="M97.8652 83.3325L99.2363 86.4076L101.446 85.7717C102.361 84.7136 102.733 83.9932 102.562 83.6103C102.391 83.2274 101.875 82.3859 101.013 81.0858L99.2585 80.8653L97.8652 83.3325Z" fill="white"/>
<path fill-rule="evenodd" clip-rule="evenodd" d="M101.299 83.5861L102.67 86.6613L104.88 86.0254C105.794 84.9673 106.166 84.2468 105.996 83.864C105.825 83.4811 105.309 82.6396 104.446 81.3395L102.692 81.1189L101.299 83.5861Z" fill="white"/>
<path fill-rule="evenodd" clip-rule="evenodd" d="M96.8833 79.6852L98.2543 82.7604L100.464 82.1245C101.379 81.0664 101.751 80.346 101.58 79.9631C101.41 79.5802 100.893 78.7387 100.031 77.4386L98.2766 77.2181L96.8833 79.6852Z" fill="white"/>
<path fill-rule="evenodd" clip-rule="evenodd" d="M90.8682 89.3456L92.2392 92.4208L94.449 91.7849C95.3638 90.7268 95.7358 90.0063 95.5651 89.6235C95.3944 89.2406 94.8779 88.3991 94.0156 87.099L92.2615 86.8785L90.8682 89.3456Z" fill="white"/>
<path fill-rule="evenodd" clip-rule="evenodd" d="M87.7502 72.144L89.1213 75.2192L91.3311 74.5833C92.2459 73.5252 92.6179 72.8047 92.4472 72.4218C92.2765 72.0389 91.76 71.1974 90.8976 69.8973L89.1436 69.6768L87.7502 72.144Z" fill="white"/>
<path fill-rule="evenodd" clip-rule="evenodd" d="M88.2249 78.3899L89.5959 81.4651L91.8057 80.8292C92.7205 79.7711 93.0925 79.0507 92.9218 78.6678C92.7511 78.2849 92.2346 77.4434 91.3723 76.1433L89.6182 75.9228L88.2249 78.3899Z" fill="white"/>
<path fill-rule="evenodd" clip-rule="evenodd" d="M91.054 65.8184L92.425 68.8936L94.6348 68.2577C95.5496 67.1996 95.9216 66.4791 95.7509 66.0963C95.5802 65.7134 95.0637 64.8719 94.2014 63.5718L92.4473 63.3512L91.054 65.8184Z" fill="white"/>
<path fill-rule="evenodd" clip-rule="evenodd" d="M97.2034 57.175L98.5744 60.2502L100.784 59.6143C101.699 58.5562 102.071 57.8357 101.9 57.4528C101.73 57.07 101.213 56.2285 100.351 54.9283L98.5967 54.7078L97.2034 57.175Z" fill="white"/>
<path fill-rule="evenodd" clip-rule="evenodd" d="M104.629 63.5363L106 66.6115L108.21 65.9756C109.125 64.9175 109.497 64.197 109.326 63.8142C109.156 63.4313 108.639 62.5898 107.777 61.2896L106.023 61.0691L104.629 63.5363Z" fill="white"/>
<path fill-rule="evenodd" clip-rule="evenodd" d="M106.31 55.3921L107.681 58.4673L109.891 57.8314C110.806 56.7733 111.178 56.0529 111.007 55.67C110.836 55.2871 110.32 54.4456 109.457 53.1455L107.703 52.925L106.31 55.3921Z" fill="white"/>
<path fill-rule="evenodd" clip-rule="evenodd" d="M111.955 53.4864L113.326 56.5616L115.536 55.9257C116.451 54.8676 116.823 54.1471 116.652 53.7642C116.482 53.3814 115.965 52.5399 115.103 51.2397L113.349 51.0192L111.955 53.4864Z" fill="white"/>
<path fill-rule="evenodd" clip-rule="evenodd" d="M100.031 84.1254C100.777 83.7941 100.333 82.643 99.4597 82.9205C98.761 83.3109 99.1317 84.464 100.031 84.1254ZM90.9257 78.5044C91.692 78.1934 91.2647 76.9216 90.4056 77.225C89.6828 77.5642 89.999 78.8365 90.9257 78.5044ZM81.9895 111.924C82.3888 112.767 83.5534 112.224 83.2175 111.316C82.8416 110.638 81.6942 110.995 81.9895 111.924ZM109.64 55.5131C110.403 55.222 110.052 53.945 109.163 54.2114C108.411 54.5326 108.722 55.8484 109.64 55.5131ZM125.367 74.0342C124.973 73.2171 123.815 73.602 124.093 74.5456C124.447 75.2987 125.686 74.9329 125.367 74.0342ZM99.0007 78.3552C98.335 78.6459 98.4777 79.7843 99.3254 79.7024C100.252 79.5801 100.043 77.9743 99.0007 78.3552ZM100.551 57.195C100.174 56.3916 99.0453 56.9614 99.2642 57.7977C99.6705 58.6077 100.826 58.1207 100.551 57.195ZM121.657 69.4578C121.24 68.5912 120.107 69.2298 120.4 70.1334C120.793 70.9718 121.98 70.3515 121.657 69.4578ZM106.331 63.5488C106.631 64.3666 107.92 64.1149 107.575 63.0616C107.237 61.974 105.885 62.6893 106.331 63.5488ZM103.699 83.8779C104.362 83.6126 104.341 82.3396 103.408 82.4121C102.463 82.5408 102.567 84.2268 103.699 83.8779ZM92.2078 89.41C92.6441 90.3047 93.7991 89.5321 93.5446 88.6679C93.1395 87.8121 91.8946 88.5408 92.2078 89.41ZM113.084 77.9407C113.474 78.921 114.72 78.3556 114.327 77.3627C113.927 76.5275 112.649 76.9512 113.084 77.9407ZM113.814 53.2375C114.11 54.1527 115.624 54.248 115.397 53.0462C115.078 52.1644 113.557 52.0316 113.814 53.2375ZM92.2947 66.5205C92.8394 67.5383 94.1704 66.4257 93.9213 65.3916C93.3567 64.3842 92.1781 65.5728 92.2947 66.5205ZM109.289 89C108.101 89.6759 109.328 90.6554 110.298 90.6171C111.781 90.1618 110.361 88.9143 109.289 89ZM88.6436 87.5288C87.7868 85.7574 85.5986 87.5065 86.1479 89.1617C87.2413 91.0003 89.3112 89.0449 88.6436 87.5288ZM112.567 74.6653C111.61 72.9153 109.779 75.0579 110.133 76.4014C111.374 78.833 113.163 76.2612 112.567 74.6653ZM89.6042 70.3452C88.9943 70.5909 88.7183 71.1167 88.625 71.9658C89.3498 76.8299 93.6845 69.461 89.6042 70.3452ZM97.537 97.4441C96.6352 95.2406 94.4275 97.6457 94.9256 99.1701C96.1502 101.55 98.621 99.483 97.537 97.4441ZM105.369 86.7296C106.615 89.4188 109.26 85.8324 107.963 84.1342C106.647 82.3718 104.657 85.3116 105.369 86.7296ZM72.0558 102.169C71.1299 100.887 75.3879 102.644 75.6827 102.729C77.5848 102.49 78.9054 101.273 80.2246 99.8561L80.2197 99.8595C81.7916 98.1291 82.8155 96.8224 84.051 94.6235C83.4458 89.7486 84.2749 88.1539 80.5976 85.6051C81.5913 83.0231 83.4767 80.9843 83.0559 79.5129C83.623 78.1586 84.2571 79.0052 84.7085 80.0643C85.2017 80.4762 89.2867 87.4067 88.6313 83.2236C87.9758 79.0405 85.0198 75.8554 85.7144 75.3589C90.4236 66.444 90.2674 63.3157 91.0266 64.0227C91.315 61.6209 93.0877 63.454 94.6982 62.3772C93.9603 61.4541 96.2085 60.4852 94.7199 59.931C94.4983 59.5056 94.7544 59.246 94.1443 58.9421C97.123 52.6515 101.305 46.7154 100.557 45.0311C100.792 43.8882 103.845 45.414 104.698 44.9501C109.28 44.3152 107.775 45.5548 110.087 47.9199C113.035 50.6646 115.961 47.5823 116.927 49.5264C119.06 55.2082 122.164 50.1281 122.43 54.5864C122.589 55.2388 122.599 55.8021 123.198 56.2273C123.862 56.7761 124.938 56.261 125.934 56.3286C131.828 56.323 129.452 61.1127 134.12 64.0544C134.614 64.433 135.706 66.8056 133.85 66.6205C132.949 65.7575 132.78 65.3944 131.317 65.8157C129.059 66.5378 127.533 69.4097 126.724 71.6705C127.819 72.8913 129.243 72.6728 129.745 72.4882C131.728 68.881 130.189 75.0676 131.204 76.144C130.851 78.2697 130.58 77.119 129.145 79.2358C125.956 81.1102 126.543 81.1124 123.983 79.4196C120.011 76.5282 114.913 79.8373 114.012 82.0073L114.009 82.0021C113.978 82.0558 113.946 82.1095 113.914 82.1632L113.912 82.1584C113.065 83.2026 112.792 84.7067 112.766 86.2084L112.779 86.2056C111.961 90.6202 115.753 93.1122 114.176 93.8703C112.599 94.6285 112.514 94.2899 111.898 94.8048C110.411 96.0716 109.413 97.4232 108.133 98.9915C101.2 108.392 95.9462 96.6302 91.014 105.526C88.1243 106.401 87.299 103.597 85.0512 107.116C83.6314 109.361 85.0852 112.113 84.735 114.616C83.2743 121.345 77.7968 113.131 75.7372 112.967C74.0787 112.614 73.0261 114.086 71.3606 114.274C70.2714 113.707 69.2614 112.357 69.3836 110.96C69.6986 111.187 70.0386 111.355 70.485 111.447C69.9458 110.207 71.1386 109.931 72.1019 109.318C71.7169 108.178 73.0601 105.844 70.736 105.146C71.9665 103.288 72.4064 102.295 72.0558 102.169Z" fill="#FCF1AF"/>
<path fill-rule="evenodd" clip-rule="evenodd" d="M134.934 67.1066C135.963 65.9012 130.67 62.026 130.487 60.6689C128.887 55.8396 127.48 57.9904 124 56.7764C121.417 55.2717 122.304 55.5743 121.515 53.2794C120.471 52.376 118.118 54.2916 116.833 50.364C115.287 47.5546 111.621 52.5071 107.686 45.8951C96.7172 47.3094 101.398 39.7253 100.772 41.5615C105.087 28.9153 112.166 41.3249 113.874 41.367C116.953 41.5752 119.906 42.2171 122.46 44.1409C123.89 45.1915 124.722 46.2219 125.547 47.6749C127.352 48.4343 126.136 48.8159 126.379 49.3284C127.148 49.6654 127.488 48.3962 128.411 48.6955C129.725 49.2991 132.546 49.63 132.658 50.6535C136.525 54.1673 135.764 58.3877 138.159 58.9645C149.572 64.2466 140.284 75.7685 134.934 67.1066Z" fill="#FBE985"/>
<path fill-rule="evenodd" clip-rule="evenodd" d="M144.451 66.7299C146.282 69.3357 144.64 73.581 141.461 74.2243C135.947 79.3752 127.302 84.7596 125.202 85.2291C124.897 80.3808 127.979 81.9734 129.894 79.4179C132.799 75.5653 135.736 75.564 138.025 73.1864C138.928 72.4262 139.084 71.4671 139.836 70.6105C142.617 69.9698 143.35 68.9234 144.451 66.7299Z" fill="#FBE985"/>
<path fill-rule="evenodd" clip-rule="evenodd" d="M118.647 81.514C116.897 81.9958 115.747 83.8903 115.264 85.6402C113.732 88.7501 118.833 88.0391 120.738 89.0352C119.767 86.5801 119.151 84.0849 118.647 81.514ZM116.26 92.5681C114.495 95.5543 112.499 87.9813 112.795 86.9009C112.834 85.3363 113.567 83.8407 113.926 82.1874C113.966 82.1427 113.925 82.1869 114.022 82.0312C114.022 82.0312 114.026 82.0362 114.025 82.0362C116.182 79.1753 120.537 78.4187 123.795 79.9992L123.793 79.9975C125.052 80.313 125.43 83.0848 123.653 82.4707C118.221 79.27 121.064 82.4233 119.76 82.5063C119.315 82.8736 119.484 83.526 119.993 83.8871C121.237 84.1214 121.15 87.1024 121.891 88.1232C123.838 91.4698 119.795 90.7156 118.422 89.564C118.424 88.7704 117.23 88.5407 117 89.4637C116.386 89.3123 115.771 89.161 115.121 89.0009C115.29 90.1786 115.945 91.3211 116.26 92.5681Z" fill="#D75E58"/>
<path fill-rule="evenodd" clip-rule="evenodd" d="M78.3524 96.5872L78.9948 98.0281C80.5954 96.775 81.0296 95.0329 81.2154 93.124C78.6938 94.0682 79.7582 93.0682 78.09 92.947C76.6293 93.615 77.1203 95.8099 78.3524 96.5872ZM80.2024 99.8701C79.7689 100.062 79.2654 101.499 78.5239 100.953C77.4801 101.11 76.1114 102.507 75.0142 101.674C74.1176 102.15 71.9385 101.387 73.0271 100.171C74.3629 99.7581 75.4781 99.5996 76.5043 99.7618C77.7744 99.9624 78.1826 99.1256 77.6185 98.3218C76.7431 97.0745 76.0588 95.393 75.5893 93.837C77.7726 90.7865 84.0596 94.1258 79.4397 87.9964C78.233 86.608 79.8718 85.8447 80.8128 87.4754C81.3214 87.5832 81.8782 87.4973 82.3335 88.1609C85.7839 92.7762 83.0898 96.4161 80.2024 99.8701Z" fill="#D75F58"/>
<path fill-rule="evenodd" clip-rule="evenodd" d="M90.0617 105.793C92.2176 104.869 93.3766 102.547 95.8722 102.047C96.4635 102.264 96.2584 102.52 97.036 102.075C97.712 101.777 98.3402 103.913 97.9995 104.188C95.7253 105.659 93.228 106.575 90.8473 108.003C88.7109 108.624 87.6217 112.454 85.3874 110.242C86.4671 103.671 87.6871 106.829 90.0617 105.793Z" fill="#FBE985"/>
<path fill-rule="evenodd" clip-rule="evenodd" d="M133.667 72.7457C134.106 72.1235 134.982 71.303 135.389 70.5886C134.533 68.8942 131.088 68.3433 130.569 70.2014C132.059 70.2827 133.259 71.1478 133.667 72.7457ZM131.062 71.9845L127.314 72.4547C127.387 72.0985 128.129 70.1653 128.342 69.6311C133.145 62.5088 142.482 71.5706 134.273 74.6546C133.717 74.8637 129.789 76.413 131.138 74.4694" fill="#8E3E3A"/>
<path fill-rule="evenodd" clip-rule="evenodd" d="M83.3962 78.3893C83.7415 76.6382 85.4204 76.5432 85.915 77.3929C86.2411 77.3522 88.5853 82.3325 89.0121 82.8174C90.1145 84.5496 87.9288 83.9718 87.6014 84.1053C88.1541 84.8957 83.6749 79.8622 83.3962 78.3893Z" fill="#FEBDB9"/>
<path fill-rule="evenodd" clip-rule="evenodd" d="M122.116 88.6885C119.244 82.2423 122.25 83.5573 120.213 82.3334C120.221 82.0984 119.674 80.782 120.078 80.7677C126.45 80.5424 123.949 86.019 122.116 88.6885Z" fill="#FD7E77"/>
<path fill-rule="evenodd" clip-rule="evenodd" d="M77.6472 116.756C76.3953 117.487 75.8645 117.376 74.1248 117.015C73.641 116.903 72.9431 115.159 73.2964 114.532C74.2622 114.352 75.0473 112.221 75.8179 113.914C76.8063 112.424 80.0386 116.874 77.6472 116.756Z" fill="#FBE985"/>
<path fill-rule="evenodd" clip-rule="evenodd" d="M116.266 92.5682C116.008 91.483 115.315 90.25 115.127 89.0007C118.004 89.3883 116.576 90.2139 117.947 90.2581C118.417 90.1144 118.032 89.4701 118.815 89.5118C124.227 89.7998 119.144 93.0017 116.266 92.5682Z" fill="#FD7E77"/>
<path fill-rule="evenodd" clip-rule="evenodd" d="M79.4351 87.9974C82.9995 92.7541 80.4313 91.6494 77.0922 92.7822C77.8175 91.2779 78.5725 89.6055 79.4351 87.9974Z" fill="#FD7E77"/>
<path fill-rule="evenodd" clip-rule="evenodd" d="M76.0469 94.9641C76.7292 96.0563 77.256 97.0748 77.7173 98.4119C77.2462 98.0668 76.3071 98.9193 76.5086 99.7592C75.6231 100.038 74.6946 99.9179 73.7666 99.9313C74.4443 98.3727 75.2816 96.659 76.0469 94.9641Z" fill="#FD7E77"/>
<path fill-rule="evenodd" clip-rule="evenodd" d="M94.8077 60.0422C95.2604 60.2548 95.6945 60.3369 95.3799 61.004C92.8513 64.9174 89.5822 62.4051 94.1215 58.9316C94.5882 59.0567 94.4908 59.5801 94.8077 60.0422Z" fill="#FCEFA6"/>
<path fill-rule="evenodd" clip-rule="evenodd" d="M70.5453 106.195C73.0452 104.839 72.0669 106.656 72.1756 108.299C70.2142 111.646 69.3305 108.7 70.5453 106.195Z" fill="#FCEFA6"/>
<path fill-rule="evenodd" clip-rule="evenodd" d="M123.787 80.0001L123.789 80.0019C122.115 78.582 119.364 78.5576 117.27 79.2143C121.397 76.0068 128.959 82.5144 124.793 80.9769C124.684 80.5905 124.234 80.2487 123.787 80.0001Z" fill="#FBEA8A"/>
<path fill-rule="evenodd" clip-rule="evenodd" d="M81.8197 98.2458C83.8176 95.6707 83.6839 93.8365 84.8594 93.967C86.2041 94.6728 82.5844 97.6001 81.8197 98.2458Z" fill="#FBEA8A"/>
<path fill-rule="evenodd" clip-rule="evenodd" d="M72.2669 103.023C72.1742 105.414 70.5728 100.7 74.2852 102.074C74.3794 103.462 72.8268 102.056 72.2669 103.023Z" fill="#FBEA8A"/>
<path fill-rule="evenodd" clip-rule="evenodd" d="M107.956 74.5155C108.082 76.1944 102.633 82.6963 102.93 78.8491C99.7933 76.5529 102.617 77.8088 100.525 76.046C102.012 75.6866 100.174 73.9265 100.002 75.6479C99.0429 74.7132 98.2991 75.8004 97.9603 76.7849C96.719 85.1466 86.8094 69.9593 100.402 64.5821C99.7681 64.8328 100.35 66.1657 100.863 66.8941C97.6331 67.7466 95.5608 71.9027 95.9201 74.499C97.7913 74.7413 99.6651 72.6007 102.149 74.1049C100.853 71.2956 101.569 69.5015 103.231 67.5371C103.033 67.4172 102.865 67.3159 102.698 67.2143C103.626 66.7471 103.949 65.182 103.303 64.2892C103.818 64.4411 104.575 64.5404 105.214 64.9422L105.209 64.9427C110.417 70.3068 102.078 70.9316 103.527 73.6095C104.275 72.5159 104.658 72.9558 105.587 73.4671C106.302 74.6895 106.652 74.3224 107.956 74.5155Z" fill="#8D3E39"/>
<path fill-rule="evenodd" clip-rule="evenodd" d="M119.35 61.1555C119.555 59.2805 116.856 60.5691 118.604 61.5964C116.837 62.2202 120.413 64.8045 121.421 64.8069C121.316 63.1823 121.217 61.6501 121.115 60.0593C120.503 60.4392 119.927 60.7974 119.35 61.1555ZM123.28 67.2741C116.378 66.6256 118.202 64.2588 115.481 62.8189C115.877 61.2464 115.505 59.524 115.447 57.5797C115.463 57.4151 115.504 57.1068 115.553 56.6899C115.575 56.6096 115.552 56.6894 115.615 56.4456C115.615 56.4456 115.617 56.4503 115.617 56.4502C118.672 51.5474 117.046 58.8377 117.548 60.6132C126.129 55.4719 121.82 58.6029 122.636 62.4658C122.783 63.3755 122.802 65.5343 123.845 64.5097C132.385 56.1171 127.652 65.5899 123.28 67.2741Z" fill="#D75F58"/>
<path fill-rule="evenodd" clip-rule="evenodd" d="M105.848 58.8968C102.684 58.2001 102.882 52.4574 103.087 49.8612C104.632 46.4957 104.723 51.3633 104.539 52.7384C105.871 52.9158 106.776 54.3851 106.807 56.0765C106.858 57.2962 107.831 57.0818 105.848 58.8968Z" fill="#FEBDB9"/>
<path fill-rule="evenodd" clip-rule="evenodd" d="M81.5241 104.054C83.4886 100.797 83.8603 103.447 82.5408 105.62C81.902 106.342 81.5294 108.012 80.5543 108.394C79.5873 107.908 78.1017 110.811 77.7911 108.73C81.2162 103.9 80.7737 106.267 81.5241 104.054Z" fill="#FEBDB9"/>
<path fill-rule="evenodd" clip-rule="evenodd" d="M106.143 94.9216C105.318 95.2693 105.824 96.2342 105.421 96.8294C103.067 99.9543 101.862 91.3096 106.143 94.9216Z" fill="#FCEFA6"/>
<path fill-rule="evenodd" clip-rule="evenodd" d="M89.7425 97.4431C89.7835 98.1517 90.0146 98.7313 90.2807 99.5223C90.3203 100.775 87.7716 100.122 87.695 99.1983C87.9474 98.5043 88.915 96.6365 89.7425 97.4431Z" fill="#FCEFA6"/>
<path fill-rule="evenodd" clip-rule="evenodd" d="M116.763 71.0081C117.777 70.1479 119.169 72.4558 117.931 73.0665C116.683 72.973 113.909 71.5706 116.763 71.0081Z" fill="#FCEFA6"/>
<path fill-rule="evenodd" clip-rule="evenodd" d="M111.297 85.9442C110.744 82.4862 113.052 79.054 116.345 78.0971C113.162 79.7456 111.593 82.4171 111.401 85.9776C111.366 85.9666 111.332 85.9554 111.297 85.9442Z" fill="#FBEA8A"/>
<path fill-rule="evenodd" clip-rule="evenodd" d="M94.3114 82.874C93.5216 82.2791 97.1197 79.0348 97.1437 83.1213C96.5955 82.5549 94.5276 81.4926 94.3114 82.874Z" fill="#FBEA8A"/>
<path fill-rule="evenodd" clip-rule="evenodd" d="M94.312 82.8737C94.4876 81.6098 96.6238 82.2429 96.6293 83.4614C95.9478 83.8544 94.7308 83.9978 94.312 82.8737Z" fill="#FCEFA6"/>
<path fill-rule="evenodd" clip-rule="evenodd" d="M118.117 72.9995C118.794 72.1062 118.089 70.6518 117.565 69.7114C117.928 69.0017 119.115 72.8537 118.949 73.2629C118.593 73.7564 117.094 75.2264 116.667 74.211C117.157 73.9906 117.968 73.7706 118.117 72.9995Z" fill="#FBEA8A"/>
<path fill-rule="evenodd" clip-rule="evenodd" d="M106.009 53.5334C105.342 53.6204 105.349 52.4662 104.535 52.7405C104.575 51.8976 104.496 50.7641 104.607 49.7786C106.362 50.7078 104.01 50.4242 106.009 53.5334Z" fill="#FCEEA3"/>
<path fill-rule="evenodd" clip-rule="evenodd" d="M81.525 104.053C81.7747 104.882 75.618 109.583 78.6367 109.444C75.4979 110.265 80.7651 104.475 81.525 104.053Z" fill="#FCEEA3"/>
<path fill-rule="evenodd" clip-rule="evenodd" d="M103.205 64.6783C103.109 64.5923 103.013 64.5063 102.917 64.4204C104.593 64.2289 106.572 64.8266 107.039 66.7707C106.181 65.4595 104.764 65.0544 103.205 64.6783Z" fill="#FBEA8A"/>
<path fill-rule="evenodd" clip-rule="evenodd" d="M82.5501 105.601C82.661 104.83 84.2621 102.95 82.8374 102.514C85.2283 102.37 83.8112 104.744 82.5501 105.601Z" fill="#FCEEA3"/>
<path fill-rule="evenodd" clip-rule="evenodd" d="M95.0584 78.9493C95.8602 79.3866 97.05 79.6382 98.0116 79.0823C98.0258 79.4269 98.0399 79.7718 98.0554 80.1496C97.2065 79.9569 95.3241 79.8687 95.0584 78.9493Z" fill="#FBEA8A"/>
<path fill-rule="evenodd" clip-rule="evenodd" d="M115.015 61.1499C115.281 62.1867 115.667 63.4441 116.18 64.5958C114.563 63.6832 114.882 62.4908 115.015 61.1499Z" fill="#FBEA8A"/>
<path fill-rule="evenodd" clip-rule="evenodd" d="M104.479 72.7625C104.461 71.949 105.039 71.7983 105.838 71.9217C105.655 72.925 105.735 73.8521 104.479 72.7625Z" fill="#FBE985"/>
<path fill-rule="evenodd" clip-rule="evenodd" d="M77.6358 109.062C77.7528 109.41 77.987 109.636 78.3367 109.742C76.7313 111.505 77.6423 110.029 76.8599 108.782C77.2018 108.675 77.399 108.926 77.6358 109.062Z" fill="#FBEA8A"/>
<path fill-rule="evenodd" clip-rule="evenodd" d="M91.9951 93.0065C91.8762 93.3232 91.7574 93.6398 91.6385 93.9564C89.6831 92.6235 91.3185 91.9252 91.9951 93.0065Z" fill="#FBEA8A"/>
<path fill-rule="evenodd" clip-rule="evenodd" d="M105.853 58.8966C106.284 58.6622 106.408 58.0629 107.051 57.7262C107.06 57.8834 107.132 58.2113 107.134 58.5419C107.06 59.0954 106.347 59.5253 105.853 58.8966Z" fill="#FCEFA6"/>
<path fill-rule="evenodd" clip-rule="evenodd" d="M75.6024 102.261C76.6459 102.152 77.7919 101.818 78.7981 101.235C78.5068 101.674 75.1148 103.558 75.6024 102.261Z" fill="#FBEA8B"/>
<path fill-rule="evenodd" clip-rule="evenodd" d="M116.271 54.4492C116.366 54.9678 116.029 55.2386 115.679 55.5019C115.701 54.9354 115.583 54.5554 114.941 54.3321C115.256 53.8392 116.066 53.925 116.271 54.4492Z" fill="#FBEA8A"/>
<path fill-rule="evenodd" clip-rule="evenodd" d="M86.3906 85.008C85.6945 84.4305 84.1645 82.1307 83.8568 81.0977C84.5769 82.2925 85.8029 83.7875 86.3906 85.008Z" fill="#FBEA8B"/>
<path fill-rule="evenodd" clip-rule="evenodd" d="M104.193 94.0561C103.62 94.0717 103.611 94.74 103.093 95.0506C102.821 94.4154 103.183 93.1231 104.193 94.0561Z" fill="#FBEA8A"/>
<path fill-rule="evenodd" clip-rule="evenodd" d="M128.467 63.4638C128.656 62.8239 128.047 61.7592 129.44 61.9788C129.16 62.3085 128.883 63.2065 128.467 63.4638Z" fill="#FBEA8A"/>
<path fill-rule="evenodd" clip-rule="evenodd" d="M107.159 70.4352C107.704 69.3878 107.832 68.1213 107.215 66.9302C108.106 68.116 108.148 69.1308 107.159 70.4352Z" fill="#FBEA8B"/>
<path fill-rule="evenodd" clip-rule="evenodd" d="M106.62 59.2242C106.928 59.0988 107.057 58.8378 107.136 58.5378C107.654 59.2928 107.861 60.5679 106.62 59.2242Z" fill="#FBEA8A"/>
<path fill-rule="evenodd" clip-rule="evenodd" d="M97.2782 86.4547C96.7901 86.7718 96.0657 86.8165 95.5227 86.5504C96.0026 86.5732 96.8397 85.8403 97.2782 86.4547Z" fill="#FBEA8A"/>
<path fill-rule="evenodd" clip-rule="evenodd" d="M101.802 95.5609C101.945 96.0941 102.475 96.7555 102.69 97.3562C102.351 96.857 101.046 96.3203 101.802 95.5609Z" fill="#FBEA8A"/>
<path fill-rule="evenodd" clip-rule="evenodd" d="M104.264 48.7551C104.279 48.7882 104.293 48.8213 104.307 48.8544C103.628 48.6253 103.415 48.9369 103.12 49.5587C102.806 48.8981 103.624 48.0804 104.264 48.7551Z" fill="#FCEEA3"/>
<path fill-rule="evenodd" clip-rule="evenodd" d="M129.038 66.4229C128.743 66.8112 128.391 67.694 127.737 67.8837C127.867 67.4855 128.571 66.6652 129.038 66.4229Z" fill="#FBEA8B"/>
<path fill-rule="evenodd" clip-rule="evenodd" d="M115.913 70.4487C115.697 70.6344 115.481 70.8202 115.265 71.0059C115.153 70.1798 114.715 69.5596 115.913 70.4487Z" fill="#FBEA8A"/>
<path fill-rule="evenodd" clip-rule="evenodd" d="M107.203 97.8245C107.134 98.4743 106.435 100.072 105.56 99.1299C106.613 99.3372 106.773 98.8369 107.14 97.7938C107.161 97.8039 107.182 97.8143 107.203 97.8245Z" fill="#FBEA8B"/>
<path fill-rule="evenodd" clip-rule="evenodd" d="M88.3077 86.5846C88.781 86.1493 89.4083 86.2978 89.529 86.8001C89.2513 86.5903 88.6433 86.9652 88.3077 86.5846Z" fill="#FBEA8A"/>
<path fill-rule="evenodd" clip-rule="evenodd" d="M107.099 57.0929C106.902 56.7867 106.793 56.139 106.749 55.5649C107.246 55.7621 107.106 56.487 107.099 57.0929Z" fill="#FCEEA3"/>
<path fill-rule="evenodd" clip-rule="evenodd" d="M128.469 63.4632C128.495 63.4738 128.52 63.4844 128.546 63.4951C128.166 64.1222 127.7 65.0967 126.926 65.5806C127.441 64.8747 127.955 64.169 128.469 63.4632Z" fill="#FBEA8B"/>
<path fill-rule="evenodd" clip-rule="evenodd" d="M88.5991 85.7368C88.309 85.2729 89.0069 85.2703 89.5269 85.0667C89.3414 85.4535 89.0521 85.693 88.5991 85.7368Z" fill="#FBEA8A"/>
<path fill-rule="evenodd" clip-rule="evenodd" d="M72.487 103.887C72.7471 104.087 73.8746 103.826 73.7192 104.529C73.3627 104.346 73.0433 104.298 72.4882 103.884L72.487 103.887Z" fill="#FBEA8B"/>
<path fill-rule="evenodd" clip-rule="evenodd" d="M71.3206 109.742C71.4876 109.537 71.6945 109.1 72.0607 108.789C72.2186 109.294 72.156 109.432 71.3206 109.742Z" fill="#FBEA8B"/>
<path fill-rule="evenodd" clip-rule="evenodd" d="M129 77.0232C129.639 76.8201 129.682 76.8432 129.78 77.4317C129.451 77.4347 129.239 77.2485 129 77.0232Z" fill="#FBEA8B"/>
<path fill-rule="evenodd" clip-rule="evenodd" d="M102.896 81.5263C102.954 81.7791 103.67 81.7602 103.289 82.268C102.977 82.1681 102.724 81.9489 102.896 81.5263Z" fill="#FBEA8B"/>
<path fill-rule="evenodd" clip-rule="evenodd" d="M125.648 68.4705C125.369 68.5037 124.91 68.5583 124.392 68.6199C124.414 68.4905 125.516 67.9569 125.648 68.4705Z" fill="#FBEA8B"/>
<path fill-rule="evenodd" clip-rule="evenodd" d="M101.682 93.8809C101.489 94.277 100.866 94.3939 100.339 94.6174C100.65 94.5253 101.208 93.8329 101.682 93.8809Z" fill="#FBEA8B"/>
<path fill-rule="evenodd" clip-rule="evenodd" d="M91.8991 72.2678C92.003 72.1008 91.9473 71.7384 92.2205 71.4935C92.267 71.6323 92.4089 72.378 91.8991 72.2678Z" fill="#FBEA8B"/>
<path fill-rule="evenodd" clip-rule="evenodd" d="M108.655 72.911C108.45 72.8988 108.245 72.8869 107.992 72.872C108.036 72.7249 108.072 72.6057 108.121 72.4471C108.194 72.5632 108.617 72.6703 108.655 72.911Z" fill="#FBEA8B"/>
<path fill-rule="evenodd" clip-rule="evenodd" d="M91.8107 75.3021C91.9332 75.6002 92.1441 75.8786 91.9496 76.2475C91.9713 76.0937 91.7027 75.6099 91.8107 75.3021Z" fill="#FBEA8B"/>
<path fill-rule="evenodd" clip-rule="evenodd" d="M113.729 72.1562C113.789 72.4316 114.248 73.041 114.227 73.4307C114.167 73.1551 113.708 72.5462 113.729 72.1562Z" fill="#FBEA8B"/>
<path fill-rule="evenodd" clip-rule="evenodd" d="M106.142 94.9236C106.028 94.7103 106.089 94.6369 106.506 94.7966C106.385 94.8389 106.263 94.8812 106.142 94.9236Z" fill="#FBEA8B"/>
<path fill-rule="evenodd" clip-rule="evenodd" d="M74.8923 104.939C74.9809 104.788 74.9167 104.823 75.1714 104.623C75.2691 104.671 75.1707 105.047 74.8923 104.939Z" fill="#FBEA8B"/>
<path fill-rule="evenodd" clip-rule="evenodd" d="M87.4364 84.0481C87.3471 83.8475 87.2579 83.647 87.1687 83.4465C87.3612 83.6113 87.6042 83.7488 87.4999 84.0717C87.4787 84.0638 87.4576 84.056 87.4364 84.0481Z" fill="#FCEEA3"/>
<path fill-rule="evenodd" clip-rule="evenodd" d="M72.1958 103.735C72.2122 103.69 72.2285 103.646 72.2449 103.601C72.2301 103.639 72.7641 104.056 72.1958 103.735Z" fill="#FBEA8B"/>
<path fill-rule="evenodd" clip-rule="evenodd" d="M107.134 58.5428C107.135 58.5075 107.136 58.472 107.137 58.4368C107.136 58.4722 107.135 58.5075 107.134 58.5428Z" fill="#FBEA8A"/>
<path fill-rule="evenodd" clip-rule="evenodd" d="M82.4905 105.682C82.5076 105.662 82.5246 105.642 82.5416 105.622C82.5245 105.642 82.5075 105.662 82.4905 105.682Z" fill="#FCEEA3"/>
<path fill-rule="evenodd" clip-rule="evenodd" d="M115.681 55.497C115.672 55.5192 115.662 55.5415 115.653 55.5635C115.662 55.5414 115.672 55.5192 115.681 55.497Z" fill="#FBEA8A"/>
<path fill-rule="evenodd" clip-rule="evenodd" d="M84.7075 80.048C84.7231 80.0555 84.7387 80.0629 84.7541 80.0704C84.7385 80.0629 84.7231 80.0554 84.7075 80.048Z" fill="#FCEEA3"/>
<path fill-rule="evenodd" clip-rule="evenodd" d="M117.336 84.5704C118.175 84.2489 118.059 82.7725 116.924 83.1448C116.106 83.4555 116.269 84.9237 117.336 84.5704ZM118.649 81.5105C119.153 84.0823 119.769 86.5784 120.74 89.0346C118.364 88.2201 114.953 88.2614 114.699 87.4944C115.007 85.267 116.177 82.2854 118.649 81.5105Z" fill="#FD7D76"/>
<path fill-rule="evenodd" clip-rule="evenodd" d="M78.3536 96.5904C80.0716 97.1983 80.4554 94.5788 79.3912 93.467C79.9311 93.3147 80.6403 93.2896 81.2167 93.1269C81.0309 95.0359 80.5967 96.7781 78.9961 98.0313L78.3536 96.5904Z" fill="#FD7E77"/>
<path fill-rule="evenodd" clip-rule="evenodd" d="M133.667 72.7471C133.318 71.3091 132.157 70.2628 130.568 70.2023C131.216 68.1418 134.892 69.137 135.38 70.6804C134.866 71.3557 134.239 72.0043 133.667 72.7471Z" fill="#FCEE9F"/>
<path fill-rule="evenodd" clip-rule="evenodd" d="M100.455 76.0245C99.853 75.9183 99.7982 74.5999 100.825 75.0686C101.199 75.3733 101.024 75.9296 100.455 76.0245C100.46 75.3499 100.489 75.1194 100.542 75.333L100.455 76.0245Z" fill="#FCEFA6"/>
<path fill-rule="evenodd" clip-rule="evenodd" d="M122.285 59.047C123.517 59.9176 125.944 61.0955 127.398 61.8837C126.572 62.6201 125.172 63.4372 124.242 64.1526C124.43 63.2491 123.292 62.8269 122.751 63.6186C122.664 62.3272 122.088 60.4695 122.285 59.047Z" fill="#FD7E77"/>
<path fill-rule="evenodd" clip-rule="evenodd" d="M119.05 61.2895C119.626 60.9313 120.506 60.4376 121.118 60.0577C121.22 61.6486 121.397 63.3356 121.502 64.9602C119.859 64.4496 116.108 62.4644 119.05 61.2895Z" fill="#FD7D76"/>
<path fill-rule="evenodd" clip-rule="evenodd" d="M117.592 55.8966C118.694 56.6838 120.416 57.7703 121.644 58.6558C120.52 59.3004 118.799 59.8952 117.534 60.5861C117.405 59.1361 117.306 57.4748 117.592 55.8966Z" fill="#FD7E77"/>
<path fill-rule="evenodd" clip-rule="evenodd" d="M91.9968 93.0132C93.7805 90.678 97.7244 91.8164 99.6894 89.1268C99.7948 88.7997 101.995 91.5993 100.897 91.5556C90.5044 94.0907 95.8114 96.9879 91.9968 93.0132Z" fill="#FBE985"/>
<path fill-rule="evenodd" clip-rule="evenodd" d="M101.854 51.8663C101.508 50.8618 102.454 50.7713 103.086 49.8609C102.634 50.7989 103.824 54.8964 101.854 51.8663Z" fill="#FCEEA3"/>
<path fill-rule="evenodd" clip-rule="evenodd" d="M103.116 49.6555C103.118 49.6218 103.12 49.5879 103.121 49.554C103.12 49.5879 103.117 49.6217 103.116 49.6555Z" fill="#FCEEA3"/>
<path fill-rule="evenodd" clip-rule="evenodd" d="M110.727 63.5512L110.571 63.2014C110.856 63.0424 111.066 62.9833 110.727 63.5512Z" fill="#FCF1AF"/>
<path fill-rule="evenodd" clip-rule="evenodd" d="M92.3073 62.3112C92.8141 62.6274 93.3488 62.5439 93.6248 62.1349C93.9814 61.6066 93.8412 61.0384 93.2136 60.5636C92.9092 61.1507 92.6074 61.7324 92.3073 62.3112ZM70.7634 106.578C70.4913 107.367 70.2262 108.135 69.9628 108.898C70.1668 108.825 70.4058 108.745 70.6402 108.653C70.8208 108.582 71.0048 108.511 71.1709 108.413C71.6375 108.136 71.7047 107.907 71.4319 107.423C71.2605 107.12 71.1236 106.776 70.7634 106.578ZM77.553 116.103C77.5629 116.071 77.5727 116.038 77.5824 116.005C77.0478 115.577 76.5245 115.134 75.9752 114.726C75.5131 114.383 74.9975 114.368 74.4822 114.609C74.13 114.773 73.7892 114.962 73.4367 115.126C73.2815 115.198 73.2824 115.285 73.3642 115.403C73.6105 115.759 73.8313 116.138 74.1147 116.461C74.408 116.795 74.8136 116.935 75.2645 116.886C76.0873 116.796 76.8046 116.405 77.553 116.103ZM88.2462 83.3906C88.0526 82.0838 86.9749 79.998 85.4567 78.0239C85.2591 77.767 85.0092 77.5508 84.7436 77.2742C84.4996 77.7602 84.292 78.1734 84.0867 78.5822C84.2917 78.7302 84.4912 78.8371 84.6442 78.991C85.4031 79.7543 86.0802 80.5773 86.5561 81.5605C86.8036 82.0721 87.1159 82.5538 87.4203 83.0355C87.6584 83.4121 87.9062 83.5019 88.2462 83.3906ZM97.6796 103.592C97.6755 103.55 97.6714 103.509 97.6674 103.467C96.8544 103.316 96.0421 103.161 95.2275 103.019C95.108 102.998 94.9743 103.033 94.8519 103.062C94.1316 103.231 93.5457 103.607 93.1288 104.229C92.8264 104.679 92.5533 105.152 92.2311 105.587C91.6117 106.425 90.7916 106.903 89.7263 106.806C89.1817 106.757 88.6418 106.635 88.1045 106.523C87.8046 106.461 87.5465 106.513 87.3257 106.712C87.0748 106.937 86.8167 107.161 86.6006 107.418C85.8491 108.313 85.7187 109.377 85.8294 110.499C85.8356 110.562 85.8558 110.624 85.8769 110.72C89.8443 108.356 93.8484 106.118 97.6796 103.592ZM130.832 75.0661C130.864 75.0982 130.896 75.1302 130.927 75.1622C131.194 75.1403 131.469 75.1515 131.725 75.0892C132.177 74.9798 132.698 75.165 133.086 74.772C133.161 74.696 133.271 74.6539 133.366 74.5988C134.319 74.0476 135.28 73.5043 136.099 72.7585C136.429 72.4572 136.777 72.198 136.889 71.6464C137.022 70.9989 136.885 70.4397 136.743 69.8525C136.705 69.6926 136.612 69.5374 136.514 69.4014C135.841 68.4631 134.913 67.855 133.868 67.4338C132.841 67.0196 131.797 67.0289 130.834 67.6088C130.251 67.9598 129.698 68.3763 129.186 68.8266C128.685 69.2667 128.226 69.7716 127.961 70.4022C127.819 70.7425 127.705 71.1088 127.661 71.4739C127.614 71.8581 127.866 72.0417 128.242 71.9488C128.445 71.8985 128.646 71.8203 128.832 71.7224C129.243 71.5051 129.639 71.259 130.05 71.0401C130.662 70.7134 131.29 70.8549 131.645 71.3918C131.844 71.6924 131.87 72.0309 131.83 72.3773C131.752 73.058 131.466 73.6681 131.191 74.2815C131.074 74.5439 130.952 74.8047 130.832 75.0661ZM125.167 85.1132C125.242 85.1018 125.277 85.1018 125.307 85.091C125.411 85.0547 125.515 85.0172 125.616 84.9755C127.564 84.1782 129.333 83.0687 131.017 81.8182C131.941 81.1312 132.815 80.3741 133.741 79.6894C134.577 79.0711 135.452 78.5055 136.313 77.9219C137.063 77.4142 137.829 76.9311 138.566 76.4056C139.342 75.8519 139.991 75.1568 140.599 74.4227C140.948 74.0021 141.318 73.6144 141.887 73.4822C143.332 73.1465 144.266 72.2444 144.698 70.8239C145.096 69.517 145.222 68.215 144.511 66.9551C144.472 66.8863 144.427 66.8204 144.365 66.7207C144.244 66.9898 144.149 67.2159 144.042 67.4357C143.537 68.4686 142.825 69.3095 141.817 69.8795C141.191 70.2334 140.522 70.4629 139.819 70.5986C139.66 70.6295 139.586 70.6978 139.52 70.8535C139.373 71.2045 139.213 71.5572 139.006 71.8738C138.453 72.717 137.76 73.4407 136.995 74.0896C136.153 74.8044 135.213 75.3786 134.256 75.9225C133.313 76.4582 132.463 77.1022 131.78 77.9589C131.06 78.8611 130.325 79.7474 129.391 80.4479C128.937 80.7893 128.457 81.055 127.921 81.2296C127.478 81.3738 127.04 81.5345 126.594 81.6674C126.024 81.8372 125.693 82.2339 125.488 82.7705C125.202 83.5178 125.22 84.3049 125.167 85.1132ZM73.2093 101.061C74.1512 101.45 75.0762 101.692 76.0636 101.621C77.3343 101.53 78.3591 100.902 79.2977 100.111C80.1538 99.3883 80.9183 98.5729 81.586 97.6668C82.9654 95.7944 83.6326 93.757 83.0907 91.4022C82.6964 89.6889 81.7869 88.3464 80.3573 87.3533C79.8867 87.0265 79.8458 87.0432 79.6055 87.5491C77.672 91.6204 75.7406 95.6926 73.8096 99.7652C73.6099 100.186 73.4175 100.611 73.2093 101.061ZM124.463 81.3196C124.016 81.0005 123.621 80.6593 123.175 80.4093C121.693 79.5792 120.121 79.2594 118.447 79.6668C116.943 80.0329 115.629 80.7454 114.634 81.9485C112.959 83.9737 112.609 86.3151 113.196 88.8312C113.485 90.0697 114.058 91.1809 114.897 92.1447C115.068 92.7876 115.479 92.6443 115.955 92.5343C116.902 92.3154 117.866 92.1713 118.822 91.9907C119.593 91.8453 120.466 91.1564 120.888 90.49C121.548 89.4498 121.94 88.6986 122.586 87.6497C123.094 86.8232 123.449 85.9327 123.571 84.9612C123.621 84.5646 123.622 84.1618 123.661 83.7633C123.742 82.9138 123.958 82.1054 124.463 81.3196ZM138.437 69.8347C138.46 69.7249 138.463 69.6313 138.499 69.5536C138.529 69.4902 138.595 69.4035 138.651 69.3995C139.398 69.3458 140.04 69.0176 140.693 68.6818C141.498 68.268 142.106 67.6901 142.542 66.8925C143.026 66.0044 143.133 65.1248 142.693 64.1802C142.036 62.7742 141.074 61.614 139.875 60.6645C138.81 59.8219 137.661 59.1242 136.309 58.809C135.444 58.6072 135.108 58.1325 135.046 57.2379C135.031 57.0251 135.036 56.8105 135.011 56.5991C134.943 56.0243 134.945 55.4244 134.773 54.8815C134.194 53.0592 133.12 51.57 131.589 50.425C130.102 49.3134 128.459 48.959 126.657 49.3839C126.352 49.4558 126.048 49.5318 125.739 49.5811C124.993 49.7006 124.521 49.3484 124.411 48.5997C124.369 48.3128 124.344 48.0233 124.307 47.7355C124.113 46.2383 123.466 44.9607 122.287 44.0361C120.127 42.3423 117.681 41.5399 114.926 41.8416C114.354 41.9041 113.78 41.9679 113.207 41.9743C112.666 41.9803 112.202 41.7498 111.859 41.3114C111.702 41.1102 111.568 40.8905 111.407 40.6921C110.739 39.8654 110.143 38.9598 109.375 38.2405C108.347 37.2776 107.059 36.832 105.63 36.9687C104.81 37.0471 104.134 37.4611 103.493 37.956C102.193 38.9595 101.267 40.225 100.782 41.8072C100.628 42.3083 100.521 42.8191 100.658 43.3429C100.814 43.936 100.976 44.5281 101.158 45.1134C101.242 45.3836 101.248 45.6291 101.117 45.8781C99.9659 48.0581 98.8305 50.2465 97.6607 52.4161C96.4987 54.5711 95.3042 56.708 94.1178 58.8493C94.0236 59.0193 94.0271 59.123 94.1763 59.2606C94.4323 59.4962 94.6854 59.7424 94.8969 60.0173C95.0704 60.2428 95.2306 60.5019 95.3122 60.7716C95.6678 61.9485 95.0588 63.3077 93.9759 63.8712C93.2476 64.2502 92.527 64.1255 91.8102 63.866C91.5966 63.7886 91.5211 63.8379 91.4275 64.0237C89.5478 67.7524 87.662 71.4776 85.7779 75.2039C85.5743 75.6063 85.6603 76.0023 86.0084 76.2995C86.0793 76.36 86.1501 76.4239 86.2065 76.4974C86.682 77.1185 87.1685 77.7318 87.6229 78.3683C87.9934 78.8873 88.35 79.4201 88.6677 79.9731C89.3111 81.0934 89.5641 82.3642 89.9912 83.5679C90.0053 83.6076 90.0105 83.6511 90.0163 83.6932C90.1081 84.3518 89.7933 84.8268 89.1443 84.9342C88.7374 85.0015 88.3183 85.0304 87.9059 85.0212C87.3824 85.0094 86.9184 84.8204 86.5449 84.4215C86.0516 83.8944 85.6426 83.3075 85.3383 82.6572C84.9101 81.7425 84.3626 80.9195 83.6337 80.2228C83.3844 79.9845 83.3604 79.996 83.2084 80.3022C82.3686 81.9931 81.528 83.6836 80.6884 85.3745C80.6441 85.4636 80.606 85.5557 80.5619 85.6532C80.8041 85.7877 81.0354 85.8945 81.2443 86.0356C82.5316 86.9043 83.518 88.052 84.1187 89.4805C85.1956 92.0412 85.1466 94.5891 83.835 97.0572C82.8051 98.9954 81.3523 100.562 79.6032 101.869C78.153 102.952 76.5456 103.426 74.7572 103.148C74.068 103.041 73.3998 102.789 72.7251 102.593C72.5887 102.553 72.5108 102.551 72.4466 102.698C72.1299 103.423 71.8001 104.142 71.4894 104.87C71.4598 104.939 71.5001 105.094 71.5599 105.139C72.0125 105.486 72.3781 105.903 72.6699 106.393C73.0035 106.954 73.2674 107.534 73.1541 108.207C73.01 109.063 72.4385 109.581 71.7054 109.925C71.2089 110.158 70.6828 110.33 70.1634 110.51C69.9591 110.581 69.7337 110.589 69.5238 110.647C69.4584 110.665 69.3733 110.747 69.3635 110.81C69.2904 111.283 69.3297 111.75 69.5411 112.185C69.8759 112.875 70.32 113.486 70.8971 113.992C71.1475 114.211 71.4338 114.265 71.7476 114.118C72.3055 113.855 72.8801 113.624 73.4237 113.335C74.8259 112.588 76.129 112.73 77.3436 113.747C78.002 114.298 78.632 114.884 79.2951 115.429C80.006 116.013 80.7476 116.554 81.6448 116.828C82.3427 117.041 82.9857 116.977 83.4868 116.413C83.7295 116.14 83.9391 115.813 84.0767 115.474C84.496 114.441 84.5382 113.35 84.4434 112.252C84.3877 111.606 84.274 110.965 84.2309 110.319C84.0994 108.345 84.7491 106.709 86.3184 105.474C86.9772 104.955 87.6938 104.77 88.5086 104.984C88.6726 105.028 88.8353 105.08 89.0018 105.109C89.2681 105.155 89.5365 105.192 89.8051 105.223C90.2402 105.273 90.5789 105.079 90.858 104.769C90.9763 104.637 91.07 104.483 91.168 104.334C91.4016 103.979 91.6087 103.604 91.8659 103.268C92.9712 101.825 94.39 101.148 96.2199 101.55C96.9815 101.717 97.7457 101.883 98.4937 102.101C99.7517 102.468 101.033 102.625 102.334 102.626C102.686 102.626 103.047 102.578 103.389 102.495C104.934 102.12 106.117 101.168 107.127 99.9927C108.529 98.36 109.758 96.5724 111.353 95.1132C111.993 94.5271 112.716 94.0312 113.41 93.5056C113.529 93.4154 113.634 93.3511 113.568 93.1854C113.519 93.0623 113.488 92.9227 113.41 92.8219C112.404 91.5303 111.74 90.0776 111.51 88.4607C110.958 84.5825 112.067 81.3783 115.438 79.2164C117.1 78.1503 118.946 77.6734 120.945 77.9895C122.741 78.2737 124.338 78.9535 125.601 80.3304C126.074 80.1693 126.571 80.0022 127.066 79.8306C127.345 79.7336 127.639 79.6607 127.897 79.5217C128.637 79.1226 129.23 78.5411 129.768 77.9012C130.076 77.5349 130.376 77.1612 130.713 76.7493C130.568 76.7284 130.479 76.7155 130.39 76.7028C129.693 76.6033 129.26 76.1141 129.274 75.4059C129.279 75.1357 129.308 74.8545 129.391 74.6003C129.545 74.1326 129.747 73.6814 129.929 73.2228C129.963 73.1354 129.993 73.0459 130.052 72.8851C129.567 73.1028 129.171 73.3203 128.749 73.4609C128.075 73.6857 127.41 73.5934 126.841 73.1565C126.091 72.5806 125.965 71.7691 126.126 70.8966C126.261 70.1659 126.565 69.4998 127.004 68.9033C127.767 67.8657 128.709 67.0173 129.8 66.3456C130.829 65.7124 131.949 65.4608 133.158 65.6149C134.339 65.7653 135.357 66.2989 136.299 66.9878C137.27 67.6971 138.091 68.5362 138.379 69.7701C138.382 69.7834 138.399 69.7933 138.437 69.8347ZM97.9616 105.309C96.7203 106.069 95.4987 106.86 94.2545 107.614C92.7784 108.509 91.2878 109.38 89.8016 110.257C88.6358 110.946 87.4689 111.632 86.2984 112.312C86.1288 112.411 86.0523 112.508 86.0567 112.727C86.0822 114.026 85.966 115.308 85.3674 116.486C84.7954 117.612 83.9319 118.379 82.6367 118.517C81.7945 118.607 81.0051 118.358 80.2606 117.98C79.8758 117.784 79.5105 117.545 79.151 117.304C78.9824 117.191 78.8785 117.185 78.6858 117.289C77.6535 117.842 76.5935 118.347 75.4103 118.469C74.3792 118.575 73.499 118.209 72.8394 117.403C72.4808 116.964 72.1929 116.466 71.8893 115.985C71.7955 115.836 71.7053 115.774 71.5257 115.785C70.7819 115.832 70.1533 115.544 69.6685 114.997C69.2017 114.471 68.7483 113.923 68.3659 113.333C67.6507 112.232 67.6237 111.022 67.9398 109.783C68.3099 108.333 68.872 106.953 69.4597 105.584C71.6533 100.478 74.0109 95.4482 76.4431 90.4554C78.9794 85.2484 81.5707 80.0685 84.1669 74.8915C86.5991 70.0418 89.028 65.1897 91.5367 60.3801C93.3568 56.8908 95.3145 53.4748 97.1905 50.0149C97.9886 48.543 98.7326 47.0412 99.5074 45.5564C99.5941 45.3901 99.5931 45.2516 99.527 45.0759C99.1318 44.0258 98.8546 42.9613 99.1351 41.8265C99.4896 40.393 100.143 39.1195 101.112 38.0144C101.856 37.1657 102.71 36.4428 103.71 35.921C105.25 35.1173 106.83 35.2021 108.41 35.8187C109.546 36.2622 110.524 36.9326 111.268 37.9251C111.835 38.6814 112.417 39.4263 112.983 40.1827C113.098 40.336 113.229 40.4139 113.414 40.3959C113.894 40.3492 114.374 40.3077 114.853 40.2474C117.201 39.9513 119.371 40.5538 121.459 41.5869C122.741 42.221 123.816 43.1023 124.641 44.2779C125.319 45.2449 125.715 46.3277 125.869 47.4996C125.885 47.6238 125.903 47.7478 125.924 47.9003C126.1 47.8677 126.247 47.8427 126.394 47.8126C127.78 47.527 129.161 47.5101 130.499 48.037C131.851 48.5698 133.026 49.3744 133.998 50.4808C134.643 51.2152 135.186 52.0111 135.66 52.8645C136.31 54.037 136.569 55.2993 136.598 56.6248C136.612 57.2456 136.621 57.2526 137.208 57.4181C138.805 57.8685 140.15 58.7748 141.372 59.8588C142.532 60.8873 143.497 62.0901 144.126 63.5306C144.272 63.8653 144.365 64.2234 144.487 64.5689C144.511 64.6366 144.544 64.7301 144.597 64.754C145.192 65.0192 145.518 65.5385 145.829 66.0685C146.814 67.7463 146.75 69.5013 146.217 71.2887C145.849 72.5247 145.156 73.5355 144.086 74.2433C143.654 74.529 143.163 74.7515 142.668 74.9062C142.263 75.0329 141.965 75.2404 141.709 75.5601C141.054 76.3792 140.312 77.1146 139.46 77.7203C138.585 78.3427 137.672 78.9115 136.779 79.5098C136.14 79.9382 135.49 80.353 134.876 80.816C133.916 81.5401 132.996 82.3185 132.034 83.0404C130.268 84.3656 128.409 85.5406 126.363 86.3844C125.887 86.5803 125.381 86.6991 124.893 86.8663C124.801 86.8979 124.689 86.9734 124.655 87.0572C124.232 88.1072 123.599 89.0343 123.001 89.982C122.674 90.4994 122.349 91.0179 122.028 91.538C121.362 92.6128 120.42 93.2939 119.183 93.5403C118.295 93.7175 117.401 93.8652 116.51 94.0286C114.869 94.3294 113.535 95.1806 112.355 96.3327C110.986 97.6698 109.839 99.1976 108.638 100.678C107.761 101.758 106.742 102.667 105.542 103.355C104.294 104.071 102.936 104.331 101.503 104.199C101.022 104.155 100.54 104.118 100.06 104.068C99.9191 104.053 99.8319 104.075 99.7456 104.206" fill="black"/>
<path fill-rule="evenodd" clip-rule="evenodd" d="M107.145 74.5618C106.727 74.5109 106.382 74.4807 106.041 74.4241C105.69 74.3658 105.336 74.3061 104.996 74.2037C104.422 74.031 103.839 73.8652 103.296 73.6152C103.006 73.4812 102.73 73.2175 102.555 72.9431C101.992 72.0608 102.387 71.2059 103.415 71.0699C104.086 70.9813 104.682 70.7692 105.244 70.3837C106.198 69.7298 106.672 68.5357 106.365 67.4087C106.031 66.1804 105.264 65.358 104.078 64.9225C103.219 64.6071 102.344 64.5553 101.45 64.7185C99.476 65.0787 97.8779 66.1387 96.4554 67.4852C95.3916 68.4923 94.6665 69.7425 94.1833 71.1291C93.4499 73.2343 93.424 75.2902 94.6765 77.2424C95.0701 77.8558 95.6261 78.2561 96.3163 78.4651C96.5843 78.5461 96.8464 78.4971 96.986 78.2436C97.1641 77.9207 97.3806 77.5807 97.4222 77.2285C97.4866 76.6834 97.6984 76.1977 97.8592 75.6921C98.1201 74.8716 98.8001 74.6132 99.5446 75.0524C100.303 75.4999 100.98 76.0648 101.549 76.7372C102.13 77.4249 102.657 78.1594 103.209 78.8723C103.327 79.0244 103.451 79.1714 103.586 79.3376C105.07 77.9617 106.262 76.4094 107.145 74.5618ZM99.1314 76.7351C99.1033 76.8575 99.0639 76.9702 99.0529 77.0858C98.9683 77.967 98.6934 78.7658 98.0743 79.4153C97.4414 80.0794 96.6735 80.2375 95.8151 79.9752C94.5033 79.5746 93.6029 78.686 92.9813 77.4853C91.9901 75.5707 91.8742 73.5705 92.4106 71.5145C92.8858 69.6934 93.7131 68.0474 95.0152 66.6967C96.7881 64.8575 98.8562 63.4941 101.441 63.1112C103.166 62.8557 104.791 63.1773 106.163 64.2988C107.791 65.6291 108.473 67.6795 107.766 69.6475C107.464 70.4903 106.917 71.1556 106.178 71.6475C105.725 71.9494 105.246 72.2128 104.774 72.4963C104.8 72.5087 104.846 72.5428 104.897 72.554C105.725 72.7344 106.546 72.9425 107.403 72.9526C108.401 72.9643 108.977 73.7056 108.722 74.6747C108.6 75.1394 108.42 75.6021 108.188 76.0211C107.493 77.2726 106.682 78.4459 105.693 79.4838C105.29 79.9069 104.88 80.3249 104.454 80.7243C103.798 81.3394 103.109 81.2869 102.552 80.5789C102.12 80.0304 101.704 79.4687 101.297 78.9018C100.766 78.1646 100.152 77.5083 99.4574 76.9277C99.3923 76.8732 99.3221 76.8245 99.2523 76.7762C99.2328 76.7627 99.2063 76.7599 99.1314 76.7351Z" fill="black"/>
<path fill-rule="evenodd" clip-rule="evenodd" d="M123.818 66.5046C123.831 66.527 123.844 66.5494 123.857 66.5718C124.436 66.194 125.046 65.8552 125.588 65.43C126.636 64.6086 127.321 63.4893 127.944 62.3295C128.031 62.1659 127.95 62.0992 127.813 62.0447C127.513 61.9262 127.204 61.8245 126.917 61.679C125.599 61.0099 124.274 60.3535 122.977 59.6448C121.349 58.7548 119.854 57.6568 118.369 56.5439C117.867 56.1677 117.319 55.854 116.792 55.5125C116.608 55.3931 116.492 55.4496 116.438 55.6568C116.398 55.8136 116.359 55.9707 116.317 56.1269C115.823 57.9632 115.696 59.8198 116.025 61.7033C116.221 62.827 116.722 63.8126 117.453 64.664C118.204 65.5392 119.163 66.134 120.243 66.531C121.441 66.9711 122.632 67.1014 123.818 66.5046ZM124.56 67.9353C122.649 68.8702 120.791 68.5592 118.947 67.7073C117.808 67.1811 116.833 66.4359 116.056 65.4531C115.061 64.1926 114.506 62.7479 114.34 61.1395C114.129 59.0854 114.37 57.0884 114.945 55.1225C115.033 54.8231 115.166 54.5526 115.426 54.3613C115.478 54.3228 115.518 54.2617 115.552 54.2045C115.791 53.8128 116.153 53.6628 116.576 53.7802C116.988 53.895 117.417 54.0281 117.772 54.258C118.719 54.8711 119.642 55.5255 120.554 56.191C122.812 57.8371 125.249 59.1593 127.773 60.3293C128.21 60.5317 128.668 60.7067 129.067 60.9699C129.663 61.3625 129.818 61.8928 129.557 62.5528C129.08 63.759 128.358 64.8145 127.514 65.7891C126.694 66.7366 125.665 67.3916 124.56 67.9353Z" fill="black"/>
<path fill-rule="evenodd" clip-rule="evenodd" d="M93.6431 94.9812C93.7003 94.9166 93.7404 94.8751 93.7764 94.8302C94.7808 93.5767 96.0365 92.7326 97.6242 92.4103C98.2785 92.2774 98.9312 92.1279 99.5728 91.9443C100.058 91.8057 100.525 91.6051 100.997 91.4235C101.153 91.3636 101.189 91.2526 101.089 91.0996C100.796 90.6512 100.513 90.1964 100.219 89.7492C100.071 89.525 99.9064 89.3118 99.735 89.0733C99.6456 89.1594 99.5746 89.2293 99.5019 89.2973C98.4968 90.2387 97.3761 90.9725 96.0056 91.2536C95.4754 91.3624 94.9416 91.4535 94.4125 91.5672C93.5302 91.7568 92.7137 92.0754 92.0933 92.7795C91.9758 92.913 91.9859 92.977 92.0992 93.11C92.5559 93.6458 92.9939 94.1979 93.4394 94.7434C93.502 94.82 93.5682 94.8939 93.6431 94.9812ZM92.6472 90.3814C93.4104 90.2013 94.1652 89.9627 94.9386 89.8531C96.3938 89.6467 97.5897 88.9852 98.6126 87.9576C98.7437 87.8259 98.8898 87.7082 99.0348 87.5916C99.5931 87.1424 100.275 87.1927 100.721 87.7651C101.17 88.3412 101.577 88.9508 101.988 89.5553C102.198 89.8641 102.382 90.1912 102.571 90.5142C102.987 91.2256 102.898 91.8318 102.314 92.4034C101.759 92.9462 101.056 93.1912 100.337 93.3911C99.6127 93.5927 98.8822 93.7846 98.1433 93.9224C96.7757 94.1775 95.7051 94.877 94.8834 95.9888C94.7777 96.1319 94.6627 96.2682 94.5486 96.4048C94.1541 96.8767 93.5934 96.9936 93.1044 96.6243C92.7519 96.3581 92.4604 96.0033 92.167 95.6659C91.7215 95.1536 91.2997 94.6207 90.8642 94.0997C90.7062 93.9108 90.5279 93.7386 90.3755 93.5455C90.0929 93.1874 90.0763 92.8378 90.3301 92.462C90.926 91.5801 91.6693 90.8682 92.6692 90.4603C92.6619 90.4341 92.6546 90.4078 92.6472 90.3814Z" fill="black"/>
<path fill-rule="evenodd" clip-rule="evenodd" d="M104.548 50.0375C104.139 49.9386 104.019 49.9675 103.729 50.2091C103.672 50.2571 103.593 50.2801 103.537 50.3298C103.435 50.4213 103.307 50.5073 103.253 50.6251C102.995 51.1859 103.008 51.7727 103.193 52.3483C103.373 52.9077 103.573 53.4623 103.801 54.0038C104.279 55.1435 104.495 56.3034 104.176 57.5231C104.166 57.5608 104.175 57.6037 104.176 57.6954C104.554 57.7584 104.926 57.8255 105.3 57.8781C105.365 57.8871 105.471 57.8556 105.501 57.8071C105.789 57.3397 106.159 56.8996 106.151 56.3089C106.144 55.7193 105.988 55.1597 105.681 54.6541C105.456 54.2833 105.205 53.9282 104.962 53.5686C104.392 52.7242 104.148 51.8121 104.38 50.7997C104.436 50.5511 104.49 50.3019 104.548 50.0375ZM106.237 59.3525C105.727 59.5235 105.257 59.5126 104.799 59.4328C104.325 59.3505 103.855 59.2233 103.397 59.0722C102.773 58.8663 102.493 58.4181 102.535 57.7566C102.549 57.5535 102.584 57.3492 102.635 57.1521C102.823 56.4148 102.753 55.7033 102.482 54.9939C102.18 54.2055 101.866 53.4179 101.634 52.608C101.271 51.3371 101.533 50.1595 102.3 49.0952C102.335 49.0471 102.376 48.9996 102.395 48.9449C102.559 48.4736 102.899 48.3278 103.372 48.3643C103.971 48.4106 104.576 48.399 105.173 48.4639C106.085 48.5631 106.424 49.0793 106.212 49.9782C106.125 50.343 106.036 50.7072 105.941 51.0698C105.79 51.6474 105.928 52.163 106.253 52.6484C106.556 53.1011 106.889 53.5408 107.135 54.0243C107.674 55.0862 107.989 56.2101 107.53 57.3751C107.302 57.9544 106.937 58.4808 106.609 59.0159C106.517 59.1669 106.338 59.2642 106.237 59.3525Z" fill="black"/>
<path fill-rule="evenodd" clip-rule="evenodd" d="M78.7076 109.435C78.9546 108.785 79.2157 108.166 79.7122 107.709C80.2401 107.223 80.7927 106.762 81.3589 106.321C82.176 105.686 82.7044 104.855 83.0546 103.895C83.0872 103.806 83.0893 103.622 83.0476 103.601C82.7835 103.47 82.5031 103.373 82.228 103.265C82.1275 103.444 82.0259 103.623 81.9271 103.804C81.9029 103.848 81.8867 103.897 81.8699 103.945C81.4419 105.164 80.5925 106.05 79.6128 106.828C79.2223 107.138 78.7957 107.406 78.4259 107.738C78.1807 107.958 78.0009 108.255 77.8064 108.528C77.7691 108.58 77.766 108.707 77.8033 108.756C78.031 109.06 78.3184 109.291 78.7076 109.435ZM84.5994 102.861C84.7574 103.318 84.7537 103.756 84.6191 104.191C84.2032 105.534 83.4863 106.672 82.3691 107.537C81.941 107.869 81.517 108.206 81.1011 108.553C80.6513 108.929 80.3864 109.429 80.2029 109.978C80.1543 110.123 80.1132 110.271 80.0628 110.416C79.8303 111.082 79.3046 111.381 78.6427 111.151C77.9281 110.901 77.2525 110.56 76.7466 109.959C76.7088 109.914 76.6672 109.865 76.6166 109.839C76.1533 109.606 76.0495 109.194 76.112 108.737C76.2233 107.924 76.5838 107.224 77.2005 106.689C77.6534 106.295 78.1529 105.957 78.6242 105.584C79.3895 104.979 80.0619 104.3 80.4061 103.348C80.5298 103.006 80.6831 102.67 80.8634 102.354C81.1893 101.784 81.7059 101.552 82.3454 101.658C83.0046 101.768 83.6116 102.04 84.1691 102.407C84.3384 102.518 84.4574 102.707 84.5994 102.861Z" fill="black"/>
<path fill-rule="evenodd" clip-rule="evenodd" d="M94.8142 83.8667C94.8992 83.9927 94.9707 84.1311 95.0718 84.2422C95.3896 84.591 95.656 84.5489 95.8772 84.1272C96.1484 83.6099 96.0247 82.996 95.575 82.6274C95.3074 82.4082 95.0147 82.4593 94.8253 82.7563C94.5915 83.1234 94.6812 83.4891 94.8142 83.8667ZM93.4032 84.5351C92.954 83.5306 92.9604 82.565 93.6515 81.6684C93.7953 81.4819 93.9524 81.2892 94.1443 81.1617C94.3477 81.0266 94.5954 80.8996 94.8315 80.8846C95.7436 80.8267 96.4987 81.1456 97.06 81.9107C97.9908 83.1794 97.7094 84.965 96.4026 85.822C95.8438 86.1885 95.2375 86.1951 94.6375 85.8836C94.0828 85.5958 93.6766 85.1487 93.4032 84.5351Z" fill="black"/>
<path fill-rule="evenodd" clip-rule="evenodd" d="M104.826 96.0171C104.707 95.8754 104.598 95.7225 104.466 95.594C104.197 95.3336 104.084 95.3863 103.854 95.6421C103.432 96.1119 103.5 96.8819 103.981 97.2989C104.128 97.4265 104.291 97.454 104.466 97.327C104.87 97.0344 105.008 96.5178 104.826 96.0171ZM106.31 95.5264C106.598 96.2074 106.598 97.0732 106.13 97.8468C105.398 99.0557 104.015 99.4499 102.955 98.4999C101.476 97.1743 101.802 95.1137 103.113 94.1938C103.419 93.9797 103.794 93.8539 104.154 93.7379C104.304 93.6893 104.525 93.7227 104.666 93.8038C105.321 94.1809 105.905 94.6429 106.31 95.5264Z" fill="black"/>
<path fill-rule="evenodd" clip-rule="evenodd" d="M115.93 72.007C116.08 72.1395 116.222 72.2852 116.384 72.4011C116.58 72.5413 116.834 72.6948 117.035 72.5209C117.184 72.3914 117.217 72.1256 117.3 71.92C117.306 71.9052 117.302 71.8862 117.302 71.8691C117.302 71.5428 117.213 71.395 116.918 71.278C116.673 71.1808 116.417 71.0737 116.228 71.383C116.203 71.4237 116.155 71.4597 116.11 71.4771C115.846 71.5784 115.857 71.7607 115.93 72.007ZM114.427 72.4211C114.205 71.8826 114.204 71.1877 114.625 70.5889C115.062 69.968 115.634 69.4992 116.487 69.5772C117.172 69.6399 117.805 69.8119 118.299 70.3259C118.949 71.0021 118.999 71.8111 118.769 72.662C118.351 74.2107 116.817 74.474 115.805 73.9066C115.236 73.5875 114.76 73.1813 114.427 72.4211Z" fill="black"/>
<path fill-rule="evenodd" clip-rule="evenodd" d="M88.3456 99.5592C88.5755 99.7619 88.7852 99.9668 89.019 100.138C89.0785 100.182 89.2582 100.158 89.3077 100.1C89.5331 99.8363 89.6237 99.516 89.5396 99.1723C89.4674 98.8767 89.1938 98.8505 88.9569 98.8002C88.694 98.7443 88.5536 98.9572 88.4197 99.1152C88.346 99.2022 88.3717 99.3749 88.3456 99.5592ZM88.0284 97.4129C88.9902 96.9759 89.7084 97.2593 90.3702 97.7112C91.0565 98.1799 91.2259 98.909 91.1302 99.6837C91.0176 100.596 90.6211 101.34 89.7102 101.699C89.3304 101.848 88.9488 101.862 88.5717 101.699C87.7079 101.324 87.0881 100.712 86.8255 99.7865C86.6109 99.0299 86.8361 98.3853 87.4046 97.87C87.6328 97.6634 87.9028 97.5036 88.0284 97.4129Z" fill="black"/>
</svg>
