<svg viewBox="224.625 271.779792746114 1460.0625000000002 1325.2072538860102" xmlns="http://www.w3.org/2000/svg" overflow="visible" xmlns:xlink="http://www.w3.org/1999/xlink" width="1460.0625000000002px" height="1325.2072538860102px"><g id="Master/Solo/Dish" stroke="none" stroke-width="1" fill="none" fill-rule="evenodd"><g id="Dishes" transform="translate(-0.000000, 0.000000) scale(1 1)"><defs><path d="M322.038073,13.2684957 C75.7582652,59.3936196 -192.905572,265.880985 196.832345,378.597885 L196.832345,378.597885 C299.20588,403.381555 1141.48163,492.682553 1250.21483,234.90674 L1250.21483,234.90674 C1257.37265,217.939294 1160.33014,141.824433 1108.02723,105.713935 L1108.02723,105.713935 C1091.42808,90.5431094 1058.49725,85.9183441 1052.60566,63.4413578 L1052.60566,63.4413578 C1050.94959,57.4488245 1032.59477,57.7252276 1027.61517,55.5168523 L1027.61517,55.5168523 C965.907922,56.7692148 956.997277,117.68048 858.197675,184.944742 L858.197675,184.944742 C764.524219,246.878984 704.955356,203.456626 835.560397,62.9583647 L835.560397,62.9583647 C860.607803,34.159726 841.699537,16.2220195 805.351277,15.7376017 L805.351277,15.7376017 C778.909582,7.21042355 562.477518,2.63837429 641.980445,52.0318936 L641.980445,52.0318936 C640.401199,105.183925 632.459443,87.5938598 653.861779,108.999428 L653.861779,108.999428 C657.650546,128.843461 650.770156,124.024928 641.334519,119.206396 L641.334519,119.206396 C635.61082,116.281367 628.946688,113.356339 623.157543,115.9437 L623.157543,115.9437 C610.182119,117.292946 580.106737,136.632614 589.145429,124.438108 L589.145429,124.438108 C612.606475,92.7885284 636.814462,129.70544 616.61719,27.3721777 L616.61719,27.3721777 C608.738034,25.5755575 577.114706,67.671465 538.882733,109.767373 L538.882733,109.767373 C482.890649,171.418087 412.726612,233.068802 382.221561,156.84566 L382.221561,156.84566 C375.143411,135.246325 413.03108,65.4360193 437.919138,27.9392315 L437.919138,27.9392315 C452.165072,6.4780978 439.883947,0.132223558 418.236899,0.132223558 L418.236899,0.132223558 C389.181624,0.132223558 343.261143,11.5758829 322.038073,13.2684957 L322.038073,13.2684957 Z M737.874804,81.0399718 C729.810691,57.2978002 762.21226,39.2731834 760.722647,70.3101173 L760.722647,70.3101173 C772.586908,90.3422185 766.521751,103.029691 757.292412,103.029691 L757.292412,103.029691 C750.608361,103.028266 742.266814,96.3746449 737.874804,81.0399718 L737.874804,81.0399718 Z M327.824372,54.20465 C360.604391,58.8108934 325.977651,86.7860219 311.946551,91.7057121 L311.946551,91.7057121 C281.744544,85.4339263 313.787582,59.5717143 327.824372,54.20465 L327.824372,54.20465 Z M969.737948,168.141143 C963.126457,149.00664 985.177564,105.812244 996.558093,141.696205 L996.558093,141.696205 C994.23902,156.557859 992.207342,178.184264 983.024953,178.182839 L983.024953,178.182839 C979.671546,178.181415 975.362055,175.296279 969.737948,168.141143 L969.737948,168.141143 Z M207.084637,131.20856 C240.059572,131.630288 209.12912,166.865985 193.608407,169.833756 L193.608407,169.833756 C164.587278,163.576218 193.441946,137.5986 207.084637,131.20856 L207.084637,131.20856 Z M1083.69262,132.140352 C1099.10662,136.417476 1118.58399,161.800969 1095.59529,166.68789 L1095.59529,166.68789 C1077.42259,164.187439 1058.24258,136.042764 1083.69262,132.140352 L1083.69262,132.140352 Z M581.718706,170.842485 C578.174651,184.436103 567.885367,195.305584 558.637532,200.503102 L558.637532,200.503102 C521.664687,198.498467 575.950902,132.754422 581.718706,170.842485 L581.718706,170.842485 Z M330.957254,187.516431 C343.350776,186.682947 353.772375,225.075908 338.33845,226.50779 L338.33845,226.50779 C337.389479,226.700132 336.466119,226.791317 335.566945,226.791317 L335.566945,226.791317 C317.059892,226.788467 309.645974,187.978052 330.957254,187.516431 L330.957254,187.516431 Z M663.217742,225.125775 C660.988303,199.977367 682.340842,172.378374 691.316934,206.653784 L691.316934,206.653784 C690.43341,218.475003 682.059139,235.362663 673.471457,235.362663 L673.471457,235.362663 C669.918866,235.362663 666.32786,232.468979 663.217742,225.125775 L663.217742,225.125775 Z M1015.15762,240.24246 C1016.21757,222.635297 1033.75858,206.361708 1041.87675,227.770126 L1041.87675,227.770126 C1043.98099,244.473992 1036.41484,255.829315 1028.46597,255.82789 L1028.46597,255.82789 C1023.37112,255.826466 1018.11835,251.158957 1015.15762,240.24246 L1015.15762,240.24246 Z M878.818924,229.995598 C906.977871,236.52669 875.815512,263.396206 863.828895,266.433791 L863.828895,266.433791 C840.111755,256.000286 864.627054,233.369426 878.818924,229.995598 L878.818924,229.995598 Z" id="dishessandwich-path-1"/><path d="M223.116135,174.740303 C380.430027,226.356273 543.216252,230.559212 708.142153,234.071394 L708.142153,234.071394 C713.037925,233.733848 723.302107,233.911879 737.619289,234.091333 L737.619289,234.091333 C837.784038,235.346091 1136.27101,236.600848 1181.89181,60.5815758 L1181.89181,60.5815758 C1101.9949,75.2142424 1023.37497,71.0611515 944.194137,66.9080606 L944.194137,66.9080606 C903.178693,64.7560303 862.010924,62.6054242 820.438852,63.0654545 L820.438852,63.0654545 C600.354006,66.3853636 318.874831,60.7353939 50.1468739,10.9652424 L50.1468739,10.9652424 C38.1103055,3.92521212 27.6895271,0.769090909 19.5166189,0.771937468 L19.5166189,0.771937468 C-27.2815023,0.784757576 -0.110603988,104.317212 223.116135,174.740303 L223.116135,174.740303 Z" id="dishessandwich-path-3"/><path d="M75.4209112,152.674256 C114.274841,150.224096 145.503712,137.586127 184.858579,137.498979 L184.858579,137.498979 C244.800251,131.228569 258.373937,187.765119 319.125362,209.676549 L319.125362,209.676549 C358.342187,223.701751 391.839506,215.968389 426.257581,208.233598 L426.257581,208.233598 C472.792071,197.777201 521.005839,187.319375 587.30315,230.640776 L587.30315,230.640776 C603.913767,239.549929 619.838442,245.873199 638.311918,248.217638 L638.311918,248.217638 C670.942559,252.542206 699.89729,235.701106 729.954936,218.860006 L729.954936,218.860006 C760.826605,201.561734 792.862383,184.26489 831.240992,189.902401 L831.240992,189.902401 C890.216367,212.696747 919.31341,236.396866 1000.62745,228.933521 L1000.62745,228.933521 C1061.89262,230.289324 1099.64505,180.871811 1152.51526,160.569057 L1152.51526,160.569057 C1156.73622,154.2315 1183.35277,155.262996 1216.9426,156.294492 L1216.9426,156.294492 C1300.74709,158.867517 1427.96233,161.441971 1359.10625,49.5675226 L1359.10625,49.5675226 C1229.53291,-44.3386097 1347.14211,65.3371238 981.070978,111.231549 L981.070978,111.231549 C823.332733,132.495795 671.676888,128.551252 513.451936,121.622228 L513.451936,121.622228 C364.643747,112.081605 204.649862,105.922631 87.987031,0.721475685 L87.987031,0.721475685 C25.4296708,42.9299463 -65.3110908,139.109084 75.4209112,152.674256 L75.4209112,152.674256 Z" id="dishessandwich-path-5"/><path d="M287.520997,150.267857 C432.693138,160.666939 582.547976,184.054173 813.161892,174.823383 L813.161892,174.823383 C868.000272,173.229999 922.333222,175.707805 976.548001,178.187037 L976.548001,178.187037 C1049.93208,181.540705 1123.10402,184.894373 1197.03197,178.152801 L1197.03197,178.152801 C1306.28588,177.117173 1436.69948,43.8648557 1244.35725,27.8254495 L1244.35725,27.8254495 C1316.91556,157.393154 992.405671,97.1255556 924.742198,85.692272 L924.742198,85.692272 C902.75673,83.777928 881.80063,87.3313041 860.975515,90.8846802 L860.975515,90.8846802 C837.049483,94.9672826 813.297148,99.0513114 788.365952,94.8360459 L788.365952,94.8360459 C671.915015,56.7545813 690.070609,92.7262734 556.435072,109.076653 L556.435072,109.076653 C520.714738,108.875519 491.975025,92.0686634 457.904811,89.0245428 L457.904811,89.0245428 C439.74637,88.7905991 422.000814,89.6236668 404.433227,90.455308 L404.433227,90.455308 C367.256402,92.2184444 330.876874,93.9815809 293.077873,85.6280801 L293.077873,85.6280801 C247.711668,77.7709964 207.292976,60.7544474 162.362436,53.4964877 L162.362436,53.4964877 C122.711143,47.4439085 47.2569383,58.5248501 50.6383323,0.208684625 L50.6383323,0.208684625 C-127.29133,89.7919921 216.369349,152.252099 287.520997,150.267857 L287.520997,150.267857 Z" id="dishessandwich-path-7"/><path d="M26.4451452,59.8940444 C57.9705832,72.0881778 86.2496458,66.0096 118.195119,72.0284444 L118.195119,72.0284444 C177.364583,83.7205333 227.213532,105.691022 289.264867,108.993422 L289.264867,108.993422 C310.287995,111.177956 330.854068,109.643378 351.229346,108.1088 L351.229346,108.1088 C381.098848,105.858844 410.5654,103.608889 440.490432,113.072356 L440.490432,113.072356 C537.339209,151.344356 565.850359,97.3838222 673.349525,95.7112889 L673.349525,95.7112889 C764.525688,123.869867 748.011889,111.042844 875.70408,103.338667 L875.70408,103.338667 C920.105384,110.0544 1270.133,179.285333 1195.15454,45.9221333 L1195.15454,45.9221333 C1139.03781,18.7847111 1161.43353,33.4535111 1098.84968,49.0894222 L1098.84968,49.0894222 C1146.62123,47.8634667 1142.73697,56.2958222 1107.75158,64.7281778 L1107.75158,64.7281778 C1061.51921,75.8698667 960.974118,87.0144 853.561806,75.8641778 L853.561806,75.8641778 C833.751797,77.6049778 846.681769,67.1772444 839.626597,57.8844444 L839.626597,57.8844444 C832.941627,54.1980444 823.935783,54.4668444 815.20047,54.7356444 L815.20047,54.7356444 C801.945861,55.1424 789.313473,55.5505778 786.363259,42.1290667 L786.363259,42.1290667 C807.585726,46.0103111 828.358257,47.4012444 847.803762,49.5928889 L847.803762,49.5928889 C830.791615,41.8588444 791.407955,48.6712889 790.891098,20.9308444 L790.891098,20.9308444 C759.701688,14.4924444 729.172945,24.5973333 695.776569,34.7022222 L695.776569,34.7022222 C656.375823,46.6218667 612.981181,58.5415111 559.791882,43.3038222 L559.791882,43.3038222 C542.042182,52.0277333 540.131377,47.2632889 542.177447,56.5774222 L542.177447,56.5774222 C554.384104,81.8147556 280.307433,74.0551111 33.4049185,20.4586667 L33.4049185,20.4586667 C36.2896364,6.23786667 31.1039787,0.526222222 24.0715891,0.527644179 L24.0715891,0.527644179 C7.34848406,0.533333333 -19.7986187,32.8547556 26.4451452,59.8940444 L26.4451452,59.8940444 Z M1195.15454,45.9221333 C1195.19583,45.9420444 1195.23855,45.9633778 1195.27984,45.9832889 L1195.27984,45.9832889 L1195.13746,45.8908444 C1195.14173,45.8993778 1195.15027,45.9150222 1195.15454,45.9221333 L1195.15454,45.9221333 Z" id="dishessandwich-path-9"/><path d="M271.888721,7.03267102 C191.48427,29.4724592 113.852975,39.2306241 32.606623,57.0835331 L32.606623,57.0835331 C-14.7005697,68.9056511 -4.27492623,77.3895245 30.8574016,209.49535 L30.8574016,209.49535 C35.0626434,215.526141 24.2729344,219.216455 24.5530943,227.12875 L24.5530943,227.12875 C25.6282254,273.26979 86.8623484,226.465947 339.583586,198.753671 L339.583586,198.753671 C355.182943,181.758842 339.222365,136.303412 332.62652,75.6006702 L332.62652,75.6006702 C324.836086,43.7519357 329.494988,0.113866988 298.228012,0.118143134 L298.228012,0.118143134 C291.354852,0.118143134 282.743848,2.22770843 271.888721,7.03267102 L271.888721,7.03267102 Z" id="dishessandwich-path-11"/><path d="M11.9074428,15.3434584 C-1.34987146,19.6383183 3.14893373,41.0372448 0.0249611268,53.4681624 L0.0249611268,53.4681624 C9.45096137,122.5571 130.611285,120.091111 222.410537,145.920001 L222.410537,145.920001 C231.092192,148.363236 547.706459,169.669723 522.519697,128.578437 L522.519697,128.578437 C533.385998,90.5831476 520.103066,95.5179702 480.553145,72.6343305 L480.553145,72.6343305 C424.310253,43.319778 364.534923,77.1538885 302.952101,80.2100653 L302.952101,80.2100653 C232.065676,81.515589 209.190226,42.2759279 147.307104,1.34960997 L147.307104,1.34960997 C140.200956,0.497748672 133.184471,0.126570377 126.227761,0.126570377 L126.227761,0.126570377 C87.413647,0.126570377 50.5835045,11.6643846 11.9074428,15.3434584 L11.9074428,15.3434584 Z M52.5133937,40.5864267 C48.2124164,5.97725048 82.3725942,14.46031 76.3239001,46.5707879 L76.3239001,46.5707879 L76.4391811,46.5707879 C78.3704935,64.0374999 71.9958816,73.2799817 65.3053143,73.2785595 L65.3053143,73.2785595 C58.1806642,73.2785595 50.6973622,62.7917061 52.5133937,40.5864267 L52.5133937,40.5864267 Z M119.624011,69.0263637 C110.559509,46.418619 133.813535,9.78431676 142.981932,45.6037333 L142.981932,45.6037333 C145.768601,59.1481858 139.571892,81.3193338 130.813383,81.3179116 L130.813383,81.3179116 C127.352107,81.3179116 123.489482,77.855003 119.624011,69.0263637 L119.624011,69.0263637 Z M185.342716,63.3477624 C199.318758,47.3600751 210.498167,68.6438083 207.687304,80.3053486 L207.687304,80.3053486 L207.848128,80.3053486 C207.91075,94.2124465 203.410521,99.6421735 198.157408,99.6421735 L198.157408,99.6421735 C188.466689,99.6421735 176.217016,81.1600542 185.342716,63.3477624 L185.342716,63.3477624 Z M443.46113,102.560403 C443.574988,75.7502372 471.729168,76.7599559 468.431562,103.474838 L468.431562,103.474838 C466.955681,114.733913 461.20444,119.607584 455.586983,119.607584 L455.586983,119.607584 C449.126977,119.606162 442.844875,113.158183 443.46113,102.560403 L443.46113,102.560403 Z M362.901064,113.153917 C360.290875,80.0778064 386.398461,77.9687741 388.541834,106.240899 L388.541834,106.240899 C389.206479,118.691726 380.751116,127.442148 373.357477,127.440726 L373.357477,127.440726 C368.232454,127.440726 363.618368,123.238305 362.901064,113.153917 L362.901064,113.153917 Z M269.67859,108.920209 C267.438439,82.2494127 294.711645,82.3262082 293.991494,106.260809 L293.991494,106.260809 C295.208349,117.573925 288.910591,123.174309 282.416429,123.172887 L282.416429,123.172887 C276.416124,123.172887 270.247879,118.393077 269.67859,108.920209 L269.67859,108.920209 Z" id="dishessandwich-path-13"/><path d="M40.6515495,6.69992 C43.171009,8.034208 45.7673333,9.133536 48.4291351,10.030656 L48.4291351,10.030656 L51.2318559,0.508368 C47.743045,2.547536 44.639982,4.365984 40.6515495,6.69992 L40.6515495,6.69992 Z M226.031099,4.297632 C241.364216,15.299456 216.337586,13.092256 189.917423,10.885056 L189.917423,10.885056 C175.48818,9.678928 160.643297,8.474224 151.731243,9.41976 L151.731243,9.41976 C136.588865,7.028864 120.364685,8.9712 104.326973,10.913536 L104.326973,10.913536 C84.6225225,13.298736 65.2027568,15.68536 48.4291351,10.030656 L48.4291351,10.030656 L0.466882883,173.013152 C51.3186847,180.530448 40.633045,184.766848 108.605784,142.283232 L108.605784,142.283232 C121.057892,127.425216 93.6698018,133.050016 134.792505,107.00648 L134.792505,107.00648 C138.776667,79.023456 194.338577,56.502896 189.628468,24.552608 L189.628468,24.552608 C215.281405,29.06384 239.263243,24.19376 263.161099,19.32368 L263.161099,19.32368 C280.573838,15.775072 297.943874,12.226464 315.88755,12.306208 L315.88755,12.306208 C302.396342,5.949472 268.348054,4.10824 241.011207,4.10824 L241.011207,4.10824 C235.698991,4.10824 230.637297,4.178016 226.031099,4.297632 L226.031099,4.297632 Z" id="dishessandwich-path-15"/><path d="M70.472627,2.45355556 C80.2903459,14.7284658 72.4856432,29.4911672 64.6496649,37.7676377 L64.6496649,37.7676377 C68.3842649,37.9502279 72.1202865,38.1342446 77.3049405,38.388159 L77.3049405,38.388159 C54.2846216,48.1923959 59.5446216,49.2836575 57.6780324,66.7495495 L57.6780324,66.7495495 C40.1508595,87.3351659 18.7696703,112.395668 7.83597838,136.877017 L7.83597838,136.877017 C7.50331892,169.644822 -21.0001946,163.179989 39.8793297,182.055249 L39.8793297,182.055249 C55.2243135,186.735549 78.204827,163.077282 115.492541,141.6372 L115.492541,141.6372 C149.057027,124.36959 125.513551,91.0154992 159.578449,93.1081539 L159.578449,93.1081539 C215.428276,34.1500698 168.750751,56.464587 262.081632,37.689181 L262.081632,37.689181 C210.291957,23.5769571 153.1186,0.550623514 97.2033784,0.550623514 L97.2033784,0.550623514 C88.251427,0.550623514 79.332173,1.14118863 70.472627,2.45355556 L70.472627,2.45355556 Z" id="dishessandwich-path-17"/><path d="M122.714313,68.1869239 C135.991446,121.052543 83.7544096,104.604924 106.053566,65.0315326 L106.053566,65.0315326 C71.5506506,60.1418152 35.9828916,35.6334239 8.81445783,29.9719457 L8.81445783,29.9719457 C-9.794,83.4170978 -1.48708434,96.6723043 59.966747,111.509478 L59.966747,111.509478 C119.199904,124.363141 173.833904,133.624272 233.367036,129.909283 L233.367036,129.909283 C247.660675,131.296174 405.42241,94.7970109 336.091012,71.1429674 L336.091012,71.1429674 C340.465542,47.3778587 335.446988,24.9910978 330.527952,0.795967391 L330.527952,0.795967391 C261.237783,36.8166957 250.730096,75.5001413 122.714313,68.1869239 L122.714313,68.1869239 Z M313.261566,38.0426848 C329.930843,39.3242065 323.140867,59.9567065 324.63506,71.5203043 L324.63506,71.5203043 C321.32253,80.8839565 317.292048,84.5419891 313.409422,84.5419891 L313.409422,84.5419891 C300.186313,84.5391413 288.696241,42.0737826 313.261566,38.0426848 L313.261566,38.0426848 Z M33.6641205,80.516587 C31.4363373,53.8993804 56.2390843,42.5707283 59.966747,69.3246304 L59.966747,69.3246304 C59.2146747,79.7562174 50.7798072,89.8446413 43.2917831,89.8432174 L43.2917831,89.8432174 C39.4418554,89.8417935 35.8407229,87.1748043 33.6641205,80.516587 L33.6641205,80.516587 Z M250.36188,81.0477065 C248.109928,50.1658804 279.29747,56.8924457 273.872313,89.4929348 L273.872313,89.4929348 C272.722169,97.8925978 268.404506,101.282935 263.735687,101.282935 L263.735687,101.282935 C256.07706,101.281511 247.474434,92.1542283 250.36188,81.0477065 L250.36188,81.0477065 Z M184.414096,90.4640435 C183.947783,65.1952826 213.736386,70.102087 208.850048,96.3476522 L208.850048,96.3476522 C206.724627,105.748326 201.697542,109.637033 196.727325,109.635609 L196.727325,109.635609 C189.607518,109.635609 182.601446,101.653152 184.414096,90.4640435 L184.414096,90.4640435 Z" id="dishessandwich-path-19"/><path d="M176.445554,7.68849621 L176.655771,7.56037053 C122.824707,28.1515905 68.1144268,47.1882189 10.8062675,41.8012459 L10.8062675,41.8012459 C-27.1861146,70.0501105 51.9192293,75.4513196 76.1537898,70.1397985 L76.1537898,70.1397985 C119.697025,63.4103532 161.875274,42.4048602 202.680013,43.1280585 L202.680013,43.1280585 C228.31507,16.0892698 227.815096,0.359707476 207.898497,0.362554713 L207.898497,0.362554713 C200.192924,0.363978332 189.575567,2.72006717 176.445554,7.68849621 L176.445554,7.68849621 Z" id="dishessandwich-path-21"/><path d="M7.22638889,36.4057778 C29.5180556,46.8404444 24.7388889,17.6612222 23.1055556,4.51677778 L23.1055556,4.51677778 C19.2708333,2.00633333 15.8722222,0.925888889 12.9472222,0.927331887 L12.9472222,0.927331887 C-0.85,0.927331887 -4.10555556,24.9643333 7.22638889,36.4057778 L7.22638889,36.4057778 Z" id="dishessandwich-path-23"/><path d="M0.0326842105,18.6342857 C28.2675789,13.9314286 56.1656842,9.09714286 80.9090526,0.312857143 L80.9090526,0.312857143 C52.893,3.19 26.001,12.2742857 0.0326842105,18.6342857 L0.0326842105,18.6342857 Z" id="dishessandwich-path-25"/><path d="M2.52285714,23.5990588 C13.5742857,15.9783529 8.33714286,9.11435294 5.04,0.967058824 L5.04,0.967058824 C3.55571429,10.4894118 -1.93285714,16.848 2.52285714,23.5990588 L2.52285714,23.5990588 Z" id="dishessandwich-path-27"/><path d="M16.8393846,18.3918 C9.36107692,14.7294 3.79353846,9.5564 2.93923077,0.658 L2.93923077,0.658 C-6.17569231,11.1944 11.2372308,24.2592 16.8393846,18.3918 L16.8393846,18.3918 Z" id="dishessandwich-path-29"/><path d="M0.747272727,16.9698462 C12.4213636,15.2030769 15.1568182,11.5906154 13.3595455,0.321230769 L13.3595455,0.321230769 C11.0509091,8.69538462 1.815,11.3150769 0.747272727,16.9698462 L0.747272727,16.9698462 Z" id="dishessandwich-path-31"/><path d="M0.8246,9.750125 C7.1834,8.487875 13.5408,7.227 19.9024,5.963375 L19.9024,5.963375 C16.5732,2.62075 13.6304,0.93225 10.8976,0.93225 L10.8976,0.93225 C7.3066,0.933625 4.081,3.845875 0.8246,9.750125 L0.8246,9.750125 Z" id="dishessandwich-path-33"/><path d="M0.9898,9.640125 C10.1178,8.14275 19.3382,6.914875 26.8002,0.820875 L26.8002,0.820875 C17.22,1.057375 8.6212,4.0095 0.9898,9.640125 L0.9898,9.640125 Z" id="dishessandwich-path-35"/><path d="M0.417272727,2.336 C5.14772727,2.748 9.87681818,3.16266667 14.6059091,3.57733333 L14.6059091,3.57733333 C14.6059091,3.06 14.6127273,2.544 14.6263636,2.028 L14.6263636,2.028 C12.2113636,0.985333333 9.80727273,0.370666667 7.41818182,0.370666667 L7.41818182,0.370666667 C5.06863636,0.372 2.73272727,0.966666667 0.417272727,2.336 L0.417272727,2.336 Z" id="dishessandwich-path-37"/><path d="M0.725454545,2.343 C4.96227273,6.1155 9.37227273,5.316 13.8422727,2.985 L13.8422727,2.985 C11.7409091,0.9765 9.59454545,0.144 7.41681818,0.144 L7.41681818,0.144 C5.21454545,0.144 2.97954545,0.9945 0.725454545,2.343 L0.725454545,2.343 Z" id="dishessandwich-path-39"/><path d="M0.501,5.1945 C2.1045,4.932 3.708,4.674 5.31,4.413 L5.31,4.413 L1.47,0.384 C1.146,1.989 0.8235,3.591 0.501,5.1945 L0.501,5.1945 Z" id="dishessandwich-path-41"/><path d="M0.402666667,2.6925 C1.476,1.9065 2.54266667,1.122 3.60933333,0.3405 L3.60933333,0.3405 C2.53866667,1.1235 1.468,1.908 0.402666667,2.6925 L0.402666667,2.6925 Z" id="dishessandwich-path-43"/><path d="M4.004,2.724 C2.801,2.004 1.601,1.284 0.398,0.5685 L0.398,0.5685 C1.601,1.2885 2.801,2.004 4.004,2.724 L4.004,2.724 Z" id="dishessandwich-path-45"/><path d="M0.342,2.8245 C1.1445,2.0235 1.944,1.221 2.748,0.4215 L2.748,0.4215 C1.944,1.221 1.1445,2.0235 0.342,2.8245 L0.342,2.8245 Z" id="dishessandwich-path-47"/><path d="M0.342863636,20.8598639 C2.39872727,59.0072279 45.7226364,61.0107993 23.4294091,16.9914966 L23.4294091,16.9914966 C24.9991364,5.56130952 19.8404545,0.381802721 13.9856818,0.383247997 L13.9856818,0.383247997 C6.97122727,0.384693878 -1.04227273,7.82363946 0.342863636,20.8598639 L0.342863636,20.8598639 Z" id="dishessandwich-path-49"/><path d="M1.3202,41.3934444 C22.4336,71.6068889 25.9924,26.793 27.8684,14.6437778 L27.8684,14.6437778 C24.7534,4.53844444 20.867,0.608111111 17.0002,0.609555158 L17.0002,0.609555158 C6.811,0.611 -3.2438,27.9052222 1.3202,41.3934444 L1.3202,41.3934444 Z" id="dishessandwich-path-51"/><path d="M12.8770667,38.1508703 C26.0350667,32.8731147 60.2186333,8.47135714 31.6265,0.383182331 L31.6265,0.383182331 C15.8856333,3.55812688 -17.5769667,32.7301635 12.8770667,38.1508703 L12.8770667,38.1508703 Z" id="dishessandwich-path-53"/><path d="M12.6767586,39.6014286 C28.3615862,35.9614286 58.2308276,5.43714286 29.5187586,0.667142857 L29.5187586,0.667142857 C13.0171034,5.44142857 -16.8695172,34.1542857 12.6767586,39.6014286 L12.6767586,39.6014286 Z" id="dishessandwich-path-55"/><path d="M21.126,0.108585366 C7.68503846,9.43483902 -14.2502692,37.1654927 13.0571538,41.0864488 L13.0571538,41.0864488 C27.4814615,34.9855902 49.2687692,0.00245853658 23.6661923,0.00389268293 L23.6661923,0.00389268293 C22.8664231,0.00389268293 22.0196923,0.0383121951 21.126,0.108585366 L21.126,0.108585366 Z" id="dishessandwich-path-57"/><path d="M0.425142857,34.5931108 C12.1245714,58.8514027 26.2461905,32.8298651 27.8480952,15.9610973 L27.8480952,15.9610973 C26.2986667,5.2737571 21.4225238,0.204066051 16.1942381,0.204066051 L16.1942381,0.204066051 C8.10738095,0.205504261 -0.823238095,12.3411222 0.425142857,34.5931108 L0.425142857,34.5931108 Z" id="dishessandwich-path-59"/><path d="M10.4997157,36.7922308 C25.6797838,32.6823846 53.6057898,5.45038462 25.7448288,0.294576923 L25.7448288,0.294576923 C9.50669469,5.50446154 -12.4568488,26.7979615 10.4997157,36.7922308 L10.4997157,36.7922308 Z" id="dishessandwich-path-61"/><path d="M27.685,31.688695 C26.474,18.41351 25.0264,1.418805 12.9318,0.049815 L12.9318,0.049815 C-16.9134,2.713175 13.0914,63.413675 27.685,31.688695 L27.685,31.688695 Z" id="dishessandwich-path-63"/><path d="M21.38688,33.8044 C50.02704,32.5906 27.31824,3.4636 12.70944,0.3766 L12.70944,0.3766 C-12.78864,4.8286 6.16032,29.4518 21.38688,33.8044 L21.38688,33.8044 Z" id="dishessandwich-path-65"/><path d="M0.015,22.8707509 C8.54790476,52.5559821 28.8271905,35.0401805 26.5624286,13.3516353 L26.5624286,13.3516353 C24.6484286,4.1956156 20.518,0.480315789 16.0685714,0.480315789 L16.0685714,0.480315789 C8.7702381,0.480315789 0.619857143,10.4811767 0.015,22.8707509 L0.015,22.8707509 Z" id="dishessandwich-path-67"/><path d="M13.4367059,0.99 C11.6352941,9.54692308 2.74541176,11.6709231 0.0249411765,17.6372308 L0.0249411765,17.6372308 C10.0287059,15.9950769 18.0545882,11.4687692 22.6583529,0.99 L22.6583529,0.99 L13.4367059,0.99 Z" id="dishessandwich-path-69"/><path d="M0.399259259,1.85142857 C16.0088704,5.88 27.4148519,14.5814286 40.2210926,3.65714286 L40.2210926,3.65714286 C56.6106852,4.28285714 57.7328889,13.0185714 76.980037,1.58285714 L76.980037,1.58285714 C64.5716296,1.21285714 48.7424259,0.788571429 33.5577407,0.788571429 L33.5577407,0.788571429 C21.3888889,0.788571429 9.63355556,1.06142857 0.399259259,1.85142857 L0.399259259,1.85142857 Z" id="dishessandwich-path-71"/><path d="M0.827925,14.6284615 C1.6929,15.3373846 2.557875,16.0449231 3.42,16.7483077 L3.42,16.7483077 C22.1616,14.2518462 45.4746,9.78369231 56.770575,0.101076923 L56.770575,0.101076923 C38.120175,4.94169231 19.472625,9.78230769 0.827925,14.6284615 L0.827925,14.6284615 Z" id="dishessandwich-path-73"/><path d="M0.758896552,7.88666667 C4.97917241,18.8095556 34.2271034,6.02911111 41.3106207,1.79111111 L41.3106207,1.79111111 C39.1497931,1.13677778 36.8774483,0.862333333 34.5355862,0.862333333 L34.5355862,0.862333333 C23.2766897,0.862333333 10.4131034,7.19044444 0.758896552,7.88666667 L0.758896552,7.88666667 Z" id="dishessandwich-path-75"/><path d="M13.371875,5.5395 C15.530625,5.322 17.540875,5.103 18.998375,5.1945 L18.998375,5.1945 C12.8755,3.7305 6.75125,2.2635 0.628375,0.7995 L0.628375,0.7995 C0.28325,6.744 7.396125,6.141 13.371875,5.5395 L13.371875,5.5395 Z M20.733625,5.61 C20.332125,5.3655 19.73675,5.241 18.998375,5.1945 L18.998375,5.1945 C19.57725,5.3325 20.15475,5.4705 20.733625,5.61 L20.733625,5.61 Z" id="dishessandwich-path-77"/><path d="M0.255714286,6.2692 C6.52714286,4.7026 8.62571429,4.2868 8.24142857,0.658 L8.24142857,0.658 C2.16428571,3.1332 -0.182857143,3.4468 0.255714286,6.2692 L0.255714286,6.2692 Z" id="dishessandwich-path-79"/><path d="M0.598666667,3.968 C4.688,3.4895 5.75866667,3.3635 7.012,3.2195 L7.012,3.2195 C6.57866667,1.2005 5.65066667,0.4895 4.63066667,0.4895 L4.63066667,0.4895 C2.768,0.4895 0.601333333,2.8655 0.598666667,3.968 L0.598666667,3.968 Z" id="dishessandwich-path-81"/><path d="M1.17663158,14.530725 C-5.09873684,48.388725 25.3203158,80.932875 26.0692105,29.168325 L26.0692105,29.168325 L25.9541053,29.168325 C30.0268421,14.08185 20.7260526,0.560025 12.1812632,0.56145 L12.1812632,0.56145 C7.52731579,0.562875 3.09647368,4.57425 1.17663158,14.530725 L1.17663158,14.530725 Z" id="dishessandwich-path-83"/><path d="M1.20221053,34.999345 C8.88868421,64.74756 29.5067368,49.71667 25.3842632,14.939855 L25.3842632,14.939855 C25.8347368,6.22795 20.0169474,0.307785 13.8893684,0.309229736 L13.8893684,0.309229736 C6.14321053,0.309229736 -2.09889474,9.7682 1.20221053,34.999345 L1.20221053,34.999345 Z" id="dishessandwich-path-85"/><path d="M1.48215789,11.3967512 C-4.96373684,41.5898341 27.2273684,55.2443415 26.1175263,22.5042146 L26.1175263,22.5042146 L25.9569474,22.5042146 C28.3571053,8.78803902 20.7857368,0.012497561 13.2328421,0.012497561 L13.2328421,0.012497561 C8.47942105,0.0139317073 3.73168421,3.48886829 1.48215789,11.3967512 L1.48215789,11.3967512 Z" id="dishessandwich-path-87"/><path d="M0.959,30.1396098 C6.8684,52.0375902 27.2818,39.0657366 26.6952,20.1479122 L26.6952,20.1479122 C25.0698,5.81505366 19.9696,0.151609756 14.6748,0.15304363 L14.6748,0.15304363 C6.4106,0.154478049 -2.324,13.9524 0.959,30.1396098 L0.959,30.1396098 Z" id="dishessandwich-path-89"/><path d="M0.773052632,20.4154715 C0.335368421,44.0470591 25.947,43.4818899 25.8233684,18.255976 L25.8233684,18.255976 C25.2378947,6.01305305 19.9188947,0.826794795 14.3284737,0.828239938 L14.3284737,0.828239938 C7.54294737,0.829685686 0.359526316,8.4732012 0.773052632,20.4154715 L0.773052632,20.4154715 Z" id="dishessandwich-path-91"/><path d="M1.11805556,19.9049231 C3.49166667,40.9123077 27.3708333,36.224 24.55,17.3364615 L24.55,17.3364615 C25.6166667,6.55169231 18.7444444,0.00523076923 12.1416667,0.00661516502 L12.1416667,0.00661516502 C5.84027778,0.008 -0.213888889,5.97153846 1.11805556,19.9049231 L1.11805556,19.9049231 Z" id="dishessandwich-path-93"/><path d="M26.481,26.6286458 C26.7582,13.671169 29.6772,1.4100826 15.5456,0.0158598248 L15.5456,0.0158598248 C-21.4228,8.61909387 22.3846,83.7427584 26.481,26.6286458 L26.481,26.6286458 Z" id="dishessandwich-path-95"/><path d="M0.647222222,20.4308276 C-3.63333333,43.1108276 22.1166667,50.0046207 23.6416667,28.854 L23.6416667,28.854 C26.2111111,10.5883448 18.075,0.309931034 10.7625,0.31137931 L10.7625,0.31137931 C5.02222222,0.31137931 -0.211111111,6.64758621 0.647222222,20.4308276 L0.647222222,20.4308276 Z" id="dishessandwich-path-97"/><path d="M1.18231579,16.7496154 C-1.68394737,41.7658846 27.2046316,43.1363077 26.2368947,17.7002308 L26.2368947,17.7002308 C26.0848421,5.85311538 19.4314737,0.0939230769 13.0111579,0.0953458902 L13.0111579,0.0953458902 C6.64910526,0.0953458902 0.517263158,5.7535 1.18231579,16.7496154 L1.18231579,16.7496154 Z" id="dishessandwich-path-99"/><path d="M6.20715789,34.8210989 C19.1174211,40.4152615 25.0091053,24.0642989 26.514,15.9835253 L26.514,15.9835253 C24.6566842,4.73111209 20.4759474,0.505582418 15.984,0.507006234 L15.984,0.507006234 C5.19110526,0.508430769 -7.38805263,24.9031385 6.20715789,34.8210989 L6.20715789,34.8210989 Z" id="dishessandwich-path-101"/><path d="M80.5217975,15.1473004 C67.2721899,26.8807402 48.8374557,38.6127431 18.5119747,20.634688 L18.5119747,20.634688 C-5.10931646,7.39253991 -14.5312278,52.0819158 42.6996962,53.3794049 L42.6996962,53.3794049 C61.5535316,59.3955588 141.667671,17.4865167 102.137696,0.488403483 L102.137696,0.488403483 C101.770089,0.429492017 101.401051,0.399317852 101.030582,0.399317852 L101.030582,0.399317852 C95.1302658,0.400754717 88.8494684,7.77474601 80.5217975,15.1473004 L80.5217975,15.1473004 Z" id="dishessandwich-path-103"/><path d="M8.20694444,0.725 C-5.57361111,5.85555556 0.205555556,23.7527778 12.6305556,23.6638889 L12.6305556,23.6638889 C29.4861111,22.4541667 25.7361111,0.119444444 12.1944444,0.120833333 L12.1944444,0.120833333 C10.9458333,0.120833333 9.61388889,0.311111111 8.20694444,0.725 L8.20694444,0.725 Z" id="dishessandwich-path-105"/><path d="M1.06721053,14.8236111 C5.91015789,27.975 26.0720526,23.3875 25.6443158,11.4222222 L25.6443158,11.4222222 C25.1441053,3.65833333 19.197,0.213888889 13.2001579,0.215277358 L13.2001579,0.215277358 C5.65578947,0.215277358 -1.96957895,5.66527778 1.06721053,14.8236111 L1.06721053,14.8236111 Z" id="dishessandwich-path-107"/><path d="M993.077669,4.504359 C895.884414,27.9432603 802.791522,50.0919469 706.080746,75.0004967 L706.080746,75.0004967 C681.754679,87.4383948 697.710655,75.4391128 710.771755,225.660838 L710.771755,225.660838 C724.460505,423.76719 757.378689,299.788375 607.535411,487.273952 L607.535411,487.273952 C582.501992,518.548131 486.777523,575.441475 519.677205,485.389897 L519.677205,485.389897 C529.608594,444.951775 585.772604,402.46583 557.536889,361.999227 L557.536889,361.999227 C523.871502,302.489851 31.0765079,428.075026 98.2051807,627.827612 L98.2051807,627.827612 C101.46156,640.548901 119.485508,652.220645 103.999202,659.791044 L103.999202,659.791044 C38.9883149,704.216585 -41.074789,797.466642 77.4585695,842.339343 L77.4585695,842.339343 C95.3558485,843.48715 77.4898808,871.199709 86.7309967,899.268289 L86.7309967,899.268289 C21.841085,912.421074 -43.9283909,983.068164 41.8646888,1034.35349 L41.8646888,1034.35349 C64.5469103,1044.06428 57.7921996,1041.14349 55.3926122,1062.39216 L55.3926122,1062.39216 C37.1067879,1186.69139 354.343352,1300.2132 623.505619,1305.38261 L623.505619,1305.38261 C784.565474,1306.88216 1113.47975,1354.13734 1254.84761,1182.19843 L1254.84761,1182.19843 C1274.31046,1160.8401 1281.30427,1128.22302 1287.17942,1106.31073 L1287.17942,1106.31073 C1373.94884,1081.31531 1492.91202,941.727177 1223.08795,925.244897 L1223.08795,925.244897 C1227.28509,899.433482 1221.65617,875.030479 1217.33947,849.234729 L1217.33947,849.234729 C1238.10601,847.708117 1259.07037,849.132195 1279.94081,850.557697 L1279.94081,850.557697 C1324.98787,853.630858 1369.59799,856.706867 1410.85211,830.100816 L1410.85211,830.100816 C1480.38464,779.245563 1435.04724,681.147944 1342.95631,662.210553 L1342.95631,662.210553 C1352.59309,645.910555 1404.70797,607.027527 1380.27231,582.762661 L1380.27231,582.762661 C1355.76549,553.952137 1219.43875,416.982882 1120.02097,406.609897 L1120.02097,406.609897 C1044.23186,416.346319 1007.08238,524.883855 907.623321,554.111633 L907.623321,554.111633 C858.374849,568.657167 909.180349,496.218587 925.41528,475.508219 L925.41528,475.508219 C973.140883,416.478758 1061.39333,347.764142 778.269047,358.219723 L778.269047,358.219723 C737.232686,360.434165 750.974096,365.391381 744.215115,303.345722 L744.215115,303.345722 C742.216882,281.860656 737.645426,296.410462 944.690258,254.432912 L944.690258,254.432912 C1035.99413,230.519793 1093.13734,279.1663 1055.0172,143.998504 L1055.0172,143.998504 C1044.23471,116.714592 1056.10029,0.759033623 1009.15177,0.759033623 L1009.15177,0.759033623 C1004.42091,0.759033623 999.086601,1.93817028 993.077669,4.504359 L993.077669,4.504359 Z M1006.08611,27.043243 C1022.72809,23.1925358 1020.41389,130.16501 1042.76308,211.348854 L1042.76308,211.348854 C950.677841,231.526616 836.85257,250.743126 740.369513,262.773738 L740.369513,262.773738 C729.789126,39.280346 635.384004,127.440748 1006.08611,27.043243 L1006.08611,27.043243 Z M134.382591,537.007031 C176.768187,482.577343 234.244426,448.550421 295.547766,421.991364 L295.547766,421.991364 C771.72213,266.286938 371.736803,500.147618 522.200615,558.608872 L522.200615,558.608872 C618.50292,558.281334 655.844543,444.732467 725.16501,394.895431 L725.16501,394.895431 C725.16501,395.39813 725.16501,448.89932 725.16501,458.842233 L725.16501,458.842233 C722.197548,464.417499 681.080062,473.397735 694.683417,492.585764 L694.683417,492.585764 C702.534025,500.478004 711.076329,495.600537 719.160348,490.723069 L719.160348,490.723069 C724.222823,487.666998 729.105969,484.61235 733.526562,484.693523 L733.526562,484.693523 C738.839527,482.923394 745.237004,485.095113 751.337023,487.265408 L751.337023,487.265408 C762.253295,491.150293 772.218842,495.036602 773.316162,476.329912 L773.316162,476.329912 C743.536229,435.065825 751.204661,500.752851 750.090262,387.814914 L750.090262,387.814914 C1112.85352,368.329254 866.002007,418.214709 862.318655,557.597777 L862.318655,557.597777 C904.132107,641.653986 1039.57074,486.339757 1088.57157,446.485508 L1088.57157,446.485508 C1138.08761,393.252044 1282.09275,521.779364 1346.82468,582.228631 L1346.82468,582.228631 C1387.73011,604.96119 1277.9013,709.845965 1153.83295,733.168092 L1153.83295,733.168092 C1104.64425,752.471471 915.099616,773.267283 711.397982,773.267283 L711.397982,773.267283 C393.787105,773.261587 41.8319542,722.684029 134.382591,537.007031 L134.382591,537.007031 Z M106.690555,821.599069 C-13.062523,802.519271 59.3577668,720.077966 128.570067,672.50379 L128.570067,672.50379 C261.660354,821.469478 808.095948,817.439337 1093.81907,771.947163 L1093.81907,771.947163 C1157.23735,759.180303 1221.43272,746.659808 1278.02512,714.051268 L1278.02512,714.051268 C1307.4464,700.911299 1317.66955,653.724472 1396.28237,717.460511 L1396.28237,717.460511 C1472.19957,827.548868 1346.75352,826.475113 1256.47153,825.404206 L1256.47153,825.404206 C1237.43424,825.177778 1219.96108,824.951349 1206.26806,825.767346 L1206.26806,825.767346 C1146.69966,841.726989 1108.68911,898.890908 1042.42719,897.939624 L1042.42719,897.939624 C986.266029,904.776623 954.47363,892.268945 927.007889,879.759843 L927.007889,879.759843 C881.575131,859.067988 847.979483,838.377557 735.499176,905.24372 L735.499176,905.24372 C715.573776,915.789018 698.551792,919.98008 678.196572,917.114835 L678.196572,917.114835 C641.361624,909.973084 616.456297,891.198038 583.570847,876.417531 L583.570847,876.417531 C532.813737,861.192713 497.447575,869.188911 464.747147,877.183685 L464.747147,877.183685 C411.312917,890.248178 364.994902,903.314094 270.276666,815.056855 L270.276666,815.056855 C237.897891,800.027134 204.400447,806.951002 169.90104,813.877718 L169.90104,813.877718 C150.526435,817.766875 130.834447,821.656033 110.847847,821.656033 L110.847847,821.656033 C109.464455,821.656033 108.078216,821.63752 106.690555,821.599069 L106.690555,821.599069 Z M111.1083,850.77843 C122.904137,841.527618 138.329243,847.725206 153.651876,842.165605 L153.651876,842.165605 C307.114461,807.044991 235.562349,864.543568 372.371569,908.252797 L372.371569,908.252797 C399.746222,914.229653 418.641195,912.735795 445.45082,906.956886 L445.45082,906.956886 C586.88131,854.325808 702.889836,968.760451 545.053626,977.794803 L545.053626,977.794803 C495.627248,966.491895 62.3935438,976.389238 111.1083,850.77843 L111.1083,850.77843 Z M1192.77288,857.282194 C1210.35419,944.596694 1205.54648,979.540722 1024.26377,972.668121 L1024.26377,972.668121 C966.922735,961.566009 836.327393,976.736713 869.352321,884.427971 L869.352321,884.427971 C925.825174,910.481479 971.948206,925.596644 1017.77947,925.593796 L1017.77947,925.593796 C1071.22224,925.589524 1124.26223,905.028684 1192.77288,857.282194 L1192.77288,857.282194 Z M843.617243,884.768325 C838.675744,900.228117 847.34614,923.352297 827.409354,919.199685 L827.409354,919.199685 C763.609646,920.162362 705.679392,960.932294 642.631156,950.549341 L642.631156,950.549341 C643.709974,944.952714 644.61658,940.24756 645.61285,935.078156 L645.61285,935.078156 C660.102886,940.673359 673.452904,943.040177 686.19662,943.040177 L686.19662,943.040177 C737.050511,943.040177 778.242006,905.349102 843.617243,884.768325 L843.617243,884.768325 Z M383.926878,1072.2653 C277.017144,1062.53315 172.676363,1063.2224 72.0160888,1019.9233 L72.0160888,1019.9233 C-26.0780789,989.151825 64.240913,907.821302 108.226234,929.497194 L108.226234,929.497194 C155.040961,968.96267 363.479148,997.126663 558.712487,1002.64781 L558.712487,1002.64781 C588.411296,1003.09355 612.996393,993.367097 633.701731,975.584633 L633.701731,975.584633 C707.005854,987.062703 773.03009,943.517243 842.844423,943.272302 L842.844423,943.272302 C857.859635,990.292512 1033.13484,1006.57827 1124.19534,994.870923 L1124.19534,994.870923 C1159.56008,990.568783 1197.86808,982.499957 1216.6492,951.140333 L1216.6492,951.140333 C1328.45062,951.15315 1451.47288,1002.09812 1279.83264,1082.23242 L1279.83264,1082.23242 C1184.82549,1113.71878 1048.88018,1093.51966 895.678044,1091.94463 L895.678044,1091.94463 C854.614641,1092.98563 813.760455,1093.56381 772.984547,1093.56381 L772.984547,1093.56381 C643.163449,1093.56381 514.358547,1087.69945 383.926878,1072.2653 L383.926878,1072.2653 Z M207.518772,1190.72581 C168.990164,1169.92715 60.8265534,1121.20089 83.380683,1051.41822 L83.380683,1051.41822 C165.17445,1085.88375 498.725647,1123.30425 909.419454,1117.50114 L909.419454,1117.50114 C1027.29385,1118.18327 1144.30719,1136.09105 1259.43188,1114.63447 L1259.43188,1114.63447 C1235.41892,1221.906 1077.30234,1275.51826 947.741691,1283.47174 L947.741691,1283.47174 C892.050198,1284.53695 835.982969,1285.68903 779.883005,1285.68903 L779.883005,1285.68903 C584.093177,1285.68903 388.057129,1271.63765 207.518772,1190.72581 L207.518772,1190.72581 Z" id="dishessandwich-path-109"/></defs><g id="Dishes/Sandwich" stroke="none" stroke-width="1" fill="none" fill-rule="evenodd"><g id="Sandwich" transform="translate(228.000000, 283.000000)"><g id="Group-3" transform="translate(107.000000, 365.000000)"><mask id="dishessandwich-mask-2" fill="#fff"><use xlink:href="#dishessandwich-path-1"/></mask><g id="Clip-2"/><polygon id="Fill-1" fill="#fbea8a" mask="url(#dishessandwich-mask-2)" points="3.61519215 411.672223 1256.95294 411.672223 1256.95294 -9.74277498 3.61519215 -9.74277498"/></g><g id="Group-6" transform="translate(76.000000, 1050.000000)"><mask id="dishessandwich-mask-4" fill="#fff"><use xlink:href="#dishessandwich-path-3"/></mask><g id="Clip-5"/><polygon id="Fill-4" fill="#fbea8a" mask="url(#dishessandwich-mask-4)" points="-2.59479227 239.789727 1187.59761 239.789727 1187.59761 -9.08666667 -2.59479227 -9.08666667"/></g><g id="Group-9" transform="translate(40.000000, 667.000000)"><mask id="dishessandwich-mask-6" fill="#fff"><use xlink:href="#dishessandwich-path-5"/></mask><g id="Clip-8"/><polygon id="Fill-7" fill="#ebf2cd" mask="url(#dishessandwich-mask-6)" points="-4.78594118 254.952363 1384.627 254.952363 1384.627 -5.00461252 -4.78594118 -5.00461252"/></g><g id="Group-12" transform="translate(24.000000, 924.000000)"><mask id="dishessandwich-mask-8" fill="#fff"><use xlink:href="#dishessandwich-path-7"/></mask><g id="Clip-11"/><polygon id="Fill-10" fill="#8e3e3a" mask="url(#dishessandwich-mask-8)" points="-3.9637056 178.586453 1346.11941 178.586453 1346.11941 -5.50724393 -3.9637056 -5.50724393"/></g><g id="Group-15" transform="translate(73.000000, 907.000000)"><mask id="dishessandwich-mask-10" fill="#fff"><use xlink:href="#dishessandwich-path-9"/></mask><g id="Clip-14"/><polygon id="Fill-13" fill="#ecf3d0" mask="url(#dishessandwich-mask-10)" points="-4.4395608 132.289422 1212.20798 132.289422 1212.20798 -4.51128889 -4.4395608 -4.51128889"/></g><g id="Group-18" transform="translate(704.000000, 19.000000)"><mask id="dishessandwich-mask-12" fill="#fff"><use xlink:href="#dishessandwich-path-11"/></mask><g id="Clip-17"/><polygon id="Fill-16" fill="#febdba" mask="url(#dishessandwich-mask-12)" points="-5.47093852 253.21324 352.470939 253.21324 352.470939 -6.14641058 -5.47093852 -6.14641058"/></g><g id="Group-21" transform="translate(103.000000, 827.000000)"><mask id="dishessandwich-mask-14" fill="#fff"><use xlink:href="#dishessandwich-path-13"/></mask><g id="Clip-20"/><polygon id="Fill-19" fill="#fd8079" mask="url(#dishessandwich-mask-14)" points="0.0249611268 153.785852 522.519697 153.785852 522.519697 -5.80801593 0.0249611268 -5.80801593"/></g><g id="Group-24" transform="translate(505.000000, 361.000000)"><mask id="dishessandwich-mask-16" fill="#fff"><use xlink:href="#dishessandwich-path-15"/></mask><g id="Clip-23"/><polygon id="Fill-22" fill="#eef4d3" mask="url(#dishessandwich-mask-16)" points="-9.29068468 185.886112 321.594054 185.886112 321.594054 -8.15952 -9.29068468 -8.15952"/></g><g id="Group-27" transform="translate(873.000000, 382.000000)"><mask id="dishessandwich-mask-18" fill="#fff"><use xlink:href="#dishessandwich-path-17"/></mask><g id="Clip-26"/><polygon id="Fill-25" fill="#eef4d3" mask="url(#dishessandwich-mask-18)" points="-4.56909189 188.82535 267.779492 188.82535 267.779492 -5.55901512 -4.56909189 -5.55901512"/></g><g id="Group-30" transform="translate(862.000000, 851.000000)"><mask id="dishessandwich-mask-20" fill="#fff"><use xlink:href="#dishessandwich-path-19"/></mask><g id="Clip-29"/><polygon id="Fill-28" fill="#fd8079" mask="url(#dishessandwich-mask-20)" points="-4.59204819 126.346652 358.936096 126.346652 358.936096 -4.91107609 -4.59204819 -4.91107609"/></g><g id="Group-33" transform="translate(635.000000, 882.000000)"><mask id="dishessandwich-mask-22" fill="#fff"><use xlink:href="#dishessandwich-path-21"/></mask><g id="Clip-32"/><polygon id="Fill-31" fill="#febdb9" mask="url(#dishessandwich-mask-22)" points="-5.31649045 77.1511203 228.084968 77.1511203 228.084968 -7.29224269 -5.31649045 -7.29224269"/></g><g id="Group-36" transform="translate(961.000000, 915.000000)"><mask id="dishessandwich-mask-24" fill="#fff"><use xlink:href="#dishessandwich-path-23"/></mask><g id="Clip-35"/><polygon id="Fill-34" fill="#d85f58" mask="url(#dishessandwich-mask-24)" points="-4.85138889 44.642 30.7736111 44.642 30.7736111 -5.14511111 -4.85138889 -5.14511111"/></g><g id="Group-39" transform="translate(895.000000, 26.000000)"><mask id="dishessandwich-mask-26" fill="#fff"><use xlink:href="#dishessandwich-path-25"/></mask><g id="Clip-38"/><polygon id="Fill-37" fill="#fd7b73" mask="url(#dishessandwich-mask-26)" points="-5.66147368 24.36 86.6046316 24.36 86.6046316 -5.41285714 -5.66147368 -5.41285714"/></g><g id="Group-42" transform="translate(726.000000, 217.000000)"><mask id="dishessandwich-mask-28" fill="#fff"><use xlink:href="#dishessandwich-path-27"/></mask><g id="Clip-41"/><polygon id="Fill-40" fill="#e5645d" mask="url(#dishessandwich-mask-28)" points="-5.16714286 29.2574118 15.4442857 29.2574118 15.4442857 -4.69129412 -5.16714286 -4.69129412"/></g><g id="Group-45" transform="translate(631.000000, 933.000000)"><mask id="dishessandwich-mask-30" fill="#fff"><use xlink:href="#dishessandwich-path-29"/></mask><g id="Clip-44"/><polygon id="Fill-43" fill="#c1554f" mask="url(#dishessandwich-mask-30)" points="-5.35876923 26.4684 22.3875385 26.4684 22.3875385 -4.9518 -5.35876923 -4.9518"/></g><g id="Group-48" transform="translate(840.000000, 905.000000)"><mask id="dishessandwich-mask-32" fill="#fff"><use xlink:href="#dishessandwich-path-31"/></mask><g id="Clip-47"/><polygon id="Fill-46" fill="#c1554f" mask="url(#dishessandwich-mask-32)" points="-4.71818182 22.5193846 19.3295455 22.5193846 19.3295455 -5.22692308 -4.71818182 -5.22692308"/></g><g id="Group-51" transform="translate(725.000000, 68.000000)"><mask id="dishessandwich-mask-34" fill="#fff"><use xlink:href="#dishessandwich-path-33"/></mask><g id="Clip-50"/><polygon id="Fill-49" fill="#e5645d" mask="url(#dishessandwich-mask-34)" points="-4.7866 15.261125 25.5136 15.261125 25.5136 -4.577375 -4.7866 -4.577375"/></g><g id="Group-54" transform="translate(810.000000, 880.000000)"><mask id="dishessandwich-mask-36" fill="#fff"><use xlink:href="#dishessandwich-path-35"/></mask><g id="Clip-53"/><polygon id="Fill-52" fill="#f16a62" mask="url(#dishessandwich-mask-36)" points="-4.6214 15.151125 32.4114 15.151125 32.4114 -4.68875 -4.6214 -4.68875"/></g><g id="Group-57" transform="translate(520.000000, 358.000000)"><mask id="dishessandwich-mask-38" fill="#fff"><use xlink:href="#dishessandwich-path-37"/></mask><g id="Clip-56"/><polygon id="Fill-55" fill="#ecf3d0" mask="url(#dishessandwich-mask-38)" points="-5.04818182 8.92 20.0918182 8.92 20.0918182 -4.97333333 -5.04818182 -4.97333333"/></g><g id="Group-60" transform="translate(829.000000, 371.000000)"><mask id="dishessandwich-mask-40" fill="#fff"><use xlink:href="#dishessandwich-path-39"/></mask><g id="Clip-59"/><polygon id="Fill-58" fill="#eef4d3" mask="url(#dishessandwich-mask-40)" points="-4.74 10.965 19.3077273 10.965 19.3077273 -5.868 -4.74 -5.868"/></g><g id="Group-63" transform="translate(106.000000, 922.000000)"><mask id="dishessandwich-mask-42" fill="#fff"><use xlink:href="#dishessandwich-path-41"/></mask><g id="Clip-62"/><polygon id="Fill-61" fill="#d59757" mask="url(#dishessandwich-mask-42)" points="-5.511 11.2065 11.322 11.2065 11.322 -5.628 -5.511 -5.628"/></g><g id="Group-66" transform="translate(807.000000, 888.000000)"><mask id="dishessandwich-mask-44" fill="#fff"><use xlink:href="#dishessandwich-path-43"/></mask><g id="Clip-65"/><polygon id="Fill-64" fill="#f16a62" mask="url(#dishessandwich-mask-44)" points="-4.94 8.7045 8.95333333 8.7045 8.95333333 -5.6715 -4.94 -5.6715"/></g><g id="Group-69" transform="translate(1263.000000, 951.000000)"><mask id="dishessandwich-mask-46" fill="#fff"><use xlink:href="#dishessandwich-path-45"/></mask><g id="Clip-68"/><polygon id="Fill-67" fill="#8e3e3a" mask="url(#dishessandwich-mask-46)" points="-5.614 8.7345 10.016 8.7345 10.016 -5.4435 -5.614 -5.4435"/></g><g id="Group-72" transform="translate(1043.000000, 215.000000)"><mask id="dishessandwich-mask-48" fill="#fff"><use xlink:href="#dishessandwich-path-47"/></mask><g id="Clip-71"/><polygon id="Fill-70" fill="#dd615a" mask="url(#dishessandwich-mask-48)" points="-5.67 8.8365 8.7585 8.8365 8.7585 -5.592 -5.67 -5.592"/></g><g id="Group-75" transform="translate(843.000000, 418.000000)"><mask id="dishessandwich-mask-50" fill="#fff"><use xlink:href="#dishessandwich-path-49"/></mask><g id="Clip-74"/><polygon id="Fill-73" fill="#93413c" mask="url(#dishessandwich-mask-50)" points="-5.30477273 55.987415 36.4860455 55.987415 36.4860455 -5.42508503 -5.30477273 -5.42508503"/></g><g id="Group-78" transform="translate(1075.000000, 492.000000)"><mask id="dishessandwich-mask-52" fill="#fff"><use xlink:href="#dishessandwich-path-51"/></mask><g id="Clip-77"/><polygon id="Fill-76" fill="#93413c" mask="url(#dishessandwich-mask-52)" points="-5.7918 56.823 33.4852 56.823 33.4852 -4.54133333 -5.7918 -4.54133333"/></g><g id="Group-81" transform="translate(406.000000, 418.000000)"><mask id="dishessandwich-mask-54" fill="#fff"><use xlink:href="#dishessandwich-path-53"/></mask><g id="Clip-80"/><polygon id="Fill-79" fill="#93413c" mask="url(#dishessandwich-mask-54)" points="-5.53266667 43.8903581 48.4667333 43.8903581 48.4667333 -5.38203665 -5.53266667 -5.38203665"/></g><g id="Group-84" transform="translate(287.000000, 495.000000)"><mask id="dishessandwich-mask-56" fill="#fff"><use xlink:href="#dishessandwich-path-55"/></mask><g id="Clip-83"/><polygon id="Fill-82" fill="#94413c" mask="url(#dishessandwich-mask-56)" points="-6.11606897 45.3271429 47.2847586 45.3271429 47.2847586 -5.05857143 -6.11606897 -5.05857143"/></g><g id="Group-87" transform="translate(653.000000, 524.000000)"><mask id="dishessandwich-mask-58" fill="#fff"><use xlink:href="#dishessandwich-path-57"/></mask><g id="Clip-86"/><polygon id="Fill-85" fill="#95413d" mask="url(#dishessandwich-mask-58)" points="-6.29384615 46.8345073 41.6154615 46.8345073 41.6154615 -6.04533659 -6.29384615 -6.04533659"/></g><g id="Group-90" transform="translate(770.000000, 556.000000)"><mask id="dishessandwich-mask-60" fill="#fff"><use xlink:href="#dishessandwich-path-59"/></mask><g id="Clip-89"/><polygon id="Fill-88" fill="#94413c" mask="url(#dishessandwich-mask-60)" points="-5.35966667 49.9172408 33.3829524 49.9172408 33.3829524 -5.41933594 -5.35966667 -5.41933594"/></g><g id="Group-93" transform="translate(961.000000, 595.000000)"><mask id="dishessandwich-mask-62" fill="#fff"><use xlink:href="#dishessandwich-path-61"/></mask><g id="Clip-92"/><polygon id="Fill-91" fill="#94413c" mask="url(#dishessandwich-mask-62)" points="-6.20674274 42.4959231 43.6148709 42.4959231 43.6148709 -5.41338462 -6.20674274 -5.41338462"/></g><g id="Group-96" transform="translate(424.000000, 552.000000)"><mask id="dishessandwich-mask-64" fill="#fff"><use xlink:href="#dishessandwich-path-63"/></mask><g id="Clip-95"/><polygon id="Fill-94" fill="#95413d" mask="url(#dishessandwich-mask-64)" points="-5.6476 46.05448 33.6294 46.05448 33.6294 -5.707405 -5.6476 -5.707405"/></g><g id="Group-99" transform="translate(1178.000000, 496.000000)"><mask id="dishessandwich-mask-66" fill="#fff"><use xlink:href="#dishessandwich-path-65"/></mask><g id="Clip-98"/><polygon id="Fill-97" fill="#97423e" mask="url(#dishessandwich-mask-66)" points="-6.03936 39.6536 41.28624 39.6536 41.28624 -5.2346 -6.03936 -5.2346"/></g><g id="Group-102" transform="translate(1121.000000, 582.000000)"><mask id="dishessandwich-mask-68" fill="#fff"><use xlink:href="#dishessandwich-path-67"/></mask><g id="Clip-101"/><polygon id="Fill-100" fill="#95413d" mask="url(#dishessandwich-mask-68)" points="-5.51985714 44.0947049 32.116619 44.0947049 32.116619 -5.17626034 -5.51985714 -5.17626034"/></g><g id="Group-105" transform="translate(535.000000, 385.000000)"><mask id="dishessandwich-mask-70" fill="#fff"><use xlink:href="#dishessandwich-path-69"/></mask><g id="Clip-104"/><polygon id="Fill-103" fill="#fefefc" mask="url(#dishessandwich-mask-70)" points="-5.63341176 23.1867692 28.3152941 23.1867692 28.3152941 -4.55953846 -5.63341176 -4.55953846"/></g><g id="Group-108" transform="translate(646.000000, 951.000000)"><mask id="dishessandwich-mask-72" fill="#fff"><use xlink:href="#dishessandwich-path-71"/></mask><g id="Clip-107"/><polygon id="Fill-106" fill="#a44843" mask="url(#dishessandwich-mask-72)" points="-5.31442593 15.3085714 82.6951481 15.3085714 82.6951481 -6.44857143 -5.31442593 -6.44857143"/></g><g id="Group-111" transform="translate(718.000000, 936.000000)"><mask id="dishessandwich-mask-74" fill="#fff"><use xlink:href="#dishessandwich-path-73"/></mask><g id="Clip-110"/><polygon id="Fill-109" fill="#c1554f" mask="url(#dishessandwich-mask-74)" points="-4.883475 22.2992308 62.50905 22.2992308 62.50905 -5.44846154 -4.883475 -5.44846154"/></g><g id="Group-114" transform="translate(782.000000, 925.000000)"><mask id="dishessandwich-mask-76" fill="#fff"><use xlink:href="#dishessandwich-path-75"/></mask><g id="Clip-113"/><polygon id="Fill-112" fill="#ab4b46" mask="url(#dishessandwich-mask-76)" points="-5.12544828 17.1643333 47.1153103 17.1643333 47.1153103 -5.99155556 -5.12544828 -5.99155556"/></g><g id="Group-117" transform="translate(914.000000, 977.000000)"><mask id="dishessandwich-mask-78" fill="#fff"><use xlink:href="#dishessandwich-path-77"/></mask><g id="Clip-116"/><polygon id="Fill-115" fill="#d59757" mask="url(#dishessandwich-mask-78)" points="-5.718625 11.6205 26.244625 11.6205 26.244625 -5.2125 -5.718625 -5.2125"/></g><g id="Group-120" transform="translate(775.000000, 933.000000)"><mask id="dishessandwich-mask-80" fill="#fff"><use xlink:href="#dishessandwich-path-79"/></mask><g id="Clip-119"/><polygon id="Fill-118" fill="#f16a62" mask="url(#dishessandwich-mask-80)" points="-5.5 11.8804 13.9671429 11.8804 13.9671429 -4.9518 -5.5 -4.9518"/></g><g id="Group-123" transform="translate(1203.000000, 959.000000)"><mask id="dishessandwich-mask-82" fill="#fff"><use xlink:href="#dishessandwich-path-81"/></mask><g id="Clip-122"/><polygon id="Fill-121" fill="#d59757" mask="url(#dishessandwich-mask-82)" points="-4.74533333 9.9785 12.3546667 9.9785 12.3546667 -5.653 -4.74533333 -5.653"/></g><g id="Group-126" transform="translate(153.000000, 845.000000)"><mask id="dishessandwich-mask-84" fill="#fff"><use xlink:href="#dishessandwich-path-83"/></mask><g id="Clip-125"/><polygon id="Fill-124" fill="#d85f58" mask="url(#dishessandwich-mask-84)" points="-4.55589474 61.32345 31.8941053 61.32345 31.8941053 -4.926225 -4.55589474 -4.926225"/></g><g id="Group-129" transform="translate(220.000000, 858.000000)"><mask id="dishessandwich-mask-86" fill="#fff"><use xlink:href="#dishessandwich-path-85"/></mask><g id="Clip-128"/><polygon id="Fill-127" fill="#d85f58" mask="url(#dishessandwich-mask-86)" points="-5.27921053 56.128135 31.1707895 56.128135 31.1707895 -5.2598 -5.27921053 -5.2598"/></g><g id="Group-132" transform="translate(286.000000, 885.000000)"><mask id="dishessandwich-mask-88" fill="#fff"><use xlink:href="#dishessandwich-path-87"/></mask><g id="Clip-131"/><polygon id="Fill-130" fill="#d85f58" mask="url(#dishessandwich-mask-88)" points="-4.58005263 47.2618829 31.8699474 47.2618829 31.8699474 -5.61939512 -4.58005263 -5.61939512"/></g><g id="Group-135" transform="translate(466.000000, 913.000000)"><mask id="dishessandwich-mask-90" fill="#fff"><use xlink:href="#dishessandwich-path-89"/></mask><g id="Clip-134"/><polygon id="Fill-133" fill="#d85f58" mask="url(#dishessandwich-mask-90)" points="-4.7264 47.3178146 32.3064 47.3178146 32.3064 -5.56202927 -4.7264 -5.56202927"/></g><g id="Group-138" transform="translate(546.000000, 909.000000)"><mask id="dishessandwich-mask-92" fill="#fff"><use xlink:href="#dishessandwich-path-91"/></mask><g id="Clip-137"/><polygon id="Fill-136" fill="#d95f58" mask="url(#dishessandwich-mask-92)" points="-4.92252632 43.5035716 31.5274737 43.5035716 31.5274737 -5.15879479 -4.92252632 -5.15879479"/></g><g id="Group-141" transform="translate(374.000000, 917.000000)"><mask id="dishessandwich-mask-94" fill="#fff"><use xlink:href="#dishessandwich-path-93"/></mask><g id="Clip-140"/><polygon id="Fill-139" fill="#d95f58" mask="url(#dishessandwich-mask-94)" points="-4.58888889 39.5733846 31.0361111 39.5733846 31.0361111 -5.932 -4.58888889 -5.932"/></g><g id="Group-144" transform="translate(1159.000000, 890.000000)"><mask id="dishessandwich-mask-96" fill="#fff"><use xlink:href="#dishessandwich-path-95"/></mask><g id="Clip-143"/><polygon id="Fill-142" fill="#d85f58" mask="url(#dishessandwich-mask-96)" points="-4.2266 52.0216671 32.8062 52.0216671 32.8062 -5.7628836 -4.2266 -5.7628836"/></g><g id="Group-147" transform="translate(1112.000000, 912.000000)"><mask id="dishessandwich-mask-98" fill="#fff"><use xlink:href="#dishessandwich-path-97"/></mask><g id="Clip-146"/><polygon id="Fill-145" fill="#d85f58" mask="url(#dishessandwich-mask-98)" points="-5.11805556 47.6569655 29.3944444 47.6569655 29.3944444 -5.74386207 -5.11805556 -5.74386207"/></g><g id="Group-150" transform="translate(1044.000000, 925.000000)"><mask id="dishessandwich-mask-100" fill="#fff"><use xlink:href="#dishessandwich-path-99"/></mask><g id="Clip-149"/><polygon id="Fill-148" fill="#d85f58" mask="url(#dishessandwich-mask-100)" points="-4.51326316 42.0063846 31.9367368 42.0063846 31.9367368 -5.90292308 -4.51326316 -5.90292308"/></g><g id="Group-153" transform="translate(894.000000, 904.000000)"><mask id="dishessandwich-mask-102" fill="#fff"><use xlink:href="#dishessandwich-path-101"/></mask><g id="Clip-152"/><polygon id="Fill-151" fill="#d95f58" mask="url(#dishessandwich-mask-102)" points="-5.38010526 41.7112615 32.2095789 41.7112615 32.2095789 -5.09427692 -5.38010526 -5.09427692"/></g><g id="Group-156" transform="translate(813.000000, 147.000000)"><mask id="dishessandwich-mask-104" fill="#fff"><use xlink:href="#dishessandwich-path-103"/></mask><g id="Clip-155"/><polygon id="Fill-154" fill="#000000" mask="url(#dishessandwich-mask-104)" points="-6.43527848 59.1383599 118.539861 59.1383599 118.539861 -5.35963716 -6.43527848 -5.35963716"/></g><g id="Group-159" transform="translate(816.000000, 103.000000)"><mask id="dishessandwich-mask-106" fill="#fff"><use xlink:href="#dishessandwich-path-105"/></mask><g id="Clip-158"/><polygon id="Fill-157" fill="#000000" mask="url(#dishessandwich-mask-106)" points="-5.68611111 29.2291667 29.9388889 29.2291667 29.9388889 -5.28333333 -5.68611111 -5.28333333"/></g><g id="Group-162" transform="translate(887.000000, 94.000000)"><mask id="dishessandwich-mask-108" fill="#fff"><use xlink:href="#dishessandwich-path-107"/></mask><g id="Clip-161"/><polygon id="Fill-160" fill="#000000" mask="url(#dishessandwich-mask-108)" points="-5.10868421 28.6569444 31.3413158 28.6569444 31.3413158 -5.85555556 -5.10868421 -5.85555556"/></g><g id="Group-165"><mask id="dishessandwich-mask-110" fill="#fff"><use xlink:href="#dishessandwich-path-109"/></mask><g id="Clip-164"/><polygon id="Fill-163" fill="#000000" mask="url(#dishessandwich-mask-110)" points="-4.26972858 1313 1450.24462 1313 1450.24462 -9.35761714 -4.26972858 -9.35761714"/></g></g></g></g></g></svg>