<svg viewBox="247.08749999999986 384.08549222797933 1302.8250000000003 1010.7512953367873" xmlns="http://www.w3.org/2000/svg" overflow="visible" xmlns:xlink="http://www.w3.org/1999/xlink" width="1302.8250000000003px" height="1010.7512953367873px"><g id="Master/Solo/Bowl" stroke="none" stroke-width="1" fill="none" fill-rule="evenodd"><g id="Group" transform="translate(269.000000, 394.000000)"><g id="Bowl Plate" transform="translate(0.000000, 149.000000) scale(1 1)"><g id="Bowl Plate/Blue Drops" stroke="none" stroke-width="1" fill="none" fill-rule="evenodd"><g id="Bowl-Blue" transform="translate(0.000000, 1.000000)"><g id="Color" transform="translate(22.000000, 21.000000)"><path d="M39,220.811595 C100.994028,-57.9570903 1173.84232,-75.390871 1196.97503,183.423328 C1201.87688,513.697274 483.592872,476.792952 280.004152,418.402312 C166.978894,394.653654 55.4368607,335.36857 39,220.811595" id="Fill-1" fill="#e0ebb1"/><path d="M1196.55653,266.166968 C1208.04156,687.575595 995.773335,790.322911 638.187377,802.031076 C234.212414,821.755547 -88.833148,697.059195 22.0518253,256.583624 C90.2899434,434.648523 308.845395,452.446351 474.67342,473.636804 C702.641343,496.614783 1127.82226,474.971543 1195.67054,243 C1197.66697,248.858676 1196.20738,257.113844 1196.62347,266.166968 L1196.55653,266.166968 Z" id="Fill-3" fill="#b3be80"/></g><g id="Outline" transform="translate(-0.000000, 0.000000)"><g id="Group-3" fill="#000000"><path d="M45.7245867,279.835641 C-62.4373701,727.04246 265.211667,831.510076 625.551997,823.950307 C807.876127,817.468821 998.327566,801.129502 1111.30828,674.68877 C1210.13922,564.114381 1219.55537,409.711678 1216.36339,268.822224 C1209.8694,280.985983 1205.94393,301.816618 1197.06742,315.332488 C1058.98832,540.453747 561.122945,515.423969 376.265662,480.465608 C231.938823,454.58421 96.3103644,418.958965 45.7245867,279.835641 M626.071987,25.2037704 C244.144847,35.9394278 -105.436787,191.649696 158.639807,384.785405 C326.09902,485.716831 656.037587,483.705696 759.104422,474.633974 C924.027863,468.890122 1258.07789,385.574136 1188.09922,170.313331 C1087.24332,14.9948074 728.30317,23.1192657 626.071987,25.2037704 M1241.86257,331.006233 C1235.2638,756.792835 987.845238,838.173678 634.596164,848.176942 C101.894041,865.032474 -84.3162658,621.884377 34.3319482,234.611979 C134.632487,-5.53317407 637.362461,-9.55675278 825.051532,4.6391037 C1246.67477,43.8608074 1237.7236,199.466261 1241.86257,331.006233" id="Fill-1"/></g><path d="M525.816325,578.816494 C525.049534,565.700381 512.264524,523.858317 538.245048,536.275503 C566.350384,613.470147 517.020176,611.046316 525.816325,578.816494" id="Fill-8" fill="#ffffff"/><path d="M113.42223,589.667047 C110.881069,572.145589 121.438957,542.957117 135.397174,567.285642 C134.269355,582.115416 134.091552,598.207939 137,615.148402 C123.402582,640.153445 110.480038,605.90351 113.42223,589.667047" id="Fill-10" fill="#ffffff"/><path d="M985,555.731798 C969.355952,598.675618 946.039386,505.167501 960.590491,503.274783 C980.291835,493.091959 980.978791,546.99266 985,555.731798" id="Fill-12" fill="#ffffff"/><path d="M931.572653,608.92738 C937.2074,576.004023 956.014451,600.852605 954.034081,623.094226 C970.138159,659.291989 949.469664,666.568448 940.936752,648.483308 C935.824243,635.338569 932.556374,624.44482 931,609.003286 C931.190022,608.977111 931.38263,608.953554 931.572653,608.92738" id="Fill-14" fill="#ffffff"/><path d="M646,560.524771 C665.009719,505.528077 689.889149,638.367681 652.964378,602.880646 C648.09357,589.611924 648.541812,575.179347 646,560.524771" id="Fill-16" fill="#ffffff"/><path d="M568,764.039744 C571.271091,750.828279 566.5372,708.300592 588.913343,721.514683 C601.953382,740.1596 580.729748,813.762586 568,764.039744" id="Fill-18" fill="#ffffff"/><path d="M236,497.463151 C253.474029,437.251154 280.511325,575.029316 243.467119,535.875088 C239.622649,525.153103 237.45431,510.96971 236,497.463151" id="Fill-20" fill="#ffffff"/><path d="M208.659228,608.72566 C204.871129,594.11283 218.17717,573.066958 228.943003,593.455677 C228.690811,609.201214 236.375465,641.451345 223.56074,643.819969 C207.662223,646.459032 208.365223,619.379896 208.659228,608.72566" id="Fill-22" fill="#ffffff"/><path d="M1114,502.460043 C1099.46704,539.949703 1080.5721,475.337694 1087.46314,460.943736 C1096.48953,450.114929 1107.30191,458.474146 1107.58219,472.520348 C1108.97187,483.11906 1111.39663,490.587969 1114,502.460043" id="Fill-24" fill="#ffffff"/><path d="M771,660.787911 C752.875234,698.774356 738.002216,618.88199 750.79987,614.407452 C771.728176,604.559017 767.868973,649.216687 771,660.787911" id="Fill-26" fill="#ffffff"/><path d="M712.649915,744.344788 C714.626363,689.875969 739.322327,714.745412 734.336842,755.715472 C732.602145,785.223233 707.699149,762.755401 712.649915,744.344788" id="Fill-28" fill="#ffffff"/><path d="M387.488292,738.50712 C384.578417,728.842032 395.156972,709.600839 406.398618,724.416453 C408.780596,739.07373 411.053131,752.388416 410.999054,768.453713 C395.137659,787.140073 385.479705,753.876258 387.488292,738.50712" id="Fill-30" fill="#ffffff"/><path d="M1056,570.179326 C1070.23784,514.714071 1100.33166,631.03854 1063.02866,605.196343 C1057.51536,596.077641 1058.54186,580.733633 1056,570.179326" id="Fill-32" fill="#ffffff"/><path d="M329.073687,582.151143 C341.900609,510.388095 371.202488,647.416284 333.251547,609.098539 C331.080559,600.335791 328.532232,593.78647 329.073687,582.151143" id="Fill-34" fill="#ffffff"/><path d="M104.428183,447.84881 C108.949016,483.705121 77.8839747,484.740288 83.7371272,446.814963 C79.2356972,409.355133 109.713483,415.261514 104.368681,447.84881 L104.428183,447.84881 Z" id="Fill-36" fill="#ffffff"/><path d="M288.040701,705.525969 C286.8202,675.152872 313.477488,669.699518 310.441088,695.228522 C315.213311,750.936232 287.850845,731.210224 288.040701,705.525969" id="Fill-38" fill="#ffffff"/><path d="M815.098921,547.979019 C828.156957,509.913973 842.559011,559.613314 839.612309,578.489431 C823.99362,605.5445 813.882286,560.556989 815.098921,547.979019" id="Fill-40" fill="#ffffff"/><path d="M193.001308,691.406356 C206.581589,647.977153 220.146387,696.866117 217.715484,718.561624 C202.873302,739.145688 192.868409,704.979381 193.001308,691.406356" id="Fill-42" fill="#ffffff"/><path d="M424.511648,624 C428.936602,624.023419 434.811406,627.918783 434.970149,634.04806 C456.286653,717.401554 384.132786,635.280161 424.511648,624" id="Fill-44" fill="#ffffff"/><path d="M924,713.390616 C938.161404,676.734486 952.438103,725.294485 953,740.780434 C937.777087,763.37266 925.999772,726.945425 924,713.390616" id="Fill-46" fill="#ffffff"/><path d="M1148.83882,570.627348 C1138.23361,608.279117 1121.97912,567.61652 1126.90782,545.889447 C1141.78985,518.658059 1150.29553,554.598921 1148.83882,570.627348" id="Fill-48" fill="#ffffff"/><path d="M141,488.056043 C155.595595,445.374383 178.092804,520.817638 155.222903,523 C138.45173,522.417775 143.371801,501.856734 141,488.056043" id="Fill-50" fill="#ffffff"/><path d="M809,737.113857 C816.925442,685.169267 849.65758,768.149372 822.26264,766.987903 C809.973345,763.718727 810.061478,750.963561 809,737.113857" id="Fill-52" fill="#ffffff"/><path d="M611,651.277689 C611.745703,624.332418 640.091746,619.090198 633.423109,650.861702 C644.982168,684.265857 614.086863,678.921922 611,651.277689" id="Fill-54" fill="#ffffff"/><path d="M491.040769,658.062502 C501.103162,616.982932 519.037883,660.383628 515.558921,680.838301 C502.920057,698.623481 490.185915,673.815543 491.040769,658.062502" id="Fill-56" fill="#ffffff"/><path d="M1171,455.740368 C1155.09174,503.468261 1131.13772,405.324822 1165.72521,427.241765 C1171.37944,435.924347 1168.85627,444.101761 1171,455.740368" id="Fill-58" fill="#ffffff"/><path d="M884,682.078071 C873.916934,711.512131 853.833578,674.029655 857.424537,656.649345 C872.480813,633.663911 881.750559,668.520857 884,682.078071" id="Fill-60" fill="#ffffff"/><path d="M431,538.59901 C421.040917,564.55715 403.741892,535.956936 406.244566,517.636886 C419.743921,492.214033 429.991519,523.428565 431,538.59901" id="Fill-62" fill="#ffffff"/><path d="M1023,663.689386 C1028.52402,637.447006 1049.09302,661.224893 1053,678.172877 C1048.06672,704.017207 1025.72549,677.220448 1023,663.689386" id="Fill-64" fill="#ffffff"/></g></g></g></g><g id="Bowl Food" transform="translate(48.000000, 0.000000) scale(1 1)"><g id="Bowl Food/Salad" stroke="none" stroke-width="1" fill="none" fill-rule="evenodd"><g id="Salad" transform="translate(2.000000, 0.000000)"><g id="Color" transform="translate(9.000000, 12.000000)"><path d="M404.21434,2.05974353 C415.501774,19.3490567 429.918633,23.4913975 449.348339,25.490967 C451.671143,51.7087127 475.838267,53.8186396 504.22867,68.9599264 C577.307137,97.529334 689.978189,98.646045 662.878378,206.102542 C658.610505,207.065541 654.342632,208.029854 650.076071,208.992853 C645.580294,209.017047 641.191885,208.979623 636.907498,208.883506 L636.923375,208.873813 C646.69706,218.37937 649.929634,236.992949 643.285911,273.302005 L642.585217,277.002 L642.932759,277.349842 L642.932759,277.349842 L643.285217,277.704 L643.485373,277.788794 C650.215593,280.739371 655.523794,294.575934 667.654019,287.756686 C668.122252,287.508619 668.591797,287.260552 669.06003,287.013797 C669.247585,286.870732 669.063965,287.011172 669.747296,286.486162 C682.09186,292.181206 710.116326,274.193057 725.884106,291.958077 C735.727491,359.891725 782.978366,314.859006 755.544109,416.59935 C753.000216,422.365346 747.335365,428.107357 740.2882,431.605672 L740.294838,431.616506 C794.206824,417.314218 765.060032,274.785731 810.769513,233.055958 C844.272803,198.059208 873.210085,252.819013 897.586608,227.528224 C935.024979,218.477363 990.474222,-26.4592683 1159.97395,59.1111978 C1238.13386,126.925835 1091,289 1103.63672,309.231336 C1116.27344,329.462671 1159.97395,422.181641 1091,474 C1075.18747,485.879546 1062.84853,519.632737 1042.73047,529.680497 C976.01673,563 846.121418,589.871965 781,600.5 C810.582636,565.063023 952.967642,567.958776 885.848258,502.739645 C887.507551,499.706532 885.560997,492.949831 894.395256,482.250739 C893.613486,466.192929 1078.15966,476.720385 976.01673,408.832377 C1014.79565,304.311179 1108.57522,267.582346 1037.12593,246.807816 C1167.93069,53.7079334 1021.57639,142.433424 986.632865,232 C907.777754,206.149756 963.709092,315.355215 919,365 C904.332637,329.244645 872.446679,295.050687 873.49997,414.382384 C788.350039,491.878088 853.4927,478.072511 778.158176,485.66643 C746.628986,548.1931 822.747904,497.099234 747.118248,606.85206 C687.489948,611.030288 624.565361,623.777222 557,620.453245 C603.799338,588.078896 588.356502,458.105286 621.725176,411.841639 L621.737225,411.852095 C605.963583,416.433567 586.970935,422.820186 563.770559,430.934743 C511.365186,434.594062 513.247299,416.347345 496.626995,344.283182 C395.180445,249.886414 424.069241,407.835623 371.771418,380.126916 L340.680484,357.909813 C327.386339,323.179099 267.958782,333.901113 257.645852,294.609377 C270.444221,275.485893 233.235124,239.626468 220,218 C115.215566,189 170.837404,86.9143581 300,118.996981 C305.087735,121.079545 309.868601,122.770117 314.373761,124.117131 L314.365105,124.109455 C314.762778,122.325845 315.500875,120.353662 316.654748,118.183232 C315.76681,117.798295 315.083478,117.500067 314.400146,117.204467 C314.310959,110.375451 322.211901,88.4038348 316.544575,74.9481247 C312.018322,33.0215402 357.65859,-9.99547971 404.21434,2.05974353 Z M707.296217,426.778 L707.676919,427.805382 L708.569209,428.133372 C708.264044,427.870702 707.960414,427.599643 707.658431,427.320051 L707.296217,426.778 Z M492.013204,167.35171 L494.404881,170.044209 C497.954103,174.075395 501.636652,178.347933 505.460466,182.874158 C522.842143,193.284886 540.941372,197.103544 558.155661,198.456242 L558.140621,198.459734 C529.638424,190.706234 508.612861,179.4482 492.013204,167.35171 Z M342.423016,128.538235 L344.391328,128.510396 C386.031338,127.134148 396.355665,90.7332834 438.817408,117.927433 C416.791848,98.4447969 394.962669,92.9804136 342.423016,128.538235 Z" id="Combined-Shape" fill="#eaf1ca"/><path d="M231.841741,344.174734 C260.18759,307.831156 262.745199,257.090163 236.633492,226.463863 C19.1084023,157.058145 71.5640619,387.567565 102,349.051658 C130.766224,273.663841 202.453466,293.360324 211.743624,339.029054 C184.514846,353.193111 182.845132,355.080953 172.592434,349.051658 C141.624806,386.676084 219.437403,450.635903 213.528581,479.897451 C173.473781,577.227496 170.752475,559.977342 204.172944,570.07074 C270.926142,601.541326 292.209429,525.083732 317.107155,488.754576 C319.791793,500.263856 318.279229,501.615498 319.033547,504.560007 C351.501952,479.627385 359.493006,534.137507 373.667895,539.540143 C365.916494,564.033579 352.955585,573.221076 333.967992,576.157719 C176.345689,539.831185 323.318491,619.888789 388.733298,605.171488 C480.424819,571.786841 482.526694,452.391333 463.288971,456.514432 C463.288971,456.514432 362.941129,350.641903 318.407568,443.226124 C321.080419,389.986362 234.259225,344.102629 231.841741,344.174734 Z" id="Fill-5" fill="#fd7e77"/><path d="M863.938522,542.385506 C864.594905,543.492 873.305104,538.826111 868.635597,536.02448 C865.948366,537.547875 866.447217,536.405984 863.938522,542.385506 M822.284474,542.065619 C825.61496,535.696727 824.306133,531.597196 818.515524,529.680497 C815.59856,535.540717 816.345523,538.12472 822.284474,542.065619 M787.998978,499.043479 C786.207053,503.683147 790.16898,509.397844 795.32421,518.45562 C796.09349,512.525917 805.113502,508.047503 787.998978,499.043479 M825.095105,553.966978 C822.612665,559.228066 819.44365,556.822361 802.277928,584.605308 C808.698664,579.548738 825.569013,567.074467 825.095105,553.966978 M893.02678,400.42529 C898.613909,396.007182 903.425195,392.201317 908.475404,388.206666 C886.755699,327.467521 892.961141,373.840606 893.02678,400.42529 M828.68158,506.056077 C853.072763,538.705498 849.088519,503.355394 857.687133,470.751859 C850.909325,479.007296 839.85584,492.45827 828.68158,506.056077 M922.355273,411.42074 C944.779933,419.204213 948.926959,454.513675 983.922661,438.747455 C976.73527,419.05869 869.31561,456.32287 964.631572,372.73018 C987.770376,340.913251 988.882289,275.779597 1035.47234,276.010335 C952.542315,275.598677 1035.4172,204.735904 1050.91046,175.707496 C980.304679,202.988326 1012.81138,363.353828 922.355273,411.42074 M787.606461,476.781199 C857,444.873047 838.088858,434.46176 870.854171,412.128686 C865.172522,387.603601 874.810846,270.81742 919.686421,350.576714 C960.497674,323.588239 896.937508,193.378615 973.181614,224.344698 C1030.22915,108.177314 1161.19063,78.4252273 1043.43032,247.946831 C1119.38168,260.05664 988.454327,353.337703 980.875732,408.988814 C1067.95409,469.88528 943.258438,467.08365 901.713349,484.358843 C850.978902,506.35761 1033.35222,556.973127 747,607 C824.001571,510.329973 718.212923,508.689351 787.606461,476.781199 Z" id="Fill-7" fill="#c9d690"/><path d="M887.046622,234.742529 C859.917866,236.1503 892.532424,232.398866 831.939492,208.005367 C805.761311,220.185076 785.20529,204.463657 799.912325,163.336821 C808.226251,149.231585 811.818769,126.795072 827.948388,108.483563 C827.948388,108.483563 827.956255,108.496671 827.954944,108.49536 C854.283906,93.2418869 901.836259,77.66072 923.956468,115.747871 C968.367334,138.611697 926.341428,212.420053 887.046622,234.742529" id="Fill-11" fill="#8b3d39"/><path d="M105.599396,394.455385 C106.348242,391.389023 107.095778,388.323968 107.900917,385.030081 C47.7458632,400.14875 15.0558873,425.448527 78.087188,475.857168 C77.6355243,450.244871 113.822293,427.134045 105.599396,394.455385 M166.783458,378.021253 C247.296106,486.417484 99.2014824,313.974165 156.437087,438.967981 C124.66353,394.369082 76.9207175,513.193561 128.721958,496.225921 C136.152807,501.210557 144.137435,504.730663 153.787327,505.507387 C152.144319,484.147461 165.010842,495.663645 160.863391,450.257947 C181.803566,464.150072 148.485189,530.495951 195,515.872868 C162.31657,631.199471 -70.2169032,388.764635 26.2885662,391.076502 L32.2662366,398.248783 C35.2825644,396.524036 35.1451015,389.970258 47.9409295,379.761691 C80.8717927,356.658711 131.43194,338.882964 166.783458,378.021253" id="Fill-13" fill="#dd615a"/><path d="M503.744811,500.899949 C482.625574,440.161547 439.374876,595.444447 490.229704,543.185779 C493.068649,533.987046 500.643971,518.150689 503.744811,500.899949 M459,547.835659 C471.199083,503.82318 461.630738,477.855227 532.367348,483.873568 C532.669837,478.59522 533.414929,475.964574 535.406643,463.413571 C548.001187,528.498771 552.915652,483.832895 526.566367,547.124532 C543.249097,595.862989 549.055316,549.639718 566.555159,528.388559 C584.065479,497.285271 540.353845,452.440957 576.898714,424.89724 C641.437571,387.284907 581.374505,476.494639 586.169807,550.886159 L586.185521,550.865166 C585.944577,551.347998 585.703634,551.83083 585.464,552.314973 L585.470547,552.305789 C572.095554,555.113561 588.770428,602.114873 522.470324,617 C520.482539,605.976216 549.034364,555.13849 513.241134,562.442633 C513.250301,551.222042 528.764978,532.318128 530.395276,517.835798 C524.848334,526.117413 518.848313,545.309976 507.552769,558.017112 L507.588124,557.981687 C507.103618,558.229663 506.620421,558.480263 506.135915,558.728239 L506.159486,558.712495 C492.696758,550.314108 467.460527,570.658645 459,547.835659" id="Fill-15" fill="#fbe985"/><path d="M818,116.200314 C813.642156,125.935658 805.207745,145.159848 797.528206,162.094757 C788.287901,174.722514 773.814521,207.44638 796.026313,221.449541 C775.978398,238.177287 775.241842,386.18729 752.500201,284.733864 C750.624143,285.853593 745.251082,281.310432 743.864317,282.139084 C741.922846,282.73566 747.227877,262.116399 729.72847,257.758112 C770.305743,222.911482 613.0675,223.55526 732.999142,132.037784 C737.18037,128.847738 790.377207,143.977184 791.345326,135.642156 C793.043459,137.69674 794.175112,139.064277 795.679621,140.884163 C796.375621,135.880787 802.237974,113.668469 818,116.200314" id="Fill-17" fill="#ecf3d0"/><path d="M799,138.244357 C798.682821,139.596103 798.365642,140.949162 797.913466,142.874417 C796.406211,141.054152 795.272494,139.684032 793.572572,137.62754 C789.446626,177.746854 756.648764,125.17966 711.440297,164.527297 C705.449287,172.165321 698.662709,175.809788 700.540879,187.159209 C721.43274,215.524889 656.148951,224.349301 678.87442,163.288415 L678.850829,163.315975 C685.252074,113.801366 753.071983,90.1982962 799,138.244357" id="Fill-19" fill="#fbe985"/><path d="M190.606885,304.389754 C204.114606,302.510627 212.273791,341.187362 175.49289,353.033464 C107.002906,375.092897 60.2009124,265.610807 190.606885,304.389754" id="Fill-21" fill="#d65e57"/><path d="M352.191528,566.127933 C353.591855,578.676481 286.965247,581.329565 284,551.092036 C311.106534,507.462813 331.250617,462.587942 365.217712,536.05614 C359.906394,538.263316 376.782174,542.893388 352.191528,566.127933" id="Fill-23" fill="#d65e57"/><path d="M472.409597,560 C476.690818,566.168234 502.4538,556.440497 497.328597,586.383279 L497.3586,586.326966 C493.772654,621.798896 485.392836,613.175155 419,608.820722 C434.28821,593.769445 445.554786,571.097583 472.409597,560" id="Fill-27" fill="#eaf1ca"/><path d="M187.677366,425 C243.537275,469.325877 135.548338,608.695502 166.792016,457.08318 C164.421148,468.584054 195.077666,450.889091 187.677366,425" id="Fill-29" fill="#dd615a"/><path d="M516.86556,561.931401 C544.60575,548.388847 545.052159,610.197041 518.120983,618.90727 C511.059024,620.381449 475.098145,604.405059 516.86556,561.931401" id="Fill-31" fill="#ecf3d0"/><path d="M678.628871,163 C673.419329,174.676982 667.757859,202.772942 690,210.521863 C687.623146,222.804994 629.577122,210.725677 678.628871,163" id="Fill-33" fill="#ecf3d0"/><path d="M126.461463,360.035629 C132.371597,361.317388 129.582486,366.240951 161.494588,361.873379 C158.57691,366.395176 162.820925,367.989275 165,386 C130.635946,352.97105 96.1459495,358.902912 57,378.414422 C74.5887176,367.255731 98.6464415,359.403174 126.461463,360.035629" id="Fill-35" fill="#fff1e3"/><path d="M535,615 C540.547454,610.987829 541.028462,613.715048 574,586 C572.176397,588.766878 577.680243,586.438893 563.301528,610.616356 C561.883611,597.542098 564.282045,603.506815 535,615" id="Fill-37" fill="#fd837c"/><path d="M798.632218,138 C795.237256,135.14532 794.08403,135.246708 776,120.000241 C779.599462,119.97654 775.178116,121.692245 802,128.20218 C800.876543,131.468998 799.754381,134.735816 798.632218,138" id="Fill-39" fill="#fcee9f"/><path d="M857,93 C854.595224,93.7179067 856.289171,100.290624 828,109 C832.924751,102.30785 844.485216,96.7601509 857,93" id="Fill-41" fill="#ecf3d0"/><path d="M498.452341,586.010451 C499.564879,590.906597 493.820779,584.450686 500,616 C492.399977,615.770085 490.008717,614.028739 497.790145,586 L497.760968,586.056172 C497.99058,586.040496 498.22146,586.026127 498.452341,586.010451" id="Fill-43" fill="#fd837c"/><path d="M933.999747,121 C930.509978,120.146009 934.575944,119.158339 923.868076,116.401687 C923.244949,113.935756 922.621823,111.467229 922,109 C930.118895,109.038936 934.036248,112.957171 933.999747,121" id="Fill-45" fill="#fcee9f"/><path d="M468,51 C464.794563,45.2139918 449.104658,52.9303785 451.190123,32 C452.939596,38.1231195 452.682131,39.5061728 468,51" id="Fill-47" fill="#eaf1ca"/><path d="M563.308577,611 C563.541242,611.012091 563.771278,611.04702 564,611.104787 C560.07887,613.070222 562.076898,625.040162 544,621.270504 C550.221492,618.623951 553.486691,618.310933 563.308577,611" id="Fill-49" fill="#fd8b85"/><path d="M316.467696,75 C320.434036,77.3588641 322.354442,88.6298779 315.143178,96 C315.702996,91.6236165 313.795574,92.1641895 316.467696,75" id="Fill-51" fill="#e9f1c8"/><path d="M500.348535,616.519707 C499.566152,613.013571 498.782383,609.506136 498,606 C500.667591,609.669696 503.333796,613.335497 506,617 C504.114791,616.839037 502.232357,616.679372 500.348535,616.519707" id="Fill-53" fill="#fbe985"/><path d="M38,392 C36,393.999545 34,396.000455 32,398 C34.0013351,396.001819 36,394.000909 38,392" id="Fill-55" fill="#fff1e3"/><path d="M57,379 C55.3328522,379.999038 53.6657044,381.000962 52,382 C53.6657044,381.000962 55.3328522,379.999038 57,379" id="Fill-57" fill="#fff1e3"/><path d="M48,385 C46.6666667,385.999529 45.3333333,386.999057 44,388 C45.3333333,387.000471 46.6666667,385.999529 48,385" id="Fill-59" fill="#fff1e3"/><path d="M52,382 C50.6671136,383 49.3328864,384 48,385 C49.3328864,384 50.6671136,383 52,382" id="Fill-61" fill="#fff1e3"/><path d="M44,388 C42.6661818,389.000461 41.3338182,389.999539 40,391 C41.3338182,389.999539 42.6661818,389.000461 44,388" id="Fill-63" fill="#fff1e3"/><path d="M0,398 C0.665551839,398.333333 1.33110368,398.667595 2,399 C1.33444816,398.666667 0.66722408,398.332405 0,398" id="Fill-65" fill="#fff1e3"/><path d="M563.44,605 C563.48,605.332721 563.519,605.667279 563.56,606 C563.521,605.66636 563.481,605.332721 563.44,605" id="Fill-67" fill="#fd8b85"/><path d="M302,117.714 C301.666057,117.57 301.333028,117.428 301,117.286 L302,117.714 Z" id="Fill-69" fill="#eaf1ca"/><path d="M316.6795,81 C316.5595,81.3330284 316.4385,81.6669716 316.3205,82 C316.4415,81.6669716 316.5605,81.3330284 316.6795,81" id="Fill-71" fill="#eaf1ca"/><path d="M827.892,109.119 L827.108,109.881 L827.892,109.119 Z" id="Fill-73" fill="#ecf3d0"/><path d="M678.883152,162.773236 C678.628152,162.776236 678.374152,162.779236 678.117152,162.782236 C678.098152,162.937236 678.976152,161.402236 678.865152,162.794236 L678.883152,162.773236 Z" id="Fill-75" fill="#fbe985"/><path d="M534.2795,615.608719 C534.4075,615.497719 534.5545,615.421719 534.7205,615.383719 C534.6205,615.566719 534.4735,615.641719 534.2795,615.608719" id="Fill-77" fill="#fd837c"/><path d="M573,591 C572.634374,593.083383 574.008807,596.403693 568,602 C569.666667,598.33377 571.333333,594.66754 573,591" id="Fill-79" fill="#dd615a"/><path d="M406.062995,319.596158 C402.997933,319.863327 448.462363,302.498628 463.595697,327.637431 C465.397127,342.331746 463.130218,335.939326 496.522432,344.724484 C511.463788,376.825406 499.903073,405.29073 468.584476,437.616913 C468.335958,437.856579 468.086124,438.094936 467.836291,438.333293 L467.861274,438.325435 C451.534,441.307517 461.698277,434.061203 423.293614,423.312875 C431.688019,414.236974 337.736173,386.831161 406.062995,319.596158" id="Fill-81" fill="#febcb8"/><path d="M679.039104,215.662791 C694.788935,217.020616 700.68061,188.143607 721.145608,203.524863 C741.022351,224.985558 725.526865,249.275819 720.432137,280.746704 C720.609527,280.073684 683.668185,293.197574 673.922202,277.13806 C672.445696,280.48352 673.971767,277.039857 669.774421,286.553793 C669.538336,286.734487 669.302252,286.9178 669.066168,287.101113 C668.605738,287.323707 669.064863,287.103732 667.694008,287.821271 C667.694008,287.821271 667.671835,287.847458 667.671835,287.846149 C660.668866,291.086858 659.41801,287.349895 644.83295,278.536475 C644.373824,278.287694 643.914699,278.040221 643.455573,277.79144 L643.473834,277.808462 C643.229923,277.562299 642.987317,277.317445 642.743407,277.072591 C640.493431,271.574516 639.3104,271.22884 646.329021,243.895587 C646.327716,243.898206 646.519453,243.890349 646.519453,243.890349 C645.623376,223.606784 671.245709,231.595296 679.039104,215.662791" id="Fill-83" fill="#febcb8"/><path d="M357.411609,400.57463 C334.11677,397.65859 327.187584,434.580239 305.025488,379.474298 C207.56746,312.273018 266.843345,302.330961 340.492725,358.505025 C343.052569,369.871681 378.30561,381.545014 357.411609,400.57463" id="Fill-85" fill="#c4d18d"/><path d="M715,284.285666 C728.596217,268.897963 733.556397,336.405686 763,332.009012 C732.910957,357.436157 737.115499,294.321181 715,284.285666" id="Fill-87" fill="#ecf3d0"/><path d="M532.178844,481 C534.930126,476.301352 510.527218,429.493616 577,425 C566.201316,450.234698 536.197913,403.684566 532.178844,481" id="Fill-89" fill="#fd837c"/><path d="M488.984634,341.055688 C489.640631,339.484784 462.28083,348.584195 470.563125,330.657488 C477.704613,327.021404 489.483819,328.892028 488.984634,341.055688" id="Fill-91" fill="#cb5953"/><path d="M644.964262,245 C645.468317,249.996403 640.461291,250.180495 641.216131,276 C638.735586,272.158707 636.598941,270.234819 644.964262,245" id="Fill-93" fill="#c4d18d"/><path d="M644,279.17509 C650.048962,277.293834 648.332151,291.261085 667,288.167548 C659.209232,292.934159 653.857519,287.861621 644,279.17509" id="Fill-95" fill="#c4d18d"/><path d="M715,283.733262 C713.458696,285.266814 710.56976,285.394705 696,284.188874 C702.326609,283.837174 708.603454,281.99988 715,283.733262" id="Fill-97" fill="#eaf1ca"/><path d="M506,379.176061 C506.08856,378.44981 506.17712,377.724905 506.269154,377 C507.86671,381.240494 508.20185,379.387211 507.899703,388 C505.475585,385.366671 507.658333,388.014794 506,379.176061" id="Fill-99" fill="#eaf1ca"/><path d="M626,412.2615 C625.666978,412.4205 625.333957,412.5795 625,412.7385 C625.333957,412.5785 625.666978,412.4205 626,412.2615" id="Fill-101" fill="#eaf1ca"/><path d="M762.7085,388 C762.5695,388.333021 762.4305,388.666979 762.2915,389 C762.4305,388.666979 762.5695,388.333021 762.7085,388" id="Fill-103" fill="#eaf1ca"/><path d="M717,285.2605 C717.333333,285.4195 717.666667,285.5795 718,285.7395 C717.666667,285.5795 717.333333,285.4205 717,285.2605" id="Fill-105" fill="#eaf1ca"/><path d="M763.289,364 C763.43,364.333025 763.571,364.666975 763.711,365 C763.569,364.666975 763.429,364.333025 763.289,364" id="Fill-107" fill="#eaf1ca"/><path d="M763.7075,381 C763.5695,381.332719 763.4305,381.667281 763.2925,382 C763.4305,381.667281 763.5695,381.332719 763.7075,381" id="Fill-109" fill="#eaf1ca"/><path d="M614,412.694 C613.666973,412.564 613.333027,412.435 613,412.306 C613.333947,412.435 613.666973,412.564 614,412.694" id="Fill-111" fill="#eaf1ca"/><path d="M668,287.783 C668.333022,287.595 668.666045,287.406 669,287.217 C668.666978,287.405 668.333022,287.595 668,287.783" id="Fill-113" fill="#c4d18d"/><path d="M641.2155,276 C641.4055,276.332714 641.5945,276.667286 641.7845,277 C641.5945,276.667286 641.4055,276.332714 641.2155,276" id="Fill-115" fill="#c4d18d"/><path d="M643,278.216 C643.333964,278.405 643.666982,278.595 644,278.784 L643,278.216 Z" id="Fill-117" fill="#c4d18d"/><path d="M669.228,287.709 C669.409,287.569 669.591,287.43 669.772,287.291 C669.59,287.431 669.409,287.569 669.228,287.709" id="Fill-119" fill="#c4d18d"/><path d="M646.425009,244.470995 L646.565009,244.515995 C646.620009,244.481995 646.430009,244.590995 646.425009,244.470995" id="Fill-121" fill="#c4d18d"/><path d="M576.708,424.288 C576.569,424.43 576.431,424.57 576.292,424.712 C576.431,424.57 576.569,424.43 576.708,424.288" id="Fill-123" fill="#fd837c"/><path d="M642.22,277.219 C642.407,277.406 642.593,277.593 642.78,277.781 C642.593,277.593 642.407,277.406 642.22,277.219" id="Fill-125" fill="#c4d18d"/><path d="M497.656543,415 C595.263362,452.912583 437.967078,526.366243 467.840044,438.776778 C468.031764,438.543042 467.84267,438.775465 468.562279,438.066377 C471.176771,436.746685 466.677901,438.121528 497.656543,415" id="Fill-127" fill="#eaf1ca"/><path d="M353.121998,566 C351.547169,560.421016 365.729843,569.031629 366.248208,536 C368.693996,536.870117 371.139783,537.740234 374,538.757338 C369.821505,544.916401 369.591267,564.663984 353.121998,566" id="Fill-129" fill="#fff1e3"/><path d="M179,299 C171.94323,293.965115 170.954138,302.165443 148,297.027508 C152.43827,297.881002 156.133723,288.536217 179,299" id="Fill-131" fill="#fff1e3"/><path d="M399.318872,407.849072 C398.879677,404.566479 398.439195,401.282593 398,398 C402.10602,402.75976 399.429637,402.471564 417,412.841457 C412.020743,411.965237 411.300773,415.758312 399.282809,407.812886 L399.318872,407.849072 Z" id="Fill-133" fill="#cb5953"/><path d="M362,526 C358.849591,520.634957 350.552549,530.127997 350,512 C353.667716,514.605375 356.584015,509.176721 362,526" id="Fill-135" fill="#fec1bd"/><path d="M208,486 C208.617432,480 209.234863,474 209.852295,468 C212.591195,472.136083 216.065462,480.361046 208,486" id="Fill-137" fill="#fff1e3"/><path d="M208.502502,486 C212.403227,487.793841 208.014091,496.503603 203,504 C204.832855,498 206.668335,492 208.502502,486" id="Fill-139" fill="#fec1bd"/><path d="M416,413.519286 C420.362192,413.174266 418.612812,410.292886 424,423 C419.571594,421.345504 418.067207,417.191947 416,413.519286" id="Fill-141" fill="#fff1e3"/><path d="M363.694781,523 C360.085317,521.276884 362.662338,523.125457 358,516 C360.77452,516.723299 367.919897,516.79883 363.694781,523" id="Fill-143" fill="#fff1e3"/><path d="M179.011693,299.133727 C178.60043,296.32144 189.169488,298.789508 190,306 C186.988064,302.56756 183.478354,300.011696 179.011693,299.133727" id="Fill-145" fill="#fec1bd"/><path d="M295,567.541104 C298.900709,567.613772 298.46873,565.573262 305,568.975565 C301.337847,571.40848 298.231464,568.923244 295,567.541104" id="Fill-147" fill="#fff1e3"/><path d="M425.275629,425.214286 C425.517086,427.475275 425.758543,429.737637 426,432 C425.00045,429 424.000899,425.998626 423,423 C423.759442,423.737637 424.517536,424.476648 425.275629,425.214286" id="Fill-149" fill="#fff1e3"/><path d="M435,441 C436.333333,441.975468 437.666667,442.950937 439,443.927743 C438.335902,444.790812 437.67052,445.655219 436.63648,447 C435.969814,444.555308 435.485549,442.778323 435,441" id="Fill-151" fill="#fff1e3"/><path d="M440,443 C441.665706,442.331924 443.331412,441.666667 445,441 C443.334294,441.668076 441.667147,442.333333 440,443" id="Fill-153" fill="#fff1e3"/><path d="M432,438 C432.999548,439 434.000452,439.998661 435,441 C434.000452,440 432.999548,439 432,438" id="Fill-155" fill="#fff1e3"/><path d="M453,443 C454.000912,443.999552 455.000456,444.999104 456,446 C455.000456,445.000448 453.999544,444.000896 453,443" id="Fill-157" fill="#fff1e3"/><path d="M448,441 C449.333333,441.667645 450.666667,442.333822 452,443 C450.666667,442.332355 449.333333,441.666178 448,441" id="Fill-159" fill="#fff1e3"/><path d="M456,447 C456.333333,448.001127 456.665773,449 457,450 C456.666667,448.998873 456.333333,448 456,447" id="Fill-161" fill="#fff1e3"/><path d="M429,435 C429.666229,436.000992 430.333771,437.001983 431,438 C430.333771,436.999008 429.666229,435.999504 429,435" id="Fill-163" fill="#fff1e3"/><path d="M457.3685,454 C457.4565,454.667108 457.5445,455.334216 457.6315,456 C457.5435,455.334216 457.4565,454.667108 457.3685,454" id="Fill-165" fill="#fff1e3"/><path d="M828,506.102712 C835.988853,499.64024 871.18837,445.487882 850.659631,491.123956 C852.823693,506.816855 851.149232,538.171376 828,506.102712" id="Fill-167" fill="#e8f0c6"/><path d="M892.624833,400 C894.868133,370.642084 883.822784,317.497493 908,387.809721 C902.973804,391.795533 898.185396,395.591669 892.624833,400" id="Fill-169" fill="#e9f1c8"/><path d="M824.871136,554 C826.44681,560.054572 813.287622,580.907148 801,584 C804.585153,579.508411 803.69381,580.507131 824.871136,554" id="Fill-171" fill="#e9f1c8"/><path d="M788.158338,499 C790.288074,502.950902 803.663734,501.570203 795.248988,518 C793.511906,514.674006 786.899049,506.913352 788.158338,499" id="Fill-173" fill="#e9f1c8"/><path d="M822.255576,542 C816.501683,538.181645 815.777994,535.677993 818.604067,530 C824.21424,531.857097 825.482284,535.830422 822.255576,542" id="Fill-175" fill="#e9f1c8"/><path d="M957.69668,241 C955.648657,247.037719 962.266734,248.620602 960.780307,253 C960.382295,251.77181 950.316068,242.991839 957.69668,241" id="Fill-177" fill="#e9f1c8"/><path d="M863.140262,542 C861.757578,541.185423 871.115176,530.92503 868.553489,539.217072 C866.785638,539.805938 868.968686,540.420023 863.140262,542" id="Fill-179" fill="#e9f1c8"/><path d="M813.076425,223.57821 C780.729534,228.49189 778.922141,189.3639 799.399284,164 C795.920151,166.745455 786.400414,213.871817 815.334669,214.46088 C815.152467,215.44309 814.968935,216.42793 814.750824,217.606056 C818.372261,218.000518 820.349887,217.260245 813.076425,223.57821" id="Fill-181" fill="#fbe985"/><path d="M813.144305,222.984711 C811.611561,223.368676 822.97777,216.388204 814.797882,216.950202 C815.134113,211.190715 830.070158,203.022473 839,211.97459 C834.518661,208.572041 822.964635,223.218544 813.144305,222.984711" id="Fill-183" fill="#ecf3d0"/><path d="M800.262,164 L800.738,163 L800.262,164 Z" id="Fill-185" fill="#fbe985"/><path d="M188.005348,425.21217 C207.134951,464.651583 213.576538,518.817166 161.471546,450.115916 C128.46319,406.592424 137.495918,342.190548 188.005348,425.21217" id="Fill-187" fill="#d65e57"/><path d="M156.311563,438.741079 C158.092826,439.718689 177.719276,510.162788 131.876482,488.118212 C131.610855,501.710646 113.36202,506.090286 108,488.043715 C119.612067,475.601409 122.586048,417.148712 156.311563,438.741079" id="Fill-189" fill="#fd8b85"/><path d="M106.021709,393.50575 C119.436356,421.370297 60.5457041,481.677932 52,423.652308 C66.41811,419.094886 82.692171,388.741113 106.021709,393.50575" id="Fill-191" fill="#fd8b85"/><path d="M574,435 C577.426853,447.432517 576.552983,485.638097 576.5,522.292042 C577.261774,541.075773 528.436595,605.163414 528,539.718738 C544.878206,516.129316 545.654231,496.64366 535.063247,463.110296 C530.320721,458.425009 563.600986,397.272699 574,435 Z" id="Fill-193" fill="#ecf3d0"/><path d="M512,500.699776 C511.033578,504.464765 491.473134,581.176102 463.075689,543.728415 C461.344449,535.329592 489.663493,455.676449 512,500.699776" id="Fill-195" fill="#ecf3d0"/><path d="M603.633118,417 C629.846767,424.302644 593.1359,467.525628 589.159108,529 C570.298083,498.393405 622.814219,451.772445 603.633118,417" id="Fill-197" fill="#fd837c"/><path d="M512.363557,561.839212 C506.754849,565.963116 503.825419,571.944282 501,578 C506.163697,561.981776 517.379795,535.786546 531,518 C526.382691,531.109387 516.397613,541.783407 512.363557,561.839212" id="Fill-199" fill="#fd837c"/><path d="M485.896508,563.942057 C481.603068,564.309848 477.967834,562.927325 475,559.77729 C480.42592,552.27727 492.148796,558.259823 506,558.27173 C500.342855,561.342385 496.895491,559.131672 485.896508,563.942057" id="Fill-201" fill="#fd837c"/><path d="M486,563.700343 C489.627445,561.457585 490.357172,563.91109 506.241646,558.14028 C506.731663,557.893109 507.220355,557.645937 507.710371,557.398765 C509.34729,555.615226 508.090465,556.934343 512,553.040737 C509.369804,551.960987 514.190505,572.781953 486,563.700343" id="Fill-203" fill="#fec1bd"/><path d="M585,552 C581.563613,562.333774 578.12588,572.667548 574.689494,583 C576.755096,580.600546 564.72101,578.090103 585,552" id="Fill-205" fill="#fd837c"/><path d="M501,481.821746 C501.245083,478.537637 524.338104,485.954994 516.30288,489 C514.125411,486.487482 515.372372,490.641408 501,481.821746" id="Fill-207" fill="#fd8b85"/><path d="M586.7845,549 C586.5945,549.667189 586.4055,550.334377 586.2155,551 C586.4055,550.334377 586.5945,549.667189 586.7845,549" id="Fill-209" fill="#fd837c"/><path d="M585.7755,551 C585.5915,551.333333 585.4085,551.666667 585.2245,552 C585.4085,551.666667 585.5915,551.333333 585.7755,551" id="Fill-211" fill="#fd837c"/><path d="M507,558.2155 C506.667268,558.4045 506.333634,558.5955 506,558.7845 C506.333634,558.5955 506.667268,558.4045 507,558.2155" id="Fill-213" fill="#fd837c"/><path d="M507.797,557.161 C507.599,557.388 507.401,557.613 507.203,557.839 C507.401,557.613 507.599,557.388 507.797,557.161" id="Fill-215" fill="#fd837c"/><path d="M763.3774,331.917996 C763.510842,331.761737 763.089376,331.521441 763.702418,330.780855 C732.932745,346.045596 695.146123,211.69486 749.556216,277.039772 C750.956699,276.209896 751.938359,275.629507 753.831653,274.508123 C751.40459,285.806002 761.167014,304.018644 771.383936,314.427556 C772.946928,320.043668 776.42039,327.327412 763.3774,331.917996" id="Fill-217" fill="#fbe985"/><path d="M731.361417,259.890805 C730.422942,259.926326 729.484468,259.963163 728.545994,260 C725.360021,253.254898 741.356102,243.779918 721,204 C732.639881,213.744679 744.218639,239.817319 731.361417,259.890805" id="Fill-219" fill="#fcee9f"/><path d="M721,204 C719.632122,197.973343 705.644422,206.269964 704,193 C706.768132,195.970887 709.708935,192.719631 721,204" id="Fill-221" fill="#fcee9f"/><path d="M678.5,162.7855 C678.5,162.5955 678.5,162.4045 678.5,162.2145 C678.5,162.4045 678.5,162.5955 678.5,162.7855" id="Fill-223" fill="#ecf3d0"/><path d="M161.024236,298.822786 C166.500441,301.123974 169.230194,302.271353 161.024236,298.822786 C160.058225,298.218225 188.446368,295.042353 161.024236,298.822786" id="Fill-225" fill="#fec1bd"/><path d="M495,566.803191 C499.640835,567.637212 503.285288,565.204107 507,563 C505.479881,565.859874 507.098361,561.498501 497.855014,586 C498.663615,581.040109 500.520971,574.526673 495,566.803191" id="Fill-227" fill="#fff1e3"/><path d="M498,586 C497.666006,586.666273 497.333003,587.333727 497,588 C497.333994,587.333727 497.666997,586.666273 498,586" id="Fill-229" fill="#fff1e3"/><path d="M493.306,566.308 C493.436,566.437 493.566,566.565 493.694,566.692 C493.564,566.563 493.435,566.436 493.306,566.308" id="Fill-231" fill="#fff1e3"/><path d="M498.043965,414.593102 C493.413636,418.071319 496.118982,416.114081 475,432 C477.438135,420.728418 490.518184,407.602402 503,396 C501.348875,402.197261 499.69642,408.394523 498.043965,414.593102" id="Fill-233" fill="#cb5953"/><path d="M427,316.254034 C429.78191,312.594609 434.41885,311.970498 439,314.641748 C435.296281,318.02957 431.132291,316.985052 427,316.254034" id="Fill-235" fill="#cb5953"/><path d="M501,360 C500.309292,364.333762 499.619842,368.666238 498.929133,373 C495.881965,372.306238 496.352502,369.962376 501,360" id="Fill-237" fill="#cb5953"/></g><g id="Outline" transform="translate(-0.000277, 0.559374)" fill="#000000"><path d="M1018.88548,280.016431 C1025.70942,277.832518 1032.14036,276.479698 1037.9071,273.7308 C1043.85464,270.896695 1049.04366,270.656806 1052.8624,274.866015 C1056.74009,279.139457 1056.61563,285.609921 1052.61611,290.575503 C1049.68034,294.222349 1045.57995,295.792773 1041.27781,296.887351 C1032.75476,299.055533 1024.22647,301.226337 1015.63137,303.075977 C1012.89734,303.663248 1012.01569,305.054083 1011.39211,307.487061 C1006.20047,327.759694 1001.31799,348.124088 995.494908,368.21582 C990.937317,383.938417 983.785867,398.574301 970.579463,409.070452 C962.770378,415.27743 954.31676,420.674289 946.157898,426.442125 C945.416421,426.966474 944.709005,427.536703 943.408146,428.525101 C951.615479,431.329056 959.156008,434.119902 966.835399,436.459808 C972.968956,438.329111 979.251856,439.721257 985.505936,441.163216 C987.326876,441.581384 989.27882,441.566965 991.166572,441.527639 C996.153853,441.422769 999.998789,443.417916 1002.39614,447.762145 C1004.6376,451.823226 1004.65856,456.048166 1001.98479,459.944077 C999.14727,464.079878 995.046878,465.603111 990.136889,464.785127 C972.23927,461.801582 955.030726,456.333936 937.978075,450.285573 C932.265038,448.258965 926.511389,446.338538 920.72237,444.542644 C919.629806,444.203128 917.971309,444.233278 917.100139,444.845455 C895.778103,459.830031 877.928955,478.028865 868.103736,502.550033 C864.26011,512.142993 862.964491,522.766299 860.572378,532.933421 C859.599026,537.067911 858.794668,541.240416 857.833107,545.774721 C861.341365,545.494195 864.499846,545.284455 867.649156,544.979022 C873.446035,544.414036 879.246845,543.875268 885.021453,543.130693 C886.340653,542.960279 887.640202,542.123943 888.806128,541.372814 C893.958473,538.053686 898.906453,538.234586 902.891562,541.995478 C906.737808,545.621349 907.367932,551.012965 904.550059,556.066376 C900.242683,563.787411 892.784687,564.937046 885.001803,565.625253 C873.522017,566.639868 862.047471,567.743622 850.596505,569.045318 C849.108312,569.214421 847.318812,570.467614 846.445023,571.749647 C838.144677,583.91847 827.988021,594.451325 817.885075,605.07463 C811.672917,611.605394 806.119703,618.760132 800.050337,625.435092 C797.629403,628.096162 794.925503,630.813599 791.795843,632.440391 C787.458337,634.69378 782.206429,632.929346 779.300785,629.249729 C776.358459,625.520298 776.178985,620.409209 779.1069,616.264232 C786.194158,606.229509 794.064814,596.919697 802.86559,588.261388 C810.985151,580.270314 818.052759,571.2135 825.619488,562.656129 C827.388027,560.655738 827.340866,559.068273 825.758351,556.725745 C818.297735,545.690825 809.414426,536.049363 799.352092,527.325511 C795.783572,524.231853 792.826836,520.039685 790.679698,515.796393 C788.246974,510.985494 790.481884,505.529645 794.845591,502.708649 C799.049475,499.991212 804.469066,500.478856 808.285181,504.297425 C816.601247,512.616218 824.782379,521.073963 833.001503,529.48976 C834.303672,530.822917 835.523309,532.236037 837.483113,534.381934 C838.461705,529.41373 839.377415,525.314634 840.06256,521.177522 C842.593537,505.898 846.945454,491.259494 855.206498,478.015756 C866.739996,459.523287 881.116256,443.607992 898.662788,430.644781 C900.790275,429.071734 901.800308,427.628464 901.46494,424.793049 C901.033941,421.152758 901.585463,417.407597 901.364068,413.72798 C900.292464,395.923718 899.054487,378.129944 898.014323,360.323061 C897.87153,357.882218 898.159737,355.294557 898.857982,352.955961 C900.385476,347.82652 905.359657,344.666008 910.349559,345.227061 C915.550375,345.81171 919.623256,350.074665 920.026745,355.568529 C920.992236,368.737547 921.886986,381.911809 922.802696,395.08476 C923.219286,401.085932 923.618845,407.089725 924.040674,413.291459 C924.610537,413.134155 925.110968,413.118424 925.463366,412.881156 C935.819147,405.911251 946.448724,399.301835 956.421977,391.818068 C966.171214,384.500781 970.820508,373.455375 974.05104,362.20154 C979.760147,342.322169 984.670137,322.212084 989.784491,302.164921 C990.079248,301.011354 989.530345,299.343925 988.82817,298.274253 C980.594636,285.735764 972.193419,273.308699 963.993946,260.747925 C962.258157,258.089477 960.814505,255.132151 959.833293,252.117145 C958.013662,246.523655 960.637651,240.821363 965.586941,238.671533 C970.90042,236.364398 976.436603,238.287447 979.737877,243.558463 C984.79328,251.630812 989.855233,259.696606 994.936836,267.751914 C995.54207,268.710161 996.286166,269.583202 997.469123,271.1746 C998.902295,266.49872 1000.08132,262.583146 1001.30227,258.681991 C1009.25546,233.270741 1020.22433,209.352573 1036.59708,188.179372 C1044.1507,178.410755 1053.1244,170.081475 1063.2863,163.039471 C1066.5129,160.803124 1069.67793,158.476327 1072.84689,156.157394 C1078.10011,152.312607 1084.08957,152.561673 1088.04847,156.822006 C1091.98773,161.060055 1092.03227,167.308981 1087.89258,172.102839 C1086.27993,173.970832 1084.34895,175.706426 1082.25028,176.988459 C1061.95793,189.395861 1048.10568,207.352183 1037.49314,228.238304 C1029.52947,243.912398 1023.71032,260.358597 1019.06102,277.262289 C1018.93919,277.702742 1018.99421,278.190386 1018.88548,280.016431" id="Fill-244"/><path d="M89.0014797,318.063758 C88.5846,360.495619 106.750331,377.212075 115.911198,321.455578 C106.459302,328.795342 96.4751634,327.557183 89.0014797,318.063758 M476.339129,457.175627 C494.675283,503.464931 486.366528,482.341468 523.867352,483.986226 C540.56876,413.232792 495.566724,452.882731 476.339129,457.175627 M482.833538,562.167301 C516.174741,564.151766 515.057818,549.292548 532.817157,514.023383 C480.244427,484.337737 493.72616,536.281387 482.833538,562.167301 M570.905283,528.668808 C490.77785,543.959546 584.575792,605.769118 585.371534,558.513159 C589.685846,545.343293 590.44226,529.095081 570.905283,528.668808 M167.376182,318.208035 C146.318511,313.634454 110.820808,352.340035 145.428381,361.439977 C160.564524,371.440996 168.065738,358.762984 183.203192,351.425843 C218.699584,343.684727 189.165358,320.121672 167.376182,318.208035 M335.099486,520.321729 C329.510938,524.265737 298.208251,568.078723 308.069161,570.705876 C350.331328,609.130772 389.65174,531.678951 335.099486,520.321729 M673.697601,238.039872 C630.685575,286.179855 715.708067,313.899399 730.575467,259.530584 C742.075055,210.890878 683.338273,205.348018 700.80265,252.719399 C703.441577,291.910275 674.02927,263.996613 673.697601,238.039872 M612.742704,442.322967 C575.097677,447.397582 525.669898,462.002348 554.439844,505.739261 C565.940743,509.969199 579.328089,502.583529 593.48889,512.156963 C597.256539,488.083692 603.069259,465.004621 612.742704,442.322967 M270.833148,332.415383 C244.842401,360.474633 314.778565,369.369965 328.049237,410.987318 C334.712758,421.864491 363.830104,401.879505 377.18992,405.810397 C306.693982,363.588393 380.992964,382.689354 270.833148,332.415383 M486.475337,360.47988 C486.350797,377.777379 455.204112,415.332678 446.761642,383.741265 C480.920873,349.017729 455.429595,318.16344 420.439226,340.888377 C363.840591,396.623888 431.47343,421.280825 466.649952,436.791912 C502.690385,434.202796 518.778273,381.693843 486.475337,360.47988 M117.991664,316.291774 C151.840201,282.461444 213.046799,292.006022 223.664123,342.142275 C244.040104,351.921631 252.150906,321.365077 255.733712,303.663603 C264.088349,189.928743 88.6108189,215.754324 89.3764093,311.055831 C92.9198871,301.63192 118.955207,298.657191 117.991664,316.291774 M815.0998,221.215863 C858.924611,194.403953 873.396106,235.680287 905.607276,225.831415 C1023.735,99.5103563 776.302455,81.7931425 815.0998,221.215863 M768.933647,343.295179 C769.836886,305.549696 782.591046,267.686169 795.520873,232.457664 C783.688305,207.724654 787.791556,179.518503 798.047059,153.67456 C733.12525,91.4282219 674.01616,169.809973 686.623495,207.394128 C740.63564,168.554764 773.790689,249.490218 740.197785,288.932923 C751.007818,305.561501 756.997514,323.517428 768.933647,343.295179 M664.72551,213.723953 C663.498468,71.1809144 550.170104,125.568092 511.19447,95.4889632 C483.854763,80.4671058 466.948847,61.3438472 441.930819,41.6198716 C372.195228,-14.0395663 311.469746,67.0204907 340.517612,129.598666 C536.380299,45.3553339 448.792292,242.721004 608.385131,190.865232 C631.948013,188.64599 645.277677,198.771611 664.72551,213.723953 M768.347655,398.258153 C772.195272,366.291619 735.722227,342.30098 726.856323,309.950145 C723.07032,299.390381 702.664188,315.283147 693.420732,311.854601 C600.562737,300.985297 663.318869,227.679472 639.544925,221.761493 C625.162574,212.556621 616.430385,212.033289 599.823365,214.807342 C491.239302,243.266633 516.737135,188.064947 439.828067,135.527138 C400.442108,111.224336 388.335553,148.531741 343.931306,151.292678 C323.403257,156.261053 286.13447,134.570975 257.981978,132.896051 C196.667883,129.446519 176.370559,195.243383 197.660266,207.297069 C329.430971,237.491619 228.55525,319.692776 332.970515,336.581053 C352.658251,340.994617 359.067449,371.211464 378.158706,382.171269 C391.184232,277.075977 480.155283,306.445525 519.67889,365.475798 C532.840754,421.106381 515.06044,454.56946 594.110277,421.147041 C628.615597,417.284352 614.052336,428.763554 649.90006,400.960067 C700.001664,371.813493 719.95421,437.696923 741.339616,443.168955 C823.404622,423.31513 606.210277,325.393028 593.322401,332.905925 C577.060158,331.932711 561.085012,318.099171 548.20369,321.460825 C528.135781,347.755961 511.113192,325.54124 530.584622,307.779432 C503.167569,291.1561 454.973387,253.255847 430.648847,257.265436 C387.391675,313.397053 377.570093,275.521721 403.535933,254.560898 C383.388056,256.069248 285.109313,225.813053 338.458121,213.166519 C363.369963,225.171676 388.073365,231.593314 416.38317,232.607187 C372.727471,141.072621 422.783192,165.324271 440.022086,232.93509 C469.810635,243.740124 505.415835,262.152491 533.089833,282.29487 C528.255077,263.617558 535.963419,212.087065 553.773885,250.328336 C548.102747,351.609468 634.049454,274.085509 768.347655,398.258153 M1045.63167,545.351163 C1060.19362,477.0688 1157.12996,449.165631 1127.85006,386.477281 C1116.42388,359.405672 1090.14604,337.989721 1099.44456,308.831342 C1298.38927,35.0434643 1104.06301,26.3868451 1033.23933,82.3059816 C956.854643,144.114242 964.806821,193.694373 923.336463,240.470283 C877.501978,279.317517 820.327839,179.111904 798.819205,295.046332 C789.73044,346.208263 791.934134,428.252026 782.730006,435.307171 C731.034297,522.23012 698.45213,403.387855 664.96148,417.334193 C588.533527,458.607904 634.231675,632.053762 551.80616,643.439839 C528.020418,632.936474 566.714199,617.969705 573.103733,597.192507 C555.995933,597.782731 541.022346,592.928466 528.350776,580.91544 C498.8585,676.136939 483.353982,619.36788 501.380754,583.007456 C464.033311,570.181232 413.12941,663.664849 392.332617,625.529819 C530.899248,528.226796 462.393322,416.288841 355.184437,430.052865 C330.760266,428.627147 342.043549,475.046299 340.98824,497.604662 C409.660656,519.591163 391.986528,603.56955 325.815391,603.83056 C309.737991,604.296181 298.306572,587.650552 287.197644,584.111831 C276.993267,593.083236 245.922617,616.073118 244.492379,595.551684 C415.271491,441.833737 248.294112,324.392271 178.182281,380.282552 C284.466951,492.800238 176.400711,610.94735 155.243408,580.158641 C152.417016,572.689028 155.097894,566.96779 164.687439,562.256491 C270.639129,474.446894 133.450299,290.332409 25.8900821,426.8368 C-4.36909447,485.83166 -27.8611855,403.987261 74.4683703,363.840222 C54.2536358,306.579309 71.4060085,257.421517 114.705131,226.249819 C148.885337,200.926584 171.527937,215.404124 168.603224,198.771611 C162.486366,139.770193 213.744221,107.439032 264.985033,111.191546 C321.742292,117.283969 313.643289,142.218967 311.240331,94.9367759 C309.522997,59.0288573 328.037439,30.1983808 357.418284,11.1564419 C423.554026,-28.5197292 472.545261,48.1543074 523.812292,77.1867718 C612.982607,99.9182667 627.839519,71.5337372 678.498273,149.020971 C746.288424,60.4414602 803.454698,142.444564 814.172964,131.350975 C856.858565,79.3037087 918.83993,95.7237412 955.080938,138.504491 C1081.60787,-67.0233219 1312.69427,51.5041567 1158.81977,255.517061 C1064.8868,376.068352 1185.95104,326.835798 1145.97646,445.730527 C1135.31981,475.872613 1106.99034,487.224588 1087.66574,511.064393 C1071.11771,540.053574 1070.53696,537.070975 1045.63167,545.351163" id="Fill-241"/><path d="M124.215843,491.792898 C130.130697,493.711129 134.805213,495.39812 139.58058,496.725115 C143.91456,497.928607 148.346772,498.786555 152.756717,499.702313 C154.740996,500.11355 155.794039,499.335747 155.987883,497.100878 C156.232807,494.265576 157.009492,491.478887 157.314665,488.644899 C158.371638,478.790978 159.262271,468.901582 155.95383,459.284155 C154.957106,456.384474 153.263592,453.725229 151.889659,450.956934 C151.356589,450.942482 150.824828,450.929343 150.293068,450.916204 C141.757394,464.293888 133.223029,477.6742 124.215843,491.792898 M181.000277,478.232589 C179.608007,487.28243 178.386006,498.061306 176.196095,508.636535 C174.124063,518.638922 167.61458,522.635673 157.528155,522.433339 C145.661774,522.195531 134.644113,518.519361 123.503336,515.150634 C119.528229,513.949769 115.522998,512.840875 111.504669,511.791104 C107.389419,510.715055 104.523674,508.347487 103.195583,504.227234 C102.866834,503.207681 102.683468,502.079079 102.118964,501.20405 C98.9428076,496.27709 99.6068535,491.380348 102.331144,486.649151 C108.096686,476.632312 113.816387,466.581312 119.934253,456.782572 C124.538043,449.407897 129.57929,442.293366 134.703052,435.266863 C141.977432,425.286812 151.08285,423.813979 161.40765,430.626323 C171.871284,437.530637 176.904673,447.822073 179.017308,459.737435 C179.990456,465.226726 180.23669,470.847403 181.000277,478.232589" id="Fill-246"/><path d="M82.9843052,457.208546 C88.2214299,451.390523 100.900439,423.393004 100.655175,417.421702 C90.0366517,422.644953 79.8194712,427.610121 69.70984,432.78621 C69.0120813,433.143859 68.5412254,435.372289 68.9674877,436.235626 C70.6476172,439.633949 72.5677651,442.941877 74.7016999,446.078186 C77.2776361,449.865601 80.1617927,453.444714 82.9843052,457.208546 M126.000277,413.31332 C124.667516,417.708607 122.753926,425.432784 119.987811,432.841233 C114.018827,448.826715 105.918531,463.796892 97.0575204,478.355706 C96.0725265,479.972333 94.9537518,481.561449 93.643487,482.918682 C89.3100384,487.410914 82.792815,487.543231 78.1786891,483.673283 C67.2034174,474.463486 58.7306336,463.237491 51.5549988,450.977851 C49.5836995,447.609659 47.8589764,444.022686 46.5696968,440.342697 C43.0349983,430.263014 45.3696043,421.493401 54.6057257,416.179755 C66.2197351,409.495775 78.4987138,403.926664 90.6832589,398.292051 C95.1649156,396.218209 100.129232,395.026045 104.988623,393.959647 C116.745594,391.376188 126.049918,398.531794 126.000277,413.31332" id="Fill-248"/><path d="M226.001883,415.001886 C227.045775,404.542032 227.817405,394.739758 229.071138,384.998929 C229.853393,378.90944 235.280039,374.931271 241.051993,375.493418 C246.861133,376.062101 251.343495,380.917481 250.979593,387.078873 C250.421788,396.533399 249.415083,405.963087 248.529236,415.398003 C248.420331,416.553673 247.959478,417.698884 247.54378,418.806182 C245.498495,424.270773 240.172786,427.320747 234.677078,426.216063 C229.211918,425.119223 225.916884,420.593286 226.001883,415.001886" id="Fill-250"/><path d="M417.232757,526.427173 C410.859563,526.446584 406.30238,522.979878 405.179251,517.525544 C404.213176,512.838569 407.246019,507.813853 412.155582,505.642471 C419.996366,502.173178 427.699893,498.388142 435.646259,495.17636 C438.696259,493.941856 442.325641,493.199083 445.563049,493.512238 C449.963179,493.940562 452.650241,497.173048 453.669108,501.430405 C454.635183,505.469071 453.489618,509.410685 450.206018,511.552304 C440.444961,517.920223 430.086047,523.272329 418.673951,526.348237 C418.111727,526.500933 417.483514,526.415527 417.232757,526.427173" id="Fill-252"/><path d="M426.000277,467.801348 C424.832582,470.306095 423.968488,473.017512 422.43751,475.275294 C418.089792,481.687289 413.446259,487.897813 408.963607,494.218821 C405.546154,499.038541 399.907484,500.756899 395.030412,498.380834 C390.039164,495.947577 387.725831,490.224485 389.70702,484.58588 C390.55814,482.165622 391.623337,479.702469 393.123176,477.648759 C397.421591,471.763189 401.826396,465.936111 406.514043,460.362498 C409.666819,456.615126 413.960045,455.501184 418.680127,457.245537 C422.816362,458.774122 425.424214,462.89714 426.000277,467.801348" id="Fill-254"/><path d="M384.000277,469.541841 C383.739959,471.507051 383.706585,474.924693 382.773445,478.08198 C381.374402,482.814607 376.966349,485.609778 372.312663,485.432685 C367.666986,485.258234 363.443159,482.085088 362.0855,477.545413 C361.539499,475.720292 361.171049,473.797373 361.057577,471.899565 C360.634393,464.835646 360.328686,457.766441 360.02031,450.695914 C359.683899,443.01349 363.604689,437.978218 370.264827,437.470726 C376.55518,436.992309 382.121982,442.270754 382.7641,449.469475 C383.040438,452.572578 383.011068,455.702112 383.196629,458.815786 C383.380854,461.92814 383.657191,465.036528 384.000277,469.541841" id="Fill-256"/><path d="M299.034069,448.440626 C305.536658,448.876618 310.538446,453.211201 310.969133,459.199086 C311.403784,465.257636 307.252802,470.156208 300.775315,471.133523 C293.548748,472.222835 286.318218,473.281481 279.081083,474.294795 C272.051364,475.277443 266.099686,471.202855 265.13262,464.824311 C264.181409,458.543098 268.427512,453.291199 275.623693,452.089889 C283.413059,450.792581 291.228849,449.649936 299.034069,448.440626" id="Fill-258"/><path d="M265.043383,444.440626 C256.619219,443.899927 251.508248,435.374738 255.238505,427.814144 C256.117965,426.034563 257.367861,424.371784 258.718784,422.91636 C262.89978,418.409663 267.154605,413.968585 271.489734,409.614124 C276.554076,404.52867 283.010789,404.075901 287.531135,408.337183 C292.0735,412.619463 292.252242,419.260082 287.492278,424.669693 C282.653306,430.168545 277.579897,435.484977 272.279823,440.527123 C270.355114,442.357886 267.483593,443.16631 265.043383,444.440626" id="Fill-260"/><path d="M248.379665,518.440626 C249.779685,519.207282 252.592761,520.382123 254.990002,522.13261 C259.281312,525.267264 263.228482,528.87421 267.48981,532.050729 C272.800501,536.009604 274.506857,541.83017 271.577765,546.999209 C268.681261,552.108068 262.605382,553.922661 256.70418,551.136011 C249.51376,547.741008 243.589093,542.6086 238.606898,536.480587 C235.598289,532.779445 235.161597,528.445092 237.466286,524.115972 C239.421622,520.442304 242.62055,518.680042 248.379665,518.440626" id="Fill-262"/><path d="M278.15444,517.43981 C271.956054,515.734747 264.33494,513.662419 257.937192,508.773952 C253.766098,505.585245 252.924629,499.548578 255.340291,495.0645 C257.674394,490.730245 262.919979,488.327777 267.695635,489.949311 C273.360659,491.871816 278.972606,494.036955 284.422732,496.520301 C289.585464,498.873713 291.927335,504.162591 290.663838,509.2685 C289.387395,514.423466 285.246076,517.498149 278.15444,517.43981" id="Fill-264"/><path d="M430.22877,566.440626 C429.819738,566.362958 428.51839,566.426145 427.542705,565.886419 C421.774568,562.688869 415.835784,559.713793 410.45193,555.937025 C406.827956,553.396362 405.187919,549.206243 406.390265,544.514573 C407.4884,540.229673 410.184886,537.137436 414.527923,536.54637 C417.039434,536.204104 420.004266,536.709604 422.298234,537.818018 C427.069843,540.121728 431.579619,543.000707 436.106329,545.79412 C441.036862,548.837649 443.023404,553.884749 441.496697,558.939746 C440.134125,563.451068 435.946103,566.441942 430.22877,566.440626" id="Fill-266"/><path d="M406.0705,598.440626 C400.123999,598.414211 389.685619,590.887498 387.645267,585.152046 C386.166077,580.992167 387.290986,576.174702 390.40582,573.333937 C393.732706,570.298527 398.577572,569.434461 402.492773,571.788614 C406.305826,574.082268 409.965013,576.720497 413.382409,579.590196 C416.914881,582.557218 417.841962,587.447016 416.245108,591.630569 C414.627567,595.866728 410.753742,598.460242 406.0705,598.440626" id="Fill-268"/><path d="M196.995295,253.20417 C195.814408,257.769251 194.67625,263.925234 192.587685,269.738641 C190.631193,275.182221 184.790203,277.555597 179.573322,275.943933 C174.40176,274.346544 171.018362,268.692746 172.256222,263.085664 C173.465596,257.609642 174.611523,252.041488 176.627578,246.843161 C178.590544,241.775894 183.934318,239.566021 188.79253,240.755953 C193.772457,241.977028 197.148086,246.45387 196.995295,253.20417" id="Fill-270"/><path d="M246.000277,276.543462 C245.737373,280.238262 243.912979,283.424928 240.527096,285.75814 C236.975238,288.20427 233.428691,290.656966 229.907372,293.1438 C225.321159,296.381673 219.501423,296.186035 215.605665,292.621223 C211.650156,288.999952 210.729992,283.230603 213.945918,278.608821 C218.47238,272.108127 224.933442,267.860552 232.532427,265.788628 C239.190004,263.974054 245.947165,269.507062 246.000277,276.543462" id="Fill-272"/><path d="M125.569036,261.440626 C128.02356,262.332721 132.868751,263.547954 137.177806,265.798137 C142.392839,268.52106 144.211448,274.535793 142.199935,279.552968 C140.074011,284.854587 134.781817,287.482694 128.784529,286.056465 C125.623581,285.301953 122.487909,284.397873 119.3988,283.381618 C113.511933,281.442588 110.241894,276.413394 111.150534,270.934164 C112.089772,265.278659 116.952258,261.427306 125.569036,261.440626" id="Fill-274"/></g></g></g></g></g></g></svg>