<svg viewBox="247.08749999999986 429.00777202072527 1280.3625000000002 965.8290155440416" xmlns="http://www.w3.org/2000/svg" overflow="visible" xmlns:xlink="http://www.w3.org/1999/xlink" width="1280.3625000000002px" height="965.8290155440416px"><g id="Master/Solo/Bowl" stroke="none" stroke-width="1" fill="none" fill-rule="evenodd"><g id="Group" transform="translate(269.000000, 394.000000)"><g id="Bowl Plate" transform="translate(0.000000, 149.000000) scale(1 1)"><g id="Bowl Plate/Blue Drops" stroke="none" stroke-width="1" fill="none" fill-rule="evenodd"><g id="Bowl-Blue" transform="translate(0.000000, 1.000000)"><g id="Color" transform="translate(22.000000, 21.000000)"><path d="M39,220.811595 C100.994028,-57.9570903 1173.84232,-75.390871 1196.97503,183.423328 C1201.87688,513.697274 483.592872,476.792952 280.004152,418.402312 C166.978894,394.653654 55.4368607,335.36857 39,220.811595" id="Fill-1" fill="#e0ebb1"/><path d="M1196.55653,266.166968 C1208.04156,687.575595 995.773335,790.322911 638.187377,802.031076 C234.212414,821.755547 -88.833148,697.059195 22.0518253,256.583624 C90.2899434,434.648523 308.845395,452.446351 474.67342,473.636804 C702.641343,496.614783 1127.82226,474.971543 1195.67054,243 C1197.66697,248.858676 1196.20738,257.113844 1196.62347,266.166968 L1196.55653,266.166968 Z" id="Fill-3" fill="#b3be80"/></g><g id="Outline" transform="translate(-0.000000, 0.000000)"><g id="Group-3" fill="#000000"><path d="M45.7245867,279.835641 C-62.4373701,727.04246 265.211667,831.510076 625.551997,823.950307 C807.876127,817.468821 998.327566,801.129502 1111.30828,674.68877 C1210.13922,564.114381 1219.55537,409.711678 1216.36339,268.822224 C1209.8694,280.985983 1205.94393,301.816618 1197.06742,315.332488 C1058.98832,540.453747 561.122945,515.423969 376.265662,480.465608 C231.938823,454.58421 96.3103644,418.958965 45.7245867,279.835641 M626.071987,25.2037704 C244.144847,35.9394278 -105.436787,191.649696 158.639807,384.785405 C326.09902,485.716831 656.037587,483.705696 759.104422,474.633974 C924.027863,468.890122 1258.07789,385.574136 1188.09922,170.313331 C1087.24332,14.9948074 728.30317,23.1192657 626.071987,25.2037704 M1241.86257,331.006233 C1235.2638,756.792835 987.845238,838.173678 634.596164,848.176942 C101.894041,865.032474 -84.3162658,621.884377 34.3319482,234.611979 C134.632487,-5.53317407 637.362461,-9.55675278 825.051532,4.6391037 C1246.67477,43.8608074 1237.7236,199.466261 1241.86257,331.006233" id="Fill-1"/></g><path d="M525.816325,578.816494 C525.049534,565.700381 512.264524,523.858317 538.245048,536.275503 C566.350384,613.470147 517.020176,611.046316 525.816325,578.816494" id="Fill-8" fill="#ffffff"/><path d="M113.42223,589.667047 C110.881069,572.145589 121.438957,542.957117 135.397174,567.285642 C134.269355,582.115416 134.091552,598.207939 137,615.148402 C123.402582,640.153445 110.480038,605.90351 113.42223,589.667047" id="Fill-10" fill="#ffffff"/><path d="M985,555.731798 C969.355952,598.675618 946.039386,505.167501 960.590491,503.274783 C980.291835,493.091959 980.978791,546.99266 985,555.731798" id="Fill-12" fill="#ffffff"/><path d="M931.572653,608.92738 C937.2074,576.004023 956.014451,600.852605 954.034081,623.094226 C970.138159,659.291989 949.469664,666.568448 940.936752,648.483308 C935.824243,635.338569 932.556374,624.44482 931,609.003286 C931.190022,608.977111 931.38263,608.953554 931.572653,608.92738" id="Fill-14" fill="#ffffff"/><path d="M646,560.524771 C665.009719,505.528077 689.889149,638.367681 652.964378,602.880646 C648.09357,589.611924 648.541812,575.179347 646,560.524771" id="Fill-16" fill="#ffffff"/><path d="M568,764.039744 C571.271091,750.828279 566.5372,708.300592 588.913343,721.514683 C601.953382,740.1596 580.729748,813.762586 568,764.039744" id="Fill-18" fill="#ffffff"/><path d="M236,497.463151 C253.474029,437.251154 280.511325,575.029316 243.467119,535.875088 C239.622649,525.153103 237.45431,510.96971 236,497.463151" id="Fill-20" fill="#ffffff"/><path d="M208.659228,608.72566 C204.871129,594.11283 218.17717,573.066958 228.943003,593.455677 C228.690811,609.201214 236.375465,641.451345 223.56074,643.819969 C207.662223,646.459032 208.365223,619.379896 208.659228,608.72566" id="Fill-22" fill="#ffffff"/><path d="M1114,502.460043 C1099.46704,539.949703 1080.5721,475.337694 1087.46314,460.943736 C1096.48953,450.114929 1107.30191,458.474146 1107.58219,472.520348 C1108.97187,483.11906 1111.39663,490.587969 1114,502.460043" id="Fill-24" fill="#ffffff"/><path d="M771,660.787911 C752.875234,698.774356 738.002216,618.88199 750.79987,614.407452 C771.728176,604.559017 767.868973,649.216687 771,660.787911" id="Fill-26" fill="#ffffff"/><path d="M712.649915,744.344788 C714.626363,689.875969 739.322327,714.745412 734.336842,755.715472 C732.602145,785.223233 707.699149,762.755401 712.649915,744.344788" id="Fill-28" fill="#ffffff"/><path d="M387.488292,738.50712 C384.578417,728.842032 395.156972,709.600839 406.398618,724.416453 C408.780596,739.07373 411.053131,752.388416 410.999054,768.453713 C395.137659,787.140073 385.479705,753.876258 387.488292,738.50712" id="Fill-30" fill="#ffffff"/><path d="M1056,570.179326 C1070.23784,514.714071 1100.33166,631.03854 1063.02866,605.196343 C1057.51536,596.077641 1058.54186,580.733633 1056,570.179326" id="Fill-32" fill="#ffffff"/><path d="M329.073687,582.151143 C341.900609,510.388095 371.202488,647.416284 333.251547,609.098539 C331.080559,600.335791 328.532232,593.78647 329.073687,582.151143" id="Fill-34" fill="#ffffff"/><path d="M104.428183,447.84881 C108.949016,483.705121 77.8839747,484.740288 83.7371272,446.814963 C79.2356972,409.355133 109.713483,415.261514 104.368681,447.84881 L104.428183,447.84881 Z" id="Fill-36" fill="#ffffff"/><path d="M288.040701,705.525969 C286.8202,675.152872 313.477488,669.699518 310.441088,695.228522 C315.213311,750.936232 287.850845,731.210224 288.040701,705.525969" id="Fill-38" fill="#ffffff"/><path d="M815.098921,547.979019 C828.156957,509.913973 842.559011,559.613314 839.612309,578.489431 C823.99362,605.5445 813.882286,560.556989 815.098921,547.979019" id="Fill-40" fill="#ffffff"/><path d="M193.001308,691.406356 C206.581589,647.977153 220.146387,696.866117 217.715484,718.561624 C202.873302,739.145688 192.868409,704.979381 193.001308,691.406356" id="Fill-42" fill="#ffffff"/><path d="M424.511648,624 C428.936602,624.023419 434.811406,627.918783 434.970149,634.04806 C456.286653,717.401554 384.132786,635.280161 424.511648,624" id="Fill-44" fill="#ffffff"/><path d="M924,713.390616 C938.161404,676.734486 952.438103,725.294485 953,740.780434 C937.777087,763.37266 925.999772,726.945425 924,713.390616" id="Fill-46" fill="#ffffff"/><path d="M1148.83882,570.627348 C1138.23361,608.279117 1121.97912,567.61652 1126.90782,545.889447 C1141.78985,518.658059 1150.29553,554.598921 1148.83882,570.627348" id="Fill-48" fill="#ffffff"/><path d="M141,488.056043 C155.595595,445.374383 178.092804,520.817638 155.222903,523 C138.45173,522.417775 143.371801,501.856734 141,488.056043" id="Fill-50" fill="#ffffff"/><path d="M809,737.113857 C816.925442,685.169267 849.65758,768.149372 822.26264,766.987903 C809.973345,763.718727 810.061478,750.963561 809,737.113857" id="Fill-52" fill="#ffffff"/><path d="M611,651.277689 C611.745703,624.332418 640.091746,619.090198 633.423109,650.861702 C644.982168,684.265857 614.086863,678.921922 611,651.277689" id="Fill-54" fill="#ffffff"/><path d="M491.040769,658.062502 C501.103162,616.982932 519.037883,660.383628 515.558921,680.838301 C502.920057,698.623481 490.185915,673.815543 491.040769,658.062502" id="Fill-56" fill="#ffffff"/><path d="M1171,455.740368 C1155.09174,503.468261 1131.13772,405.324822 1165.72521,427.241765 C1171.37944,435.924347 1168.85627,444.101761 1171,455.740368" id="Fill-58" fill="#ffffff"/><path d="M884,682.078071 C873.916934,711.512131 853.833578,674.029655 857.424537,656.649345 C872.480813,633.663911 881.750559,668.520857 884,682.078071" id="Fill-60" fill="#ffffff"/><path d="M431,538.59901 C421.040917,564.55715 403.741892,535.956936 406.244566,517.636886 C419.743921,492.214033 429.991519,523.428565 431,538.59901" id="Fill-62" fill="#ffffff"/><path d="M1023,663.689386 C1028.52402,637.447006 1049.09302,661.224893 1053,678.172877 C1048.06672,704.017207 1025.72549,677.220448 1023,663.689386" id="Fill-64" fill="#ffffff"/></g></g></g></g><g id="Bowl Food" transform="translate(48.000000, 0.000000) scale(1 1)"><g id="Bowl Food/Ramen" stroke="none" stroke-width="1" fill="none" fill-rule="evenodd"><g id="Ramen" transform="translate(-65.000000, 55.000000)"><path d="M492.438675,561.998367 C562.563488,571.429673 611.075424,575.106689 637.974484,573.029416 C664.873544,570.952144 715.88199,499.160367 790.999823,357.654086 L785.999823,240.949008 L707.952948,163.641273 L615.735133,114.957129 L563.533417,118.613515 C544.509364,127.823286 534.997337,130.942421 534.997337,127.970921 C534.997337,124.999421 534.997337,114.653743 534.997337,96.9338879 L520.296698,87.7945749 C511.066162,85.9387649 506.450894,85.0108599 506.450894,85.0108599 C506.450894,85.0108599 498.41836,78.9085071 482.353293,66.7038015 L438.798081,90.8050865 L404.366868,79.9014036 L366.540091,108.52697 L344.118897,108.52697 L338.905044,139.278727 L318.691229,151.180359 L291.277279,153.374895 L284.989551,120.323557 L269.360431,121.491147 L227.851385,150.067931 L190.58576,141.707093 L165.86701,183.949946 L135.371302,198.561039 L127.011542,236.950054 L197.177773,281.481798 L233.858356,307.013364 L309.71546,223.893507 L390.131605,181.35086 L487.644754,155.064072 L514.296698,155.812831 L470.364087,263.431648 L463.588317,376.453497 L468.86977,476.885404 L492.438675,561.998367 Z" id="Background" fill="#ffffff"/><g id="Color" transform="translate(13.999823, 11.654086)"><path d="M647.29343,494.604101 C637.896632,519.035619 654.379539,528.77448 678.350128,482.898486 C674.447633,483.498267 663.580158,506.180533 647.29343,494.604101 M914.480045,252.142316 C897.233492,247.751392 877.955377,264.926219 859.49489,283.593248 C863.103777,287.182706 859.322412,276.696426 899.195273,276.166509 C899.785124,265.349361 906.801452,258.76627 914.480045,252.142316 M1205,284.695263 C1199.52545,450.186037 1004.17683,530.464277 850.902521,550 C818.445739,551.676875 766.790789,558.442777 697.525568,561.937745 C680.479023,562.797876 652.665772,562.818627 614.085814,562 C607.892061,502.321089 607.892061,468.321089 614.085814,460 C642.298296,422.097524 717.599546,398.829326 749.515625,386.820313 C745.25369,384.183913 783.849912,332.122613 767.265625,314 C842.326773,205.85356 843.298311,217.487767 990,122 C1049.27737,70.0638016 1120.94404,124.295556 1205,284.695263 Z" id="Fill-1" fill="#ecf3d0"/><path d="M285.252601,304.213127 C410.338277,356.54879 440.453889,242.497903 458.6211,481.428198 C468.915897,462.107851 287.568232,486.144742 241.38642,508.354144 C182.20744,490.584778 121.221839,455.528522 83.5531166,403.894954 C67.0698438,381.300873 55.011621,368.520977 53.5,336 C28.6089289,325.686811 -19.8726874,292.132337 10.5224805,244.946056 C10.5488538,244.99064 10.485558,244.988017 11.0591761,244.598568 C101.355901,167.75646 170.58172,303.072316 285.252601,304.213127 Z" id="Fill-3" fill="#ecf3cf"/><path d="M719.024837,395.573725 C686.40999,409.885981 620.182983,418.631409 614.085814,472.824344 C633.404933,431.921455 668.493957,412.724721 719.024837,395.573725 M918.5,201.134766 C714.791582,279.353586 855.335034,258.796501 768.364741,397.757776 C736.707681,425.537912 659.643312,428.862729 637.971223,485.002605 C636.294106,532.217903 609.190607,555.742188 593.19043,535.164063 C602.232104,547.981205 472.774569,460.951691 560.639411,329.26971 C591.610079,296.223085 663.458654,279.552895 704.385308,324.290388 C704.385308,324.290388 704.348419,324.246918 704.347102,324.246918 C698.456773,331.733025 736.33616,345.893794 728.366891,390.179459 C734.847439,386.647829 744.88906,383.341454 755.346996,373.110134 L755.310107,373.133845 C785.158305,343.566159 761.092405,285.347614 783.412681,238.756707 C788.104128,232.570756 785.707683,233.984198 803.539399,207.151187 L803.49197,207.184119 C838.171266,175.880257 835.732662,201.015293 935.745731,139.594438 L935.71016,139.624735 C949.606646,133.847141 937.507165,136.862397 986.775926,108.687077 L986.714006,108.721326 C987.213321,108.47236 990.579411,107.024668 991.79015,106.535957 C1036.90176,99.210493 1068.30505,98.3651739 1086,104 C1187.1925,136.223998 1231.90742,206.685074 1197,244.355469 C1146.86969,145.317052 1057.2434,92.5445852 959.043349,166.801065 C945.66202,176.919699 932.12149,189.397061 918.5,204.4375 L918.5,201.134766 Z" id="Fill-5" fill="#fbe985"/><path d="M654.124653,82.8149672 C654.486799,83.0174209 654.850267,83.2211893 655.212414,83.423643 C656.868507,81.3636107 664.292509,61.6940494 654.124653,82.8149672 M635.180693,45.7107232 C635.870621,48.5292996 636.559228,51.3465613 637.409083,54.8211403 C639.699593,49.9780268 641.663643,45.8264111 643.806122,41.2974952 C641.331895,40.6467512 642.586191,40.9806683 633.224573,38.5170433 C633.99116,41.3369343 634.585926,43.5231714 635.180693,45.7107232 M871.869831,175.686006 C854.50927,184.50326 826.386087,187.298173 804.422037,208.507171 L804.469619,208.474305 C760.163512,234.935268 781.92402,212.936175 709.240963,171.922208 L709.293831,171.962962 C681.626635,148.964746 626.779701,120.272097 589.033203,96 C578.689111,107.691281 611.108121,89.2415167 605,61.7847592 C599.657257,37.7684709 589.206812,12.228384 607.5,0 C658.763548,10.5644028 629.248892,16.5573887 722.049581,26.9837549 C727.345642,30.0494825 723.517992,25.0459836 736.604167,61.7847592 C748.91186,60.5674077 791.777311,24.8303836 811.51297,47.8101945 C814.566103,44.3027497 817.090554,41.402666 819.615006,38.5025823 C914.632189,-11.1130382 902.529297,33.5 876.189453,108 C917.446393,102.178798 866.888335,148.491477 871.869831,175.686006 L847.556641,190" id="Fill-7" fill="#ecf3cf"/><path d="M949.930295,272.158648 C1027.53123,254.799717 1081.59133,197.216134 1122.01221,239.5 C1149.27921,268.023737 1162.20511,322.227053 1145.25906,341.286183 C1111.23619,291.015323 1095.87469,247.109573 1077.90625,234.171875 C1035.48372,203.626652 1001.54492,295 900.458949,321.486649 C861.823462,381.479774 792.306536,517.955647 703,557 C711.978828,497.506905 789.936115,462.289555 824.762562,401.120506 C872.329363,312.590224 872.329363,289.517578 949.930295,272.158648 Z" id="Fill-9" fill="#fbe985"/><path d="M445.005859,329.5 L272,293 C296.034598,274.57247 194.923127,308.572017 229.930156,286.174531 L281.455255,226.5 C304.836811,204.552959 244.422364,248.002376 337.705255,181.019742 C401.842654,134.965295 477.5,116.246928 489,154 L445.005859,329.5 Z" id="Fill-11" fill="#ecf3d0"/><path d="M248,516.414559 C315.929391,484.177144 473.564045,416.314653 485,554 C419.997771,547.407255 324.58968,542.733563 248,516.414559" id="Fill-13" fill="#8d3e39"/><path d="M521.117187,108.78369 C531.111637,107.045588 473.253248,30.3503314 427.5,76.0756815 C387.731571,71.0544981 300.133074,75.5148222 328.059595,147.176384 C319.916016,150.954637 302,122.601017 294,134.5 C302.788268,133.389874 309.987331,125.552304 323.747805,117.761719 C325.864583,97.3151569 378.002666,79.1179662 427.5,69.2734375 C451.593124,64.4815542 474.645815,54.6349767 491.79712,60.9989937 C477.548116,47.8850605 534.787738,150.892891 593.819514,76.0756815 C595.519492,78.6703537 597.052238,81.0088431 598.584984,83.34996 C586.19924,79.4704324 575.519698,113.471805 601.5,102.664831 C607.191174,108.514996 618.170945,106.181762 625.517326,102.664831 C634.409621,131.190461 654.127261,104.719549 684,150.954637 C677.138198,151.943897 662.383546,118.330083 582.292319,110.44622 C578.635588,97.9523811 534.513845,110.942821 491.608818,161.224284 C494.184463,128.870364 487.448138,154.891343 521.117187,108.78369 Z" id="Fill-15" fill="#a7b177"/><path d="M838,546 C882.837778,472.129928 1040.40295,228.15744 1115,417.448185 C1108.47756,423.073938 1102.50483,428.22485 1095.78287,434.022914 C1019.71774,257.252988 942.50696,509.376702 838,546" id="Fill-17" fill="#fbe985"/><path d="M1171.64801,218.741176 C1177.42154,243.643129 1238.577,254.345055 1165.34116,152 C1162.70778,160.176251 1209.56868,139.018132 1207.95947,269.742215 C1202.42208,268.888058 1198.539,268.110118 1204.15599,283.994805 C1198.56686,284.357493 1200.63111,265.551591 1155,283.640001 C1189.09465,272.44135 1131.53704,248.814062 1171.64801,218.741176" id="Fill-19" fill="#f3f7e0"/><path d="M871.772486,175 C864.17714,173.730805 879.021228,106.188227 921.916016,98 C964.810803,89.8117728 957.917403,149.072395 876.068359,182" id="Fill-21" fill="#8d3e39"/><path d="M462.658618,489 C429.404358,443.194266 485.326885,325.207722 385,319.933498 C483.557219,332.936484 418.32494,346.259799 470,210 C454.886488,283.108841 440.271737,314.105619 462.658618,489" id="Fill-23" fill="#a8b378"/><path d="M534,446 C537.498685,451.203716 530.850783,446.522644 601.602123,503.616489 C607.423039,540.861892 547.469205,513.717821 546.210052,465.081185 C545.74854,460.845228 534.040015,474.022273 534,446" id="Fill-27" fill="#fbec98"/><path d="M533.509596,447.152334 C536.646907,449.00634 521.946785,455.858673 545.761706,465.9092 C536.103499,486.732935 556.838663,480.682121 575,519 C519.004886,485.170629 490.98056,391.199716 553.812443,336 C563.506787,339.72378 502.496527,356.229822 533.509596,447.152334" id="Fill-31" fill="#a8b378"/><path d="M672,20.0865209 C631.309537,16.3381073 589.366895,-33.4560096 601.053448,63.9974537 C600.948212,64.6045539 561.09431,-43.61138 672,20.0865209" id="Fill-33" fill="#a9b479"/><path d="M925,148 C942.99476,117.894287 995.308734,90.4188056 1042,96.9783156 C1034.66114,98.5853821 1033.73755,91.9856955 992.972926,106.480097 C991.803057,106.942128 992.971616,106.481436 989.391266,107.953241 C988.991703,108.14341 989.383406,107.958598 987.956769,108.683117 C987.379039,113.94626 972.921397,105.42345 937.239738,140.101268 C932.79869,143.923408 937.148035,140.291437 925,148" id="Fill-35" fill="#a9b479"/><path d="M706,324.989406 C699.667423,325.482515 706.794552,308.659211 643,295.812933 C671.21188,292.458992 692.949489,298.969899 706,324.989406" id="Fill-39" fill="#a9b479"/><path d="M605,98.1255347 C596.526506,108.712915 571.429103,87.0154171 597.605218,82 C604.990655,83.4056691 598.213995,80.2679451 605,98.1255347" id="Fill-41" fill="#8e9766"/><path d="M598,521.184196 C602.391171,517.684909 590.966783,516.067189 607,501 C606.740385,513.240842 595.807692,533.774167 606.149038,558 C597.550262,555.230953 598.469406,539.280281 598,521.184196" id="Fill-43" fill="#f3f7e0"/><path d="M95,220.202867 C87.1809547,216.520523 100.952667,225.556709 45,224.917276 C52.6042584,226.15828 52.9657942,212.912499 95,220.202867" id="Fill-45" fill="#a9b479"/><path d="M621,560 C628.194604,555.08963 629.117469,547.807728 628.650027,540 C636.843622,543.947683 639.816555,540.342584 638.812222,559.492763 C632.874369,559.6614 626.937852,559.831364 621,560" id="Fill-47" fill="#f3f7e0"/><path d="M764.985878,345.699494 C766.168092,339.899654 766.397786,340.695502 772,314 C765.996794,336.120043 780.769924,338.788395 755,374 C757.756336,365.261645 756.84145,369.529678 764.985878,345.699494" id="Fill-49" fill="#f0f5da"/><path d="M1101,111 C1088.80521,105.494154 1062.25003,105.46304 1041,97 C1063.34286,98.1458112 1061.87462,94.623152 1101,111" id="Fill-51" fill="#a9b479"/><path d="M757,367 C756.287637,369.217822 756.94893,366.981205 754.817078,373.603793 C749.027815,379.20876 752.532015,377.929351 728,391 C731.309085,386.639537 731.856453,381.768921 731.238373,376.647256 C736.06123,376.824467 740.622189,383.044303 757,367" id="Fill-53" fill="#a9b479"/><path d="M598.124143,521 C595.825075,533.875394 599.01233,545.993333 603,558 L597.72459,558 C594.576636,555.446103 606.842259,550.796804 586,528.235371 C590.041381,525.824921 594.082762,523.413131 598.124143,521" id="Fill-55" fill="#a9b479"/><path d="M793,39.0284894 C787.58374,38.3640697 795.754788,49.5586588 765,47.8154062 C770.287458,47.573552 771.403305,41.5394253 793,39.0284894" id="Fill-57" fill="#a9b479"/><path d="M890,133.139997 C888.027333,135.043846 886.053223,136.947694 884.080556,138.850233 C883.463376,142.604209 886.484384,74.0014456 890,133.139997" id="Fill-59" fill="#a9b479"/><path d="M721,27 C712.725501,25.9804654 720.685157,27.0413325 701,24.342196 C706.285539,19.5000329 710.477988,16.7194839 721,27" id="Fill-61" fill="#a9b479"/><path d="M1041.87953,98 C1043.25347,98.9181869 1044.6274,99.8338479 1046,100.752035 C1039.36399,102.705866 1045.88517,95.32627 992,107 C1000.18352,106.767612 997.438321,99.0381701 1041.87953,98" id="Fill-63" fill="#f0f5da"/><path d="M1204.89272,214 C1203.36733,207.677722 1207.05711,218.079062 1197,182 C1201.56486,189.918258 1205.72681,186.737018 1204.89272,214" id="Fill-65" fill="#a9b479"/><path d="M900,61 C897.671731,64.7545571 899.255005,68.8308952 891,84 C893.933977,80.7087542 890.393014,73.206316 900,61" id="Fill-67" fill="#a9b479"/><path d="M819,39 C816.467297,41.8042373 813.934595,44.6084746 810.871483,48 C810.144823,42.565678 807.15199,43.9258475 819,39" id="Fill-69" fill="#a9b479"/><path d="M903.115201,34 C901.782142,29.7114352 901.184463,33.7063709 904,21 C903.705555,25.3333333 903.409645,29.6666667 903.115201,34" id="Fill-71" fill="#cad891"/><path d="M470.862049,210 C470.495052,207.79389 467.603413,208.660093 475,196 C473.620683,200.666667 472.241366,205.333333 470.862049,210" id="Fill-73" fill="#cad891"/><path d="M559,331 C557.334193,332.667112 555.667096,334.334225 554,336 C555.667096,334.334225 557.334193,332.667112 559,331" id="Fill-75" fill="#a8b378"/><path d="M704.764,327 L704.236,325 C704.412,325.667141 704.588,326.332859 704.764,327" id="Fill-77" fill="#a9b479"/><path d="M475.27,195.9855 C475.424,195.6625 475.577,195.3395 475.73,195.0145 C475.577,195.3395 475.423,195.6625 475.27,195.9855" id="Fill-79" fill="#cad891"/><path d="M560.799,329.0795 L560.201,329.9205 L560.799,329.0795 Z" id="Fill-81" fill="#a8b378"/><path d="M560.789,330.1445 C560.596,330.3815 560.404,330.6185 560.211,330.8555 C560.404,330.6195 560.596,330.3815 560.789,330.1445" id="Fill-83" fill="#a8b378"/><path d="M53.5578348,355.52 L53.4428348,355.48 C53.4368348,355.487 53.4708348,355.47 53.5578348,355.52" id="Fill-89" fill="#a7b278"/><path d="M819.729,38.3165 C819.576,38.4385 819.424,38.5605 819.271,38.6835 C819.424,38.5615 819.576,38.4385 819.729,38.3165" id="Fill-93" fill="#a9b479"/><path d="M707.1865,171.205 C707.3955,171.401 707.6045,171.598 707.8135,171.795 C707.6045,171.598 707.3955,171.401 707.1865,171.205" id="Fill-95" fill="#a7b177"/><path d="M919,154 C940.403486,150.960643 960.662715,102.512973 1041,103.003703 C1039.79559,111.240572 1016.03951,106.093188 919,154" id="Fill-97" fill="#f3f7e0"/><path d="M915,253.67026 C907.179685,260.267654 900.033859,266.826965 899.433121,277.602883 C891.556487,275.851107 893.264834,273.459814 859,285 C869.750251,277.244386 888.938988,248.250785 915,253.67026" id="Fill-99" fill="#f3f7e0"/><path d="M800,475.972638 C806.312085,477.435109 830.719431,419.660084 839,449.641429 C835.295396,449.093506 845.586696,458.471321 800,475.972638" id="Fill-101" fill="#f3f7e0"/><path d="M874,491 C870.500894,494.792211 872.732092,497.553113 809,510 C811.873836,505.040851 810.93994,502.894975 874,491" id="Fill-105" fill="#f3f7e0"/><path d="M347.028937,317.142379 C340.542535,321.929906 340.944487,325.907051 312,315.158479 C377.566783,225.539879 566.071776,166.942742 347.028937,317.142379" id="Fill-109" fill="#ecf3d0"/><path d="M143.444133,244.758642 C139.277526,206.140029 164.417989,149.778967 219.266917,141.263638 L219.203747,141.315976 C255.358214,129.000936 332.314115,206.735369 271.1271,223.896871 C301.684417,163.25721 167.242227,112.370661 158.57342,247 C153.939615,243.524783 148.888623,242.824767 143.444133,244.758642" id="Fill-111" fill="#d75e58"/><path d="M400.007339,316.237025 C292.581043,338.376334 462.06646,217.987439 438.327482,290.537071 C466.495642,301.373295 417.008051,341.548593 417.280882,299.048302 C407.254002,303.538678 397.839329,307.572834 389.573208,314.930879 C393.592478,315.433652 396.799908,315.835338 400.007339,316.237025" id="Fill-113" fill="#fbec98"/><path d="M159,248.261944 C159.719891,245.84218 160.438447,243.42109 161.157003,241 C191.664901,253.216764 201.812831,314.979071 240.952747,262.748728 C231.343066,272.397308 237.366647,280.890338 246,295.859484 C217.552941,297.280069 176.758209,288.384187 159,248.261944" id="Fill-115" fill="#a7b177"/><path d="M312.370536,312.157492 C313.247024,312.765106 314.123512,313.37272 315,313.977663 C300.487616,314.653383 286.157777,299.806238 262,295.480829 C269.954161,288.11735 265.191865,295.62906 287.406068,271 C277.625108,287.923715 282.775313,293.08643 312.370536,312.157492" id="Fill-117" fill="#a8b378"/><path d="M364.28866,311.755325 C364.858247,313.169805 365.427835,314.58552 366,316 C361.668814,315.575409 357.333763,315.150818 353,314.724993 C356.176546,311.355419 353.82732,310.032275 364.28866,311.755325" id="Fill-119" fill="#a8b378"/><path d="M355,311.012308 C352.400446,313.492333 354.055973,315.80296 345,314.730517 C347.669173,314.947443 343.597884,310.744198 355,311.012308" id="Fill-121" fill="#f0dc6c"/><path d="M530.460752,422 C534.971636,418.102852 503.020863,406.04705 550,343 C541.889643,362.146743 535.991201,390.066073 530.460752,422" id="Fill-123" fill="#fbec98"/><path d="M719,397 C684.240631,409.841723 634.758603,427.794864 615,475 C619.240794,431.146613 672.9597,411.851443 719,397" id="Fill-125" fill="#a9b479"/><path d="M935,140 C940.748428,135.786428 936.804708,129.538903 978,113 C968.326498,118.258612 955.291312,129.560285 935,140" id="Fill-127" fill="#f0f5da"/><path d="M533,446 C528.57483,442.499235 519.161426,441.578693 530.083585,423 C530.679921,427.770571 530.123255,422.796939 533,446" id="Fill-129" fill="#fbec98"/><path d="M777.541285,259 C775.558135,251.369757 779.321581,245.541837 784,240 C781.846622,246.333333 779.694663,252.666667 777.541285,259" id="Fill-131" fill="#f0f5da"/><path d="M988,108 C989.33285,107.666966 990.6657,107.333034 992,107 C990.6657,107.333034 989.33285,107.666966 988,108" id="Fill-133" fill="#f0f5da"/><path d="M753,376 C753.666667,375.332565 754.333333,374.666282 755,374 C754.333333,374.666282 753.666667,375.332565 753,376" id="Fill-135" fill="#f0f5da"/><path d="M987,108.784 C987.667254,108.595 988.334507,108.405 989,108.216 C988.334507,108.405 987.667254,108.595 987,108.784" id="Fill-137" fill="#f0f5da"/><path d="M985,109.911 C985.666093,109.638 986.332186,109.363 987,109.089 C986.332186,109.363 985.666093,109.638 985,109.911" id="Fill-139" fill="#f0f5da"/><path d="M804,207.861 C804.666667,207.622 805.333333,207.382 806,207.139 C805.335079,207.379 804.666667,207.62 804,207.861" id="Fill-141" fill="#a7b177"/><path d="M783.223,239.8175 C783.408,239.6055 783.593,239.3945 783.777,239.1825 C783.593,239.3945 783.408,239.6055 783.223,239.8175" id="Fill-143" fill="#f0f5da"/><path d="M935.274,140.806 C935.425,140.602 935.576,140.398 935.726,140.194 C935.576,140.398 935.425,140.602 935.274,140.806" id="Fill-145" fill="#f0f5da"/><path d="M780,221.090238 C771.361627,225.852811 770.461961,229.767808 739,190.008392 C749.022778,189.5133 744.441464,211.051164 780,221.090238" id="Fill-147" fill="#8e9766"/><path d="M672,131.865974 C665.646296,132.720113 661.394697,129.405078 658,124.392595 C658.775291,129.405078 667.589131,111.798443 672,131.865974" id="Fill-151" fill="#8e9766"/><path d="M684,146 C683.064255,143.053097 680.334894,150.674707 675,137 C675.075319,140.17171 681.527234,134.046674 684,146" id="Fill-155" fill="#8e9766"/><path d="M604,12 C604.847258,5.93113094 604.859008,5.92068088 611,6.02126265 C608.667102,8.01330427 606.332898,10.0066521 604,12" id="Fill-157" fill="#cad891"/><path d="M654,83.39068 C654.729116,80.7810008 666.384156,63.269961 655.113289,84 C654.742644,83.797332 654.370645,83.593348 654,83.39068" id="Fill-161" fill="#cad891"/><path d="M888.811,51 C888.604,51.9986541 888.397,52.9986541 888.189,54 C888.396,53 888.603,52 888.811,51" id="Fill-163" fill="#cad891"/><path d="M249.370117,180.855469 C251.405852,182.801113 262,196.177734 251.24525,214.807613 C247.832256,223.899104 230.836729,227.128048 222.578108,221.93336 C215.033823,217.187991 212.428743,210.04196 215.360352,207.24707 C218.215759,204.524828 222.359976,206.649497 224.947369,207.24707 C227.924387,207.93463 234,214 239.928172,203.472656 C245.814461,193.019689 237.97896,185.098603 222.578108,188.236438 C184.731411,195.947485 196.88542,270.431586 272,232.418107 C261.705655,242.6103 251.412637,252.80515 241.118292,263 C119.49096,256.715226 202.5,136.05957 249.370117,180.855469 Z" id="Fill-165" fill="#d75e58"/><path d="M489,129.981001 C479.491458,166.114147 458.374915,59.3557893 353.095121,171 C330.55446,151.349764 436.773176,46.1643869 489,129.981001" id="Fill-167" fill="#d75e58"/><path d="M311.906913,312 C267.327949,302.228273 382.87283,224.278797 465.850728,198 C479.358788,210.645073 429.330102,198.466935 311.906913,312" id="Fill-169" fill="#fbec98"/><path d="M268.480641,291 C204.002209,288.898006 489.980739,114.576626 477.609263,174.55161 C449.921916,165.950993 411.210573,193.297887 374.625371,208.845307 C348.067742,219.500741 317.091541,238.50256 291.843119,266.7563 C283.679054,274.478901 292.022607,269.07059 268.480641,291" id="Fill-171" fill="#fbec98"/><path d="M405.740785,154 C393.644576,137.180149 448.022153,107.380133 463,135.745368 C450.069983,137.930448 427.14095,145.827011 405.740785,154" id="Fill-173" fill="#d75e58"/><path d="M464.550042,206.404255 C465.502328,204.541897 463.792885,206.596007 468.192915,198 C467.321704,198.562122 477.836704,205.580772 463,213 C463.516681,210.802732 464.033361,208.60415 464.550042,206.404255" id="Fill-175" fill="#f0dc6c"/><path d="M271.951058,232 L264,229.874811 C265.633723,230.143455 265.767814,222.304851 277,228.20493 C275.318388,229.469953 273.634039,230.734977 271.951058,232" id="Fill-177" fill="#a9b479"/><path d="M462.941023,136 C462.293148,134.256499 461.646574,132.512998 461,130.769497 C463.307892,132.989787 462.380312,125.43977 473,134.91756 C469.646141,135.277085 466.293582,135.639187 462.941023,136" id="Fill-179" fill="#a9b479"/><path d="M477,175 C479.027574,172.465646 474.261044,174.225973 482.663085,163 C485.885621,168.726243 483.004122,174.504261 477,175" id="Fill-181" fill="#f0dc6c"/><path d="M428,319.502124 C435.222571,316.775545 444.036667,317.055056 447.872516,304 C456.46466,308.868602 436.836291,348.450351 428,319.502124" id="Fill-183" fill="#f0dc6c"/><path d="M455,245.280774 C459.85509,238.633908 450.173228,236.404574 467,212 C463.442347,223.333776 459.883407,234.666224 456.325754,246 C455.884265,245.759816 455.442776,245.520959 455,245.280774" id="Fill-185" fill="#f0f5da"/><path d="M454.396909,246 C456.708208,247.183309 462.71033,258.812152 451,264 C452.131886,258.000439 453.265023,252.000878 454.396909,246" id="Fill-187" fill="#f0dc6c"/><path d="M427.602722,320 C428.736022,322.979344 429.868011,325.959989 431,328.939333 C424.577964,329.565879 416.803574,325.25155 415,320.058495 C419.200033,320.038997 423.401377,320.019498 427.602722,320" id="Fill-189" fill="#f0f5da"/><path d="M446,290 C446.726937,285 447.455286,280 448.182223,275 C454.073945,279.716779 452.992713,287.150336 446,290" id="Fill-191" fill="#f0dc6c"/></g><g id="Outline" fill="#000000"><path d="M454.485205,307.306003 C444.460572,309.340726 437.964978,315.75155 431.008331,321.260832 C438.095391,325.497425 444.996712,329.622147 452.249751,333.958765 C452.983486,325.214459 453.705365,316.600448 454.485205,307.306003 M388.724402,312.148012 C416.204543,318.51672 412.422582,310.618679 436.355241,294.663347 C503.47286,265.100642 401.686608,282.739293 388.724402,312.148012 M337.747628,323.031014 C344.878158,320.909428 359.061499,321.932053 365.318662,311.420197 C435.467382,227.497756 463.592999,289.566011 468.034926,233.587446 C412.393601,246.247212 370.04776,276.645654 337.747628,323.031014 M324.730095,309.600002 C417.24389,189.785631 475.322215,238.87562 479.131839,199.885542 C409.901275,204.043167 342.451697,240.383894 301.568055,297.298221 C309.373042,301.444001 316.826311,305.402893 324.730095,309.600002 M253.927995,297.828618 C263.972388,294.117157 279.635053,301.880953 286.541644,287.743184 C397.526583,144.740081 485.731499,213.045433 498.058768,158.83047 C399.669826,159.420093 308.792114,216.430496 253.927995,297.828618 M724.437641,43.1671446 C717.816904,49.7569613 711.559742,52.3628805 700.474684,45.1518548 C534.308157,-37.4610462 680.871982,90.5132733 610.245082,104.322012 C636.156322,110.074776 658.473974,122.294958 680.559782,136.420882 C680.445177,124.159901 684.902912,114.329795 692.138826,105.51047 C692.074279,94.5669253 638.918695,122.733226 669.831712,86.6465105 C637.916231,61.238799 646.443097,27.8882986 678.943458,69.9712603 C679.055429,50.7809033 703.928638,35.8666227 696.579436,85.7094325 C704.114377,97.6966605 711.114495,84.3235573 724.737985,97.3452563 C742.009071,83.2759252 740.839311,61.0900773 724.437641,43.1671446 M357.686241,178.276155 C484.349654,112.776772 493.618158,163.238159 522.523615,129.459919 C537.590862,88.2771841 502.44932,106.512037 488.915407,77.6139736 C469.393059,67.9496988 458.35279,94.2102566 437.737086,97.5124036 C394.270224,80.6318386 407.804137,86.2832612 372.292434,113.142654 C330.686914,107.407 338.345681,152.648651 357.686241,178.276155 M340.890699,187.64167 C332.641783,180.638592 326.190978,172.955079 329.918929,157.743355 C322.04676,146.004873 291.847718,171.545513 284.838378,150.391504 C280.463634,142.327632 284.684254,119.565323 267.119411,128.106947 C188.128991,200.375139 216.627402,92.9875804 170.215063,192.542904 C155.583841,203.011329 133.411092,189.228912 135.264529,218.549451 C132.679992,242.697634 173.841583,241.875059 185.922517,258.283137 C261.086189,340.139268 214.806897,265.606033 340.890699,187.64167 M712.487119,110.764424 C672.895746,144.392626 731.686728,170.445236 754.669616,193.247029 C773.200038,159.192404 770.311205,157.981573 764.748258,123.999334 C770.100437,103.073014 785.445635,116.810682 784.402335,136.626197 C789.027366,118.555859 894.542887,37.6407535 861.659192,91.9662707 C837.456487,105.607862 816.943533,124.119101 799.300969,147.702669 C848.199048,146.09437 826.222575,172.108813 787.706117,167.165463 C767.131249,207.584848 764.163378,200.852891 789.724217,234.449506 C829.818797,177.791822 873.11968,207.270295 877.647231,178.082685 C861.325916,160.803335 893.917171,151.299627 897.629315,131.424888 C841.001335,127.920058 918.562488,76.0004096 902.117347,41.5009357 C900.381149,15.7523489 834.234378,64.7791638 824.265071,68.7999128 C801.060878,79.1512027 814.042844,42.5775225 769.890987,75.2673303 C745.567091,88.3614159 734.970751,139.111033 712.487119,110.764424 M737.312906,396.492927 C679.637674,199.120876 439.653754,401.933771 606.992675,532.781182 C614.932026,436.397709 666.520027,413.359015 737.312906,396.492927 M117.573225,227.995249 C115.672365,180.583315 127.460859,189.086771 160.519755,174.377805 C175.717415,127.830562 184.324636,126.186727 228.572655,135.435108 C309.45208,62.1469223 283.223372,155.345383 318.919496,136.918376 C331.839549,139.570359 318.790401,101.681874 343.462064,97.6176933 C393.025378,95.598764 381.711111,49.9451666 439.111027,77.7771726 C463.819574,59.4580876 493.275661,43.313234 511.219886,77.2441437 C529.373561,82.9534756 544.59625,92.5019318 545.032275,113.894159 C563.719456,108.219046 608.614268,98.2520635 611.709917,76.1833503 C572.293745,-18.4075658 636.031179,-9.37108052 693.618151,20.7128081 C708.605044,33.2830776 710.906362,25.3876691 728.213015,23.109464 C744.096987,30.5100111 750.470072,47.5116593 754.445675,63.7973377 C829.041592,13.6057559 802.384762,64.4685593 832.865706,42.168209 C950.352825,-35.0854482 928.87034,77.312582 897.633267,112.68596 C948.072584,127.741066 882.958574,159.679368 898.681835,181.854687 C932.531109,169.972749 943.792684,128.580751 977.933081,113.31375 C1214.41431,48.2789577 1254.30339,276.224495 1221.93608,281.667971 C1225.09495,288.634198 1242.04857,309.170946 1223.26523,312.541532 C1078.95135,-2.9010308 965.433246,229.396918 924.598344,231.983095 C782.929597,260.658735 843.509469,311.162237 813.48431,401.907448 C754.088688,487.477673 657.825864,441.366065 665.102615,579.429767 C661.510345,588.495206 648.225401,587.481793 646.950257,574.311373 C643.332958,422.52448 769.883083,456.377739 797.886191,391.927304 C819.173717,246.681532 794.232008,251.205039 930.987236,208.795679 C1055.77877,83.1390486 1123.98711,113.615141 1209.48762,243.654454 C1209.59432,141.373444 1065.19613,97.3347273 985.030679,130.381204 C900.21517,205.848885 932.070055,194.789522 839.370521,217.054337 C755.699742,254.670385 815.444448,337.367518 782.465908,387.002381 C760.627752,415.750407 725.559978,416.151823 693.006925,429.062968 C588.140832,477.487 643.181469,569.85762 623.901504,579.033614 C369.731608,363.429341 708.097884,182.915481 754.324484,388.060542 C784.639449,370.77856 771.764184,336.668658 773.668996,305.805626 C770.338868,283.518436 784.573584,267.894767 774.608229,245.36936 C704.910024,148.340988 548.965725,50.1794361 498.015297,202.233501 C456.731197,318.302192 458.388357,450.076152 503.488668,566.113257 C480.530809,589.217757 464.571751,506.317941 462.43246,495.083535 C393.381048,481.501168 378.507443,515.268879 344.040357,513.419729 C317.242577,502.019491 255.458695,551.372704 255.386243,520.00823 C280.396451,501.528578 315.561705,492.626337 349.799581,494.576828 C470.325706,446.243609 461.19947,509.156814 454.889615,440.009145 C435.206558,396.458708 361.606518,449.906373 342.028844,462.75566 C286.325607,442.472923 292.12435,454.160075 246.805368,475.056125 C180.763981,466.1144 176.270679,505.08342 158.686077,483.500356 C171.515236,454.024515 217.163542,457.754401 247.553593,455.513047 C260.206234,447.625536 277.931788,434.203736 295.957685,434.028692 C346.497117,432.325632 328.585824,458.724382 365.591343,423.077251 C339.122886,413.262938 302.790507,426.48732 278.491639,398.039369 C246.630167,439.011525 212.487137,428.283825 259.330232,391.37585 C193.212441,392.582733 190.136552,401.262549 148.972326,371.660361 C139.583947,375.761393 99.3905694,399.005402 110.437425,370.208679 C172.295076,345.74331 113.181356,326.855661 85.6011004,306.687426 C83.5013283,273.019741 147.295406,321.035775 151.215683,334.394401 C157.59272,285.179381 183.202298,288.647359 166.234191,359.303303 C190.688499,388.683067 230.283824,367.871249 265.136878,373.398956 C258.917918,359.62312 261.128343,318.74046 279.449315,348.957277 C282.484368,366.939435 281.755902,383.422532 302.806315,393.013104 C319.489886,408.294582 346.113783,394.438463 366.689969,402.910332 C392.503728,423.320733 418.944521,398.93828 451.458055,411.022901 C462.25199,308.222023 394.225436,337.054281 328.655641,338.688903 C292.482655,301.740128 271.926229,317.287463 237.247058,316.425404 C198.339363,314.621002 185.527328,269.118759 148.769462,256.630089 C96.6097546,228.995501 -0.23399733,250.277174 21.7951669,294.138215 C100.328485,371.440568 70.5061896,333.48891 97.5529396,415.54904 C80.2871227,468.412347 70.0201069,364.129518 57.8061255,353.212296 C-71.3364411,260.319175 46.1743896,216.367322 117.573225,227.995249" id="Fill-193"/><path d="M702.553608,572.189805 C702.553608,573.264449 702.566758,574.341725 702.550978,575.416369 C702.483912,579.933296 699.881478,583.36111 695.74704,584.393663 C691.804596,585.378864 687.2625,583.524214 685.550338,579.584727 C684.497003,577.159214 683.848696,574.260173 684.030169,571.645248 C685.635815,548.44108 695.123718,528.733124 710.936891,511.87291 C726.598835,495.1758 744.889515,481.847313 764.149367,469.678969 C781.459038,458.744427 797.996789,446.785224 811.971557,431.624449 C827.139052,415.166734 837.326549,396.13487 841.125656,373.998769 C842.532732,365.797534 843.325692,357.437141 843.680749,349.118839 C844.342206,333.635802 847.567962,318.957761 854.757202,305.10971 C864.435784,286.465875 880.016198,275.749682 899.806005,270.290961 C909.796248,267.536609 919.719425,264.537601 929.696517,261.73458 C949.899243,256.057511 966.435679,244.954603 979.5136,228.548187 C991.355398,213.692574 1004.73183,200.471946 1020.95266,190.330563 C1034.18575,182.058299 1047.85018,174.968538 1063.56472,172.599585 C1081.43722,169.904423 1098.25376,172.999452 1114.05773,181.522949 C1146.31923,198.923774 1164.17332,226.488342 1170.20534,262.164701 C1171.5151,269.912139 1172.00561,277.797689 1173.25751,285.558281 C1175.27476,298.067302 1181.6066,308.186324 1191.86643,315.478649 C1202.39057,322.95907 1211.01845,332.029754 1217.20432,343.31418 C1218.94279,346.4855 1220.16707,350.094833 1220.84826,353.652866 C1221.77929,358.524939 1218.305,363.073435 1213.60905,364.082312 C1209.15637,365.041205 1204.71159,362.138218 1203.2072,357.350328 C1200.47589,348.654519 1195.02117,341.79363 1188.3106,335.895581 C1183.82899,331.95741 1178.83453,328.590102 1174.46733,324.537495 C1162.07717,313.037351 1155.86894,298.505315 1154.36324,281.825305 C1152.90882,265.713528 1150.46945,249.843776 1142.74105,235.31437 C1130.69411,212.665282 1112.89525,197.070439 1087.53762,191.177651 C1074.56096,188.161543 1061.90385,190.075384 1049.79904,195.4223 C1028.40754,204.870491 1010.50216,218.890855 996.044776,237.249257 C980.872021,256.516569 962.24601,270.86051 938.557154,278.054183 C928.526145,281.100544 918.426755,283.925926 908.360241,286.852589 C907.902612,286.98544 907.452874,287.155121 906.98867,287.255088 C881.784906,292.669087 868.7083,309.624006 863.749341,333.676578 C862.002989,342.146145 861.600591,350.947182 861.150853,359.624576 C859.575453,390.059247 848.727814,416.691229 829.018223,439.820423 C813.96645,457.485633 795.604759,471.178473 776.202884,483.545436 C757.412495,495.524369 739.278304,508.246478 723.934595,524.617379 C712.850252,536.443731 705.749118,550.197078 702.848173,566.120759 C702.487857,568.104314 702.531252,570.161528 702.387915,572.184543 C702.443146,572.187174 702.498377,572.188489 702.553608,572.189805" id="Fill-196"/><path d="M1074.0228,227.310136 C1089.45522,227.904632 1100.67616,235.366084 1109.77686,246.674662 C1118.29475,257.258533 1121.43292,269.961283 1123.93423,282.963911 C1125.43607,290.780482 1127.17261,298.627304 1129.72666,306.146627 C1133.51884,317.317103 1140.67862,326.076713 1150.69176,332.64116 C1162.53638,340.40512 1173.48043,349.230493 1182.58772,360.273389 C1191.85851,371.513574 1195.74167,384.689816 1197.92652,398.64206 C1198.31286,401.114743 1198.66887,403.590056 1199.09476,406.054847 C1199.84502,410.400455 1197.56392,414.67767 1193.60692,416.262555 C1189.762,417.804036 1185.0376,416.590054 1182.95823,412.748189 C1181.41684,409.900658 1180.32111,406.527024 1180.08377,403.307276 C1178.65841,383.994045 1169.3085,369.280268 1154.21363,357.771771 C1150.02721,354.580958 1145.93308,351.221792 1141.49217,348.420295 C1122.43371,336.393587 1112.52605,318.499519 1107.95197,297.108183 C1106.23389,289.069333 1105.24365,280.801629 1102.71202,273.031092 C1100.75923,267.040098 1097.61578,261.125388 1093.76295,256.126097 C1086.33946,246.493156 1075.49958,244.102019 1063.39521,248.096454 C1052.59225,251.662115 1043.86602,258.294955 1036.63636,266.766524 C1027.24558,277.771278 1018.31102,289.162716 1009.17868,300.387118 C996.577201,315.875582 980.579118,325.067911 960.451307,326.814572 C954.387251,327.340675 948.353523,328.256094 942.32375,329.118902 C932.694309,330.498606 924.248935,334.66797 916.928293,340.874667 C906.420692,349.781586 898.177057,360.493037 894.942631,374.061226 C893.213999,381.310921 892.727451,388.928889 892.351661,396.4127 C890.483262,433.567388 875.401578,464.377278 847.504814,488.789759 C838.808913,496.399835 829.105633,502.894573 819.66211,509.619481 C802.706753,521.690907 785.485046,533.392747 768.600891,545.561502 C759.157368,552.369272 751.729922,561.140719 746.55985,571.631207 C744.996038,574.804922 743.684071,578.168033 742.765035,581.579809 C741.247373,587.211739 737.228404,590.435433 732.21524,589.506862 C727.01616,588.542779 723.796237,583.522443 724.88273,577.778717 C727.224492,565.398205 734.107373,555.261521 741.914564,545.894262 C752.588304,533.091553 766.3778,523.808471 780.039395,514.488561 C795.160636,504.170372 810.560093,494.236237 825.399163,483.532678 C848.944681,466.547452 864.791129,444.034202 871.531606,415.647015 C873.117833,408.968141 873.406597,401.97492 874.183229,395.113226 C875.081168,387.178282 875.588814,379.190727 876.751783,371.296556 C878.614908,358.654308 885.812924,348.484743 893.448703,338.836019 C907.185456,321.47726 925.264226,311.833797 947.539971,310.042418 C954.426808,309.488695 961.300459,308.329953 968.079174,306.948934 C980.269257,304.464414 988.842531,296.491327 996.372825,287.267431 C1003.9374,278.002763 1011.08268,268.392181 1018.79757,259.257723 C1028.84763,247.358595 1040.14241,236.818127 1055.34013,231.770172 C1061.39231,229.759144 1067.78469,228.766125 1074.0228,227.310136" id="Fill-198"/><path d="M1160.99982,422.908675 C1159.38059,433.281036 1157.87589,444.417468 1155.82223,455.448328 C1154.75985,461.154447 1150.85,464.907499 1145.22218,466.574203 C1141.68356,467.620677 1137.81452,466.264088 1135.58314,463.389915 C1133.40573,460.583043 1132.62771,456.207121 1135.10526,453.709044 C1138.95325,449.825347 1139.18626,445.074648 1139.99587,440.325268 C1141.68488,430.413461 1143.2791,420.542562 1141.10301,410.435449 C1139.63517,403.616875 1136.64288,397.770875 1130.38843,394.696116 C1124.55919,391.829861 1118.21785,389.979727 1112.03844,387.870945 C1109.11329,386.874617 1106.0407,386.311131 1103.02998,385.570814 C1081.37307,380.25003 1071.8683,361.928165 1069.95814,346.504227 C1068.95895,338.439914 1068.51004,330.3083 1067.77283,322.209676 C1067.67541,321.150006 1067.3779,320.099574 1067.10144,319.063657 C1065.95745,314.78011 1063.86693,310.991427 1059.21723,310.21284 C1054.13442,309.360353 1049.22933,310.654919 1046.19491,315.168084 C1043.47644,319.212776 1041.2319,323.617731 1039.13216,328.031923 C1034.26656,338.261763 1028.87834,348.108908 1020.17397,355.650643 C1008.99074,365.339431 995.572167,369.287791 981.216287,371.316076 C971.939269,372.626477 962.600377,374.340688 953.676167,377.121167 C939.828437,381.432427 932.11536,391.720331 930.051167,405.948677 C928.060696,419.662363 926.491488,433.440712 924.963091,447.216422 C923.763805,458.016346 923.626895,468.929759 920.356835,479.460476 C914.721115,497.612108 903.287753,511.493389 887.570664,521.246839 C870.638493,531.751164 852.707136,540.628374 835.364233,550.483437 C828.531861,554.363175 821.928551,558.716664 815.566151,563.331441 C811.47726,566.297989 808.692969,570.485203 807.427862,575.650269 C806.293082,580.28616 801.993559,583.127342 797.824364,582.58893 C793.298411,582.00433 789.605771,578.216966 790.033617,573.375212 C790.369311,569.577291 791.46723,565.588023 793.240487,562.218985 C799.36066,550.591647 809.898837,543.587005 820.931999,537.422972 C831.36091,531.598086 842.255845,526.604573 852.614985,520.664878 C863.375642,514.494247 874.253463,508.320977 884.147896,500.899328 C897.657299,490.768461 904.142128,476.462257 905.650779,459.532611 C907.326619,440.729077 909.489545,421.951936 912.10533,403.257933 C912.984718,396.976452 915.491238,390.807141 917.974061,384.888561 C923.599249,371.478391 935.335395,364.948818 947.856145,359.617478 C957.63868,355.452698 968.13473,354.367954 978.563642,353.134092 C990.794772,351.687768 1002.58753,348.755531 1010.92197,338.975687 C1015.35577,333.773671 1018.48102,327.418291 1021.96829,321.448245 C1025.15805,315.987579 1027.52634,309.981903 1031.15053,304.848508 C1042.23898,289.143487 1065.08201,287.152152 1077.39213,300.524052 C1083.80718,307.493064 1085.82135,316.134059 1086.55066,325.271238 C1087.14043,332.653298 1087.31947,340.142248 1088.76625,347.365951 C1090.86467,357.847842 1096.93877,365.266851 1107.83633,367.952316 C1114.55022,369.607143 1121.32599,371.131326 1127.86743,373.331164 C1143.58846,378.617637 1154.94547,388.446307 1158.60652,405.362757 C1159.78869,410.830021 1160.1494,416.475435 1160.99982,422.908675" id="Fill-201"/><path d="M1104.93158,474.083 C1104.14609,470.879447 1103.60836,467.587638 1102.52502,464.489464 C1099.81664,456.738762 1099.43708,448.873459 1100.4229,440.798713 C1100.88418,437.012935 1100.94744,433.152073 1100.85386,429.332047 C1100.72866,424.142079 1097.75538,420.559158 1092.51788,418.919181 C1090.92976,418.422577 1089.26124,418.168348 1087.61776,417.873284 C1073.18102,415.287521 1062.91293,407.062608 1055.78154,394.514479 C1052.71205,389.111117 1051.00663,388.693549 1047.35198,393.741253 C1035.38901,410.259575 1018.77898,418.520054 999.278695,422.33086 C985.025143,425.116845 976.101353,434.295447 970.577855,447.359938 C966.704421,456.525367 965.730461,466.282242 964.213509,475.927151 C960.361162,500.434598 948.359975,519.742857 927.585242,533.38167 C920.596192,537.969653 913.285563,542.075523 906.057965,546.29336 C897.765469,551.132938 890.279554,556.520493 887.003148,566.303713 C885.458519,570.911456 880.292183,572.680523 875.998325,571.07216 C871.602986,569.425597 869.104167,564.744088 870.296905,560.013842 C872.65734,550.652142 878.323177,543.429657 885.936932,537.899839 C891.818911,533.629313 898.184575,529.996336 904.485659,526.339648 C915.719803,519.819258 926.501893,512.849685 934.574293,502.323535 C942.135331,492.465232 944.938595,480.920848 946.777126,469.072179 C948.319119,459.14011 949.953368,449.297613 953.921693,439.96621 C961.838576,421.352143 975.201198,409.110933 995.112678,404.416252 C997.437529,403.868276 999.751836,403.275513 1002.08723,402.784178 C1014.17145,400.243202 1023.79902,394.038952 1031.51162,384.321594 C1034.62987,380.39487 1038.71945,376.89757 1043.0423,374.343421 C1051.33875,369.441932 1060.68297,371.43098 1066.99987,378.758845 C1068.85817,380.915184 1070.40939,383.378443 1071.83672,385.854874 C1076.4113,393.788674 1082.91534,398.619032 1092.15544,400.152312 C1105.21757,402.317872 1115.19572,409.116202 1118.16504,422.521861 C1119.67409,429.332047 1118.95185,436.771878 1118.38909,443.858686 C1117.97131,449.122419 1118.38646,454.029178 1119.9759,459.00575 C1121.8566,464.89386 1124.15905,470.770115 1122.33238,477.182491 C1120.76007,482.700454 1116.50971,485.822337 1111.5292,484.987201 C1106.72003,484.181043 1103.92994,480.0238 1104.93158,474.083" id="Fill-203"/><path d="M963.999823,531.568885 C964.46325,522.377292 969.090886,512.919939 975.910904,504.365905 C977.989074,501.759373 980.069869,499.147604 982.313451,496.686389 C985.79107,492.868886 986.375268,488.375858 985.217375,483.693002 C983.149708,475.328796 985.535073,468.488449 991.650116,462.696737 C998.34148,456.357797 1006.1566,452.401524 1015.43419,451.592465 C1021.42452,451.070111 1026.71381,449.055318 1031.27712,445.000858 C1036.37211,440.475101 1041.68503,436.085496 1048.94221,435.72155 C1051.86583,435.576234 1054.97717,435.605035 1057.74063,436.429805 C1073.86974,441.238339 1084.44307,451.401328 1087.96007,468.260656 C1088.90135,472.77463 1090.30474,477.2022 1091.64774,481.623224 C1092.64547,484.903973 1093.91101,487.888851 1096.99873,490.131438 C1100.41071,492.609673 1100.80061,497.182559 1098.73951,500.773578 C1096.58913,504.519077 1091.76983,506.200035 1087.17764,504.856839 C1082.54607,503.501862 1079.58438,500.154346 1077.96963,495.988608 C1075.23375,488.93225 1072.49261,481.782942 1070.8306,474.429405 C1068.77606,465.341235 1064.81139,458.324152 1055.77667,454.758007 C1052.36207,453.410884 1049.35575,453.382083 1046.50433,455.940176 C1044.82263,457.449634 1042.97289,458.770574 1041.24261,460.228975 C1034.44885,465.95523 1026.49326,468.665185 1017.74473,469.593378 C1015.19395,469.864373 1012.58672,470.597501 1010.24599,471.648755 C1003.77912,474.557702 1002.38492,476.459908 1003.6032,483.24527 C1005.43456,493.446224 1001.64975,501.542053 995.604283,509.217642 C991.793212,514.054979 988.087165,519.016685 984.827472,524.229749 C982.692852,527.641413 981.70431,531.456298 983.605251,535.70975 C984.986321,538.799361 983.52517,541.824824 981.116174,544.084429 C978.604779,546.438294 975.552509,547.218552 972.174663,546.244539 C966.835488,544.707588 963.994579,540.26169 963.999823,531.568885" id="Fill-205"/><path d="M1003.99982,519.75984 C1004.13832,500.260337 1021.64788,481.765854 1040.22314,482.687121 C1050.95717,483.220207 1059.41497,489.425803 1065.58989,498.153253 C1068.16776,501.797113 1067.00506,506.503156 1063.76811,509.277594 C1060.35177,512.206242 1055.98667,512.286005 1052.12784,509.379957 C1049.62837,507.498869 1047.36277,505.277457 1044.7477,503.586472 C1039.34614,500.094163 1032.17063,501.303909 1028.22144,506.49385 C1026.58702,508.640816 1025.52398,511.29295 1024.542,513.84671 C1023.37665,516.871074 1022.69232,520.078893 1021.59473,523.133833 C1019.95366,527.705608 1015.64969,530.332484 1011.49188,529.501615 C1006.93942,528.593641 1003.96557,524.723784 1003.99982,519.75984" id="Fill-207"/></g></g></g></g></g></g></svg>